  0
SECTION
  2
HEADER
  9
$ACADVER
  1
AC1009
  9
$EXTMIN
 10
0.0
 20
0.0
 30
0.0
  9
$EXTMAX
 10
1000.0
 20
1000.0
 30
0.0
  9
$FILLMODE
 70
 0
  9
$SPLFRAME
 70
 1
  0
ENDSEC
  0
SECTION
  2
TABLES
  0
TABLE
  2
LAYER
 70
1
  0
LAYER
  2
0
 70
     0
 62
     7
  6
CONTINUOUS
  0
ENDTAB
  0
ENDSEC
  0
SECTION
  2
ENTITIES
  0
LINE
  8
0
 62
     0
 10
131.903
 20
145.124
 30
0.0
 11
125.659
 21
141.742
 31
0.0
  0
LINE
  8
0
 62
     0
 10
125.659
 20
141.742
 30
0.0
 11
118.828
 21
139.364
 31
0.0
  0
LINE
  8
0
 62
     0
 10
118.828
 20
139.364
 30
0.0
 11
111.426
 21
137.991
 31
0.0
  0
LINE
  8
0
 62
     0
 10
111.426
 20
137.991
 30
0.0
 11
103.47
 21
137.629
 31
0.0
  0
LINE
  8
0
 62
     0
 10
103.47
 20
137.629
 30
0.0
 11
101.187
 21
137.644
 31
0.0
  0
LINE
  8
0
 62
     0
 10
101.187
 20
137.644
 30
0.0
 11
99.4145
 21
137.601
 31
0.0
  0
LINE
  8
0
 62
     0
 10
99.4145
 20
137.601
 30
0.0
 11
98.2278
 21
137.503
 31
0.0
  0
LINE
  8
0
 62
     0
 10
98.2278
 20
137.503
 30
0.0
 11
97.7015
 21
137.355
 31
0.0
  0
LINE
  8
0
 62
     0
 10
97.7015
 20
137.355
 30
0.0
 11
97.5596
 21
136.973
 31
0.0
  0
LINE
  8
0
 62
     0
 10
97.5596
 20
136.973
 30
0.0
 11
97.4644
 21
136.207
 31
0.0
  0
LINE
  8
0
 62
     0
 10
97.4644
 20
136.207
 30
0.0
 11
97.4203
 21
135.136
 31
0.0
  0
LINE
  8
0
 62
     0
 10
97.4203
 20
135.136
 30
0.0
 11
97.4369
 21
133.843
 31
0.0
  0
LINE
  8
0
 62
     0
 10
97.4369
 20
133.843
 30
0.0
 11
97.4729
 21
132.826
 31
0.0
  0
LINE
  8
0
 62
     0
 10
97.4729
 20
132.826
 30
0.0
 11
97.5155
 21
132.05
 31
0.0
  0
LINE
  8
0
 62
     0
 10
97.5155
 20
132.05
 30
0.0
 11
97.5748
 21
131.475
 31
0.0
  0
LINE
  8
0
 62
     0
 10
97.5748
 20
131.475
 30
0.0
 11
97.6616
 21
131.06
 31
0.0
  0
LINE
  8
0
 62
     0
 10
97.6616
 20
131.06
 30
0.0
 11
97.7911
 21
130.768
 31
0.0
  0
LINE
  8
0
 62
     0
 10
97.7911
 20
130.768
 30
0.0
 11
97.9745
 21
130.558
 31
0.0
  0
LINE
  8
0
 62
     0
 10
97.9745
 20
130.558
 30
0.0
 11
98.2225
 21
130.391
 31
0.0
  0
LINE
  8
0
 62
     0
 10
98.2225
 20
130.391
 30
0.0
 11
98.5492
 21
130.227
 31
0.0
  0
LINE
  8
0
 62
     0
 10
98.5492
 20
130.227
 30
0.0
 11
99.1168
 21
129.921
 31
0.0
  0
LINE
  8
0
 62
     0
 10
99.1168
 20
129.921
 30
0.0
 11
99.3895
 21
129.555
 31
0.0
  0
LINE
  8
0
 62
     0
 10
99.3895
 20
129.555
 30
0.0
 11
99.4336
 21
128.913
 31
0.0
  0
LINE
  8
0
 62
     0
 10
99.4336
 20
128.913
 30
0.0
 11
99.3179
 21
127.776
 31
0.0
  0
LINE
  8
0
 62
     0
 10
99.3179
 20
127.776
 30
0.0
 11
98.6095
 21
123.84
 31
0.0
  0
LINE
  8
0
 62
     0
 10
98.6095
 20
123.84
 30
0.0
 11
97.3832
 21
120.796
 31
0.0
  0
LINE
  8
0
 62
     0
 10
97.3832
 20
120.796
 30
0.0
 11
95.3477
 21
118.138
 31
0.0
  0
LINE
  8
0
 62
     0
 10
95.3477
 20
118.138
 30
0.0
 11
92.2154
 21
115.361
 31
0.0
  0
LINE
  8
0
 62
     0
 10
92.2154
 20
115.361
 30
0.0
 11
89.33
 21
113.383
 31
0.0
  0
LINE
  8
0
 62
     0
 10
89.33
 20
113.383
 30
0.0
 11
85.5885
 21
111.221
 31
0.0
  0
LINE
  8
0
 62
     0
 10
85.5885
 20
111.221
 30
0.0
 11
81.7728
 21
109.299
 31
0.0
  0
LINE
  8
0
 62
     0
 10
81.7728
 20
109.299
 30
0.0
 11
78.6694
 21
108.04
 31
0.0
  0
LINE
  8
0
 62
     0
 10
78.6694
 20
108.04
 30
0.0
 11
75.0066
 21
106.96
 31
0.0
  0
LINE
  8
0
 62
     0
 10
75.0066
 20
106.96
 30
0.0
 11
72.0094
 21
106.354
 31
0.0
  0
LINE
  8
0
 62
     0
 10
72.0094
 20
106.354
 30
0.0
 11
68.7698
 21
106.099
 31
0.0
  0
LINE
  8
0
 62
     0
 10
68.7698
 20
106.099
 30
0.0
 11
64.3819
 21
106.066
 31
0.0
  0
LINE
  8
0
 62
     0
 10
64.3819
 20
106.066
 30
0.0
 11
60.5854
 21
106.121
 31
0.0
  0
LINE
  8
0
 62
     0
 10
60.5854
 20
106.121
 30
0.0
 11
58.0718
 21
106.269
 31
0.0
  0
LINE
  8
0
 62
     0
 10
58.0718
 20
106.269
 30
0.0
 11
56.0229
 21
106.598
 31
0.0
  0
LINE
  8
0
 62
     0
 10
56.0229
 20
106.598
 30
0.0
 11
53.6222
 21
107.192
 31
0.0
  0
LINE
  8
0
 62
     0
 10
53.6222
 20
107.192
 30
0.0
 11
49.8972
 21
108.385
 31
0.0
  0
LINE
  8
0
 62
     0
 10
49.8972
 20
108.385
 30
0.0
 11
46.779
 21
109.788
 31
0.0
  0
LINE
  8
0
 62
     0
 10
46.779
 20
109.788
 30
0.0
 11
42.0028
 21
112.3
 31
0.0
  0
LINE
  8
0
 62
     0
 10
42.0028
 20
112.3
 30
0.0
 11
37.9236
 21
114.248
 31
0.0
  0
LINE
  8
0
 62
     0
 10
37.9236
 20
114.248
 30
0.0
 11
34.6632
 21
115.577
 31
0.0
  0
LINE
  8
0
 62
     0
 10
34.6632
 20
115.577
 30
0.0
 11
32.3494
 21
116.231
 31
0.0
  0
LINE
  8
0
 62
     0
 10
32.3494
 20
116.231
 30
0.0
 11
31.5929
 21
116.302
 31
0.0
  0
LINE
  8
0
 62
     0
 10
31.5929
 20
116.302
 30
0.0
 11
30.919
 21
116.203
 31
0.0
  0
LINE
  8
0
 62
     0
 10
30.919
 20
116.203
 30
0.0
 11
30.1653
 21
115.889
 31
0.0
  0
LINE
  8
0
 62
     0
 10
30.1653
 20
115.889
 30
0.0
 11
29.1744
 21
115.31
 31
0.0
  0
LINE
  8
0
 62
     0
 10
29.1744
 20
115.31
 30
0.0
 11
28.0624
 21
114.609
 31
0.0
  0
LINE
  8
0
 62
     0
 10
28.0624
 20
114.609
 30
0.0
 11
27.2204
 21
114.037
 31
0.0
  0
LINE
  8
0
 62
     0
 10
27.2204
 20
114.037
 30
0.0
 11
26.6127
 21
113.545
 31
0.0
  0
LINE
  8
0
 62
     0
 10
26.6127
 20
113.545
 30
0.0
 11
26.2075
 21
113.086
 31
0.0
  0
LINE
  8
0
 62
     0
 10
26.2075
 20
113.086
 30
0.0
 11
25.9705
 21
112.609
 31
0.0
  0
LINE
  8
0
 62
     0
 10
25.9705
 20
112.609
 30
0.0
 11
25.8699
 21
112.068
 31
0.0
  0
LINE
  8
0
 62
     0
 10
25.8699
 20
112.068
 30
0.0
 11
25.8713
 21
111.413
 31
0.0
  0
LINE
  8
0
 62
     0
 10
25.8713
 20
111.413
 30
0.0
 11
25.943
 21
110.596
 31
0.0
  0
LINE
  8
0
 62
     0
 10
25.943
 20
110.596
 30
0.0
 11
26.6595
 21
106.923
 31
0.0
  0
LINE
  8
0
 62
     0
 10
26.6595
 20
106.923
 30
0.0
 11
28.0128
 21
103.237
 31
0.0
  0
LINE
  8
0
 62
     0
 10
28.0128
 20
103.237
 30
0.0
 11
29.9117
 21
99.737
 31
0.0
  0
LINE
  8
0
 62
     0
 10
29.9117
 20
99.737
 30
0.0
 11
32.2667
 21
96.6251
 31
0.0
  0
LINE
  8
0
 62
     0
 10
32.2667
 20
96.6251
 30
0.0
 11
33.9246
 21
94.9318
 31
0.0
  0
LINE
  8
0
 62
     0
 10
33.9246
 20
94.9318
 30
0.0
 11
35.9117
 21
93.0935
 31
0.0
  0
LINE
  8
0
 62
     0
 10
35.9117
 20
93.0935
 30
0.0
 11
37.659
 21
91.6203
 31
0.0
  0
LINE
  8
0
 62
     0
 10
37.659
 20
91.6203
 30
0.0
 11
38.5932
 21
91.0167
 31
0.0
  0
LINE
  8
0
 62
     0
 10
38.5932
 20
91.0167
 30
0.0
 11
38.8098
 21
90.9341
 31
0.0
  0
LINE
  8
0
 62
     0
 10
38.8098
 20
90.9341
 30
0.0
 11
39.2176
 21
90.7066
 31
0.0
  0
LINE
  8
0
 62
     0
 10
39.2176
 20
90.7066
 30
0.0
 11
39.7577
 21
90.3704
 31
0.0
  0
LINE
  8
0
 62
     0
 10
39.7577
 20
90.3704
 30
0.0
 11
40.3751
 21
89.9583
 31
0.0
  0
LINE
  8
0
 62
     0
 10
40.3751
 20
89.9583
 30
0.0
 11
41.0422
 21
89.5202
 31
0.0
  0
LINE
  8
0
 62
     0
 10
41.0422
 20
89.5202
 30
0.0
 11
41.723
 21
89.1124
 31
0.0
  0
LINE
  8
0
 62
     0
 10
41.723
 20
89.1124
 30
0.0
 11
42.339
 21
88.7786
 31
0.0
  0
LINE
  8
0
 62
     0
 10
42.339
 20
88.7786
 30
0.0
 11
42.8103
 21
88.5652
 31
0.0
  0
LINE
  8
0
 62
     0
 10
42.8103
 20
88.5652
 30
0.0
 11
43.8672
 21
88.0636
 31
0.0
  0
LINE
  8
0
 62
     0
 10
43.8672
 20
88.0636
 30
0.0
 11
45.1556
 21
87.3167
 31
0.0
  0
LINE
  8
0
 62
     0
 10
45.1556
 20
87.3167
 30
0.0
 11
47.6127
 21
86.0915
 31
0.0
  0
LINE
  8
0
 62
     0
 10
47.6127
 20
86.0915
 30
0.0
 11
50.9432
 21
84.872
 31
0.0
  0
LINE
  8
0
 62
     0
 10
50.9432
 20
84.872
 30
0.0
 11
54.6876
 21
83.8069
 31
0.0
  0
LINE
  8
0
 62
     0
 10
54.6876
 20
83.8069
 30
0.0
 11
58.3847
 21
83.046
 31
0.0
  0
LINE
  8
0
 62
     0
 10
58.3847
 20
83.046
 30
0.0
 11
59.3079
 21
82.9663
 31
0.0
  0
LINE
  8
0
 62
     0
 10
59.3079
 20
82.9663
 30
0.0
 11
60.7907
 21
82.9109
 31
0.0
  0
LINE
  8
0
 62
     0
 10
60.7907
 20
82.9109
 30
0.0
 11
62.6442
 21
82.8795
 31
0.0
  0
LINE
  8
0
 62
     0
 10
62.6442
 20
82.8795
 30
0.0
 11
64.6811
 21
82.871
 31
0.0
  0
LINE
  8
0
 62
     0
 10
64.6811
 20
82.871
 30
0.0
 11
66.7135
 21
82.8862
 31
0.0
  0
LINE
  8
0
 62
     0
 10
66.7135
 20
82.8862
 30
0.0
 11
68.5532
 21
82.9236
 31
0.0
  0
LINE
  8
0
 62
     0
 10
68.5532
 20
82.9236
 30
0.0
 11
70.014
 21
82.9839
 31
0.0
  0
LINE
  8
0
 62
     0
 10
70.014
 20
82.9839
 30
0.0
 11
70.9083
 21
83.0668
 31
0.0
  0
LINE
  8
0
 62
     0
 10
70.9083
 20
83.0668
 30
0.0
 11
73.8558
 21
83.6041
 31
0.0
  0
LINE
  8
0
 62
     0
 10
73.8558
 20
83.6041
 30
0.0
 11
76.448
 21
84.1484
 31
0.0
  0
LINE
  8
0
 62
     0
 10
76.448
 20
84.1484
 30
0.0
 11
78.788
 21
84.733
 31
0.0
  0
LINE
  8
0
 62
     0
 10
78.788
 20
84.733
 30
0.0
 11
80.9777
 21
85.393
 31
0.0
  0
LINE
  8
0
 62
     0
 10
80.9777
 20
85.393
 30
0.0
 11
83.1204
 21
86.1603
 31
0.0
  0
LINE
  8
0
 62
     0
 10
83.1204
 20
86.1603
 30
0.0
 11
85.3211
 21
87.0726
 31
0.0
  0
LINE
  8
0
 62
     0
 10
85.3211
 20
87.0726
 30
0.0
 11
87.6833
 21
88.1627
 31
0.0
  0
LINE
  8
0
 62
     0
 10
87.6833
 20
88.1627
 30
0.0
 11
90.3111
 21
89.4623
 31
0.0
  0
LINE
  8
0
 62
     0
 10
90.3111
 20
89.4623
 30
0.0
 11
93.8759
 21
91.4576
 31
0.0
  0
LINE
  8
0
 62
     0
 10
93.8759
 20
91.4576
 30
0.0
 11
97.1229
 21
93.6763
 31
0.0
  0
LINE
  8
0
 62
     0
 10
97.1229
 20
93.6763
 30
0.0
 11
100.143
 21
96.187
 31
0.0
  0
LINE
  8
0
 62
     0
 10
100.143
 20
96.187
 30
0.0
 11
103.029
 21
99.0604
 31
0.0
  0
LINE
  8
0
 62
     0
 10
103.029
 20
99.0604
 30
0.0
 11
105.715
 21
102.343
 31
0.0
  0
LINE
  8
0
 62
     0
 10
105.715
 20
102.343
 30
0.0
 11
107.567
 21
105.523
 31
0.0
  0
LINE
  8
0
 62
     0
 10
107.567
 20
105.523
 30
0.0
 11
108.64
 21
108.727
 31
0.0
  0
LINE
  8
0
 62
     0
 10
108.64
 20
108.727
 30
0.0
 11
108.993
 21
112.077
 31
0.0
  0
LINE
  8
0
 62
     0
 10
108.993
 20
112.077
 30
0.0
 11
108.843
 21
114.026
 31
0.0
  0
LINE
  8
0
 62
     0
 10
108.843
 20
114.026
 30
0.0
 11
108.435
 21
116.062
 31
0.0
  0
LINE
  8
0
 62
     0
 10
108.435
 20
116.062
 30
0.0
 11
107.852
 21
117.87
 31
0.0
  0
LINE
  8
0
 62
     0
 10
107.852
 20
117.87
 30
0.0
 11
107.176
 21
119.133
 31
0.0
  0
LINE
  8
0
 62
     0
 10
107.176
 20
119.133
 30
0.0
 11
107.016
 21
119.931
 31
0.0
  0
LINE
  8
0
 62
     0
 10
107.016
 20
119.931
 30
0.0
 11
107.062
 21
121.409
 31
0.0
  0
LINE
  8
0
 62
     0
 10
107.062
 20
121.409
 30
0.0
 11
107.286
 21
123.231
 31
0.0
  0
LINE
  8
0
 62
     0
 10
107.286
 20
123.231
 30
0.0
 11
107.661
 21
125.06
 31
0.0
  0
LINE
  8
0
 62
     0
 10
107.661
 20
125.06
 30
0.0
 11
107.92
 21
126.29
 31
0.0
  0
LINE
  8
0
 62
     0
 10
107.92
 20
126.29
 30
0.0
 11
108.038
 21
127.265
 31
0.0
  0
LINE
  8
0
 62
     0
 10
108.038
 20
127.265
 30
0.0
 11
108.056
 21
128.058
 31
0.0
  0
LINE
  8
0
 62
     0
 10
108.056
 20
128.058
 30
0.0
 11
108.832
 21
127.229
 31
0.0
  0
LINE
  8
0
 62
     0
 10
108.832
 20
127.229
 30
0.0
 11
109.165
 21
126.771
 31
0.0
  0
LINE
  8
0
 62
     0
 10
109.165
 20
126.771
 30
0.0
 11
109.503
 21
126.137
 31
0.0
  0
LINE
  8
0
 62
     0
 10
109.503
 20
126.137
 30
0.0
 11
109.805
 21
125.41
 31
0.0
  0
LINE
  8
0
 62
     0
 10
109.805
 20
125.41
 30
0.0
 11
110.031
 21
124.671
 31
0.0
  0
LINE
  8
0
 62
     0
 10
110.031
 20
124.671
 30
0.0
 11
110.429
 21
123.078
 31
0.0
  0
LINE
  8
0
 62
     0
 10
110.429
 20
123.078
 30
0.0
 11
110.792
 21
121.672
 31
0.0
  0
LINE
  8
0
 62
     0
 10
110.792
 20
121.672
 30
0.0
 11
111.04
 21
119.88
 31
0.0
  0
LINE
  8
0
 62
     0
 10
111.04
 20
119.88
 30
0.0
 11
111.118
 21
117.366
 31
0.0
  0
LINE
  8
0
 62
     0
 10
111.118
 20
117.366
 30
0.0
 11
111.027
 21
114.635
 31
0.0
  0
LINE
  8
0
 62
     0
 10
111.027
 20
114.635
 30
0.0
 11
110.768
 21
112.183
 31
0.0
  0
LINE
  8
0
 62
     0
 10
110.768
 20
112.183
 30
0.0
 11
110.097
 21
109.272
 31
0.0
  0
LINE
  8
0
 62
     0
 10
110.097
 20
109.272
 30
0.0
 11
109.024
 21
106
 31
0.0
  0
LINE
  8
0
 62
     0
 10
109.024
 20
106
 30
0.0
 11
107.698
 21
102.788
 31
0.0
  0
LINE
  8
0
 62
     0
 10
107.698
 20
102.788
 30
0.0
 11
106.279
 21
100.048
 31
0.0
  0
LINE
  8
0
 62
     0
 10
106.279
 20
100.048
 30
0.0
 11
104.15
 21
97.0139
 31
0.0
  0
LINE
  8
0
 62
     0
 10
104.15
 20
97.0139
 30
0.0
 11
101.519
 21
94.1257
 31
0.0
  0
LINE
  8
0
 62
     0
 10
101.519
 20
94.1257
 30
0.0
 11
98.4444
 21
91.4206
 31
0.0
  0
LINE
  8
0
 62
     0
 10
98.4444
 20
91.4206
 30
0.0
 11
94.9854
 21
88.9399
 31
0.0
  0
LINE
  8
0
 62
     0
 10
94.9854
 20
88.9399
 30
0.0
 11
91.2026
 21
86.7198
 31
0.0
  0
LINE
  8
0
 62
     0
 10
91.2026
 20
86.7198
 30
0.0
 11
87.1527
 21
84.8004
 31
0.0
  0
LINE
  8
0
 62
     0
 10
87.1527
 20
84.8004
 30
0.0
 11
82.8957
 21
83.2185
 31
0.0
  0
LINE
  8
0
 62
     0
 10
82.8957
 20
83.2185
 30
0.0
 11
78.4931
 21
82.0127
 31
0.0
  0
LINE
  8
0
 62
     0
 10
78.4931
 20
82.0127
 30
0.0
 11
77.403
 21
81.7686
 31
0.0
  0
LINE
  8
0
 62
     0
 10
77.403
 20
81.7686
 30
0.0
 11
76.2801
 21
81.5164
 31
0.0
  0
LINE
  8
0
 62
     0
 10
76.2801
 20
81.5164
 30
0.0
 11
75.2493
 21
81.2849
 31
0.0
  0
LINE
  8
0
 62
     0
 10
75.2493
 20
81.2849
 30
0.0
 11
74.4361
 21
81.1029
 31
0.0
  0
LINE
  8
0
 62
     0
 10
74.4361
 20
81.1029
 30
0.0
 11
70.9718
 21
80.5575
 31
0.0
  0
LINE
  8
0
 62
     0
 10
70.9718
 20
80.5575
 30
0.0
 11
66.4076
 21
80.1412
 31
0.0
  0
LINE
  8
0
 62
     0
 10
66.4076
 20
80.1412
 30
0.0
 11
61.4468
 21
79.907
 31
0.0
  0
LINE
  8
0
 62
     0
 10
61.4468
 20
79.907
 30
0.0
 11
56.7972
 21
79.8985
 31
0.0
  0
LINE
  8
0
 62
     0
 10
56.7972
 20
79.8985
 30
0.0
 11
53.1661
 21
80.0474
 31
0.0
  0
LINE
  8
0
 62
     0
 10
53.1661
 20
80.0474
 30
0.0
 11
49.7417
 21
80.3162
 31
0.0
  0
LINE
  8
0
 62
     0
 10
49.7417
 20
80.3162
 30
0.0
 11
45.7179
 21
80.7847
 31
0.0
  0
LINE
  8
0
 62
     0
 10
45.7179
 20
80.7847
 30
0.0
 11
40.2869
 21
81.5315
 31
0.0
  0
LINE
  8
0
 62
     0
 10
40.2869
 20
81.5315
 30
0.0
 11
39.1365
 21
81.6846
 31
0.0
  0
LINE
  8
0
 62
     0
 10
39.1365
 20
81.6846
 30
0.0
 11
38.1826
 21
81.7866
 31
0.0
  0
LINE
  8
0
 62
     0
 10
38.1826
 20
81.7866
 30
0.0
 11
37.5239
 21
81.8321
 31
0.0
  0
LINE
  8
0
 62
     0
 10
37.5239
 20
81.8321
 30
0.0
 11
37.254
 21
81.8085
 31
0.0
  0
LINE
  8
0
 62
     0
 10
37.254
 20
81.8085
 30
0.0
 11
37.0692
 21
81.5619
 31
0.0
  0
LINE
  8
0
 62
     0
 10
37.0692
 20
81.5619
 30
0.0
 11
36.6434
 21
80.99
 31
0.0
  0
LINE
  8
0
 62
     0
 10
36.6434
 20
80.99
 30
0.0
 11
36.0384
 21
80.1758
 31
0.0
  0
LINE
  8
0
 62
     0
 10
36.0384
 20
80.1758
 30
0.0
 11
35.3138
 21
79.1986
 31
0.0
  0
LINE
  8
0
 62
     0
 10
35.3138
 20
79.1986
 30
0.0
 11
34.3476
 21
77.8524
 31
0.0
  0
LINE
  8
0
 62
     0
 10
34.3476
 20
77.8524
 30
0.0
 11
33.8239
 21
76.9373
 31
0.0
  0
LINE
  8
0
 62
     0
 10
33.8239
 20
76.9373
 30
0.0
 11
33.6407
 21
76.2275
 31
0.0
  0
LINE
  8
0
 62
     0
 10
33.6407
 20
76.2275
 30
0.0
 11
33.7013
 21
75.4944
 31
0.0
  0
LINE
  8
0
 62
     0
 10
33.7013
 20
75.4944
 30
0.0
 11
34.0486
 21
74.4058
 31
0.0
  0
LINE
  8
0
 62
     0
 10
34.0486
 20
74.4058
 30
0.0
 11
34.7169
 21
73.0539
 31
0.0
  0
LINE
  8
0
 62
     0
 10
34.7169
 20
73.0539
 30
0.0
 11
35.6443
 21
71.5257
 31
0.0
  0
LINE
  8
0
 62
     0
 10
35.6443
 20
71.5257
 30
0.0
 11
36.769
 21
69.9022
 31
0.0
  0
LINE
  8
0
 62
     0
 10
36.769
 20
69.9022
 30
0.0
 11
38.0298
 21
68.2696
 31
0.0
  0
LINE
  8
0
 62
     0
 10
38.0298
 20
68.2696
 30
0.0
 11
39.3651
 21
66.7096
 31
0.0
  0
LINE
  8
0
 62
     0
 10
39.3651
 20
66.7096
 30
0.0
 11
40.7141
 21
65.3066
 31
0.0
  0
LINE
  8
0
 62
     0
 10
40.7141
 20
65.3066
 30
0.0
 11
42.0165
 21
64.1435
 31
0.0
  0
LINE
  8
0
 62
     0
 10
42.0165
 20
64.1435
 30
0.0
 11
43.8891
 21
62.7532
 31
0.0
  0
LINE
  8
0
 62
     0
 10
43.8891
 20
62.7532
 30
0.0
 11
46.0897
 21
61.2743
 31
0.0
  0
LINE
  8
0
 62
     0
 10
46.0897
 20
61.2743
 30
0.0
 11
48.0081
 21
60.0989
 31
0.0
  0
LINE
  8
0
 62
     0
 10
48.0081
 20
60.0989
 30
0.0
 11
49.0361
 21
59.6194
 31
0.0
  0
LINE
  8
0
 62
     0
 10
49.0361
 20
59.6194
 30
0.0
 11
49.324
 21
59.5408
 31
0.0
  0
LINE
  8
0
 62
     0
 10
49.324
 20
59.5408
 30
0.0
 11
49.9001
 21
59.3231
 31
0.0
  0
LINE
  8
0
 62
     0
 10
49.9001
 20
59.3231
 30
0.0
 11
50.6786
 21
59.0035
 31
0.0
  0
LINE
  8
0
 62
     0
 10
50.6786
 20
59.0035
 30
0.0
 11
51.5758
 21
58.6133
 31
0.0
  0
LINE
  8
0
 62
     0
 10
51.5758
 20
58.6133
 30
0.0
 11
53.7034
 21
57.8721
 31
0.0
  0
LINE
  8
0
 62
     0
 10
53.7034
 20
57.8721
 30
0.0
 11
56.6692
 21
57.1073
 31
0.0
  0
LINE
  8
0
 62
     0
 10
56.6692
 20
57.1073
 30
0.0
 11
60.0234
 21
56.4212
 31
0.0
  0
LINE
  8
0
 62
     0
 10
60.0234
 20
56.4212
 30
0.0
 11
63.3236
 21
55.9153
 31
0.0
  0
LINE
  8
0
 62
     0
 10
63.3236
 20
55.9153
 30
0.0
 11
65.0984
 21
55.8807
 31
0.0
  0
LINE
  8
0
 62
     0
 10
65.0984
 20
55.8807
 30
0.0
 11
67.5859
 21
56.0874
 31
0.0
  0
LINE
  8
0
 62
     0
 10
67.5859
 20
56.0874
 30
0.0
 11
70.6244
 21
56.5037
 31
0.0
  0
LINE
  8
0
 62
     0
 10
70.6244
 20
56.5037
 30
0.0
 11
74.0488
 21
57.0988
 31
0.0
  0
LINE
  8
0
 62
     0
 10
74.0488
 20
57.0988
 30
0.0
 11
77.6993
 21
57.8432
 31
0.0
  0
LINE
  8
0
 62
     0
 10
77.6993
 20
57.8432
 30
0.0
 11
81.4116
 21
58.7058
 31
0.0
  0
LINE
  8
0
 62
     0
 10
81.4116
 20
58.7058
 30
0.0
 11
85.0223
 21
59.654
 31
0.0
  0
LINE
  8
0
 62
     0
 10
85.0223
 20
59.654
 30
0.0
 11
88.3708
 21
60.6584
 31
0.0
  0
LINE
  8
0
 62
     0
 10
88.3708
 20
60.6584
 30
0.0
 11
93.9669
 21
62.7172
 31
0.0
  0
LINE
  8
0
 62
     0
 10
93.9669
 20
62.7172
 30
0.0
 11
99.5923
 21
65.2293
 31
0.0
  0
LINE
  8
0
 62
     0
 10
99.5923
 20
65.2293
 30
0.0
 11
104.765
 21
67.9609
 31
0.0
  0
LINE
  8
0
 62
     0
 10
104.765
 20
67.9609
 30
0.0
 11
109.008
 21
70.6783
 31
0.0
  0
LINE
  8
0
 62
     0
 10
109.008
 20
70.6783
 30
0.0
 11
110.196
 21
71.6167
 31
0.0
  0
LINE
  8
0
 62
     0
 10
110.196
 20
71.6167
 30
0.0
 11
111.613
 21
72.8486
 31
0.0
  0
LINE
  8
0
 62
     0
 10
111.613
 20
72.8486
 30
0.0
 11
113.166
 21
74.2819
 31
0.0
  0
LINE
  8
0
 62
     0
 10
113.166
 20
74.2819
 30
0.0
 11
114.763
 21
75.8264
 31
0.0
  0
LINE
  8
0
 62
     0
 10
114.763
 20
75.8264
 30
0.0
 11
116.312
 21
77.3934
 31
0.0
  0
LINE
  8
0
 62
     0
 10
116.312
 20
77.3934
 30
0.0
 11
117.723
 21
78.8899
 31
0.0
  0
LINE
  8
0
 62
     0
 10
117.723
 20
78.8899
 30
0.0
 11
118.904
 21
80.228
 31
0.0
  0
LINE
  8
0
 62
     0
 10
118.904
 20
80.228
 30
0.0
 11
119.764
 21
81.3153
 31
0.0
  0
LINE
  8
0
 62
     0
 10
119.764
 20
81.3153
 30
0.0
 11
121.201
 21
83.5561
 31
0.0
  0
LINE
  8
0
 62
     0
 10
121.201
 20
83.5561
 30
0.0
 11
122.681
 21
86.2736
 31
0.0
  0
LINE
  8
0
 62
     0
 10
122.681
 20
86.2736
 30
0.0
 11
124.084
 21
89.2362
 31
0.0
  0
LINE
  8
0
 62
     0
 10
124.084
 20
89.2362
 30
0.0
 11
125.295
 21
92.2154
 31
0.0
  0
LINE
  8
0
 62
     0
 10
125.295
 20
92.2154
 30
0.0
 11
126.212
 21
95.425
 31
0.0
  0
LINE
  8
0
 62
     0
 10
126.212
 20
95.425
 30
0.0
 11
126.981
 21
99.453
 31
0.0
  0
LINE
  8
0
 62
     0
 10
126.981
 20
99.453
 30
0.0
 11
127.508
 21
103.718
 31
0.0
  0
LINE
  8
0
 62
     0
 10
127.508
 20
103.718
 30
0.0
 11
127.706
 21
107.633
 31
0.0
  0
LINE
  8
0
 62
     0
 10
127.706
 20
107.633
 30
0.0
 11
127.61
 21
109.947
 31
0.0
  0
LINE
  8
0
 62
     0
 10
127.61
 20
109.947
 30
0.0
 11
127.193
 21
111.583
 31
0.0
  0
LINE
  8
0
 62
     0
 10
127.193
 20
111.583
 30
0.0
 11
126.246
 21
113
 31
0.0
  0
LINE
  8
0
 62
     0
 10
126.246
 20
113
 30
0.0
 11
124.567
 21
114.654
 31
0.0
  0
LINE
  8
0
 62
     0
 10
124.567
 20
114.654
 30
0.0
 11
123.081
 21
116.38
 31
0.0
  0
LINE
  8
0
 62
     0
 10
123.081
 20
116.38
 30
0.0
 11
121.86
 21
118.624
 31
0.0
  0
LINE
  8
0
 62
     0
 10
121.86
 20
118.624
 30
0.0
 11
120.884
 21
121.434
 31
0.0
  0
LINE
  8
0
 62
     0
 10
120.884
 20
121.434
 30
0.0
 11
120.136
 21
124.847
 31
0.0
  0
LINE
  8
0
 62
     0
 10
120.136
 20
124.847
 30
0.0
 11
119.929
 21
126.103
 31
0.0
  0
LINE
  8
0
 62
     0
 10
119.929
 20
126.103
 30
0.0
 11
119.809
 21
127.061
 31
0.0
  0
LINE
  8
0
 62
     0
 10
119.809
 20
127.061
 30
0.0
 11
119.793
 21
127.759
 31
0.0
  0
LINE
  8
0
 62
     0
 10
119.793
 20
127.759
 30
0.0
 11
119.896
 21
128.236
 31
0.0
  0
LINE
  8
0
 62
     0
 10
119.896
 20
128.236
 30
0.0
 11
120.137
 21
128.53
 31
0.0
  0
LINE
  8
0
 62
     0
 10
120.137
 20
128.53
 30
0.0
 11
120.531
 21
128.679
 31
0.0
  0
LINE
  8
0
 62
     0
 10
120.531
 20
128.679
 30
0.0
 11
121.097
 21
128.717
 31
0.0
  0
LINE
  8
0
 62
     0
 10
121.097
 20
128.717
 30
0.0
 11
121.849
 21
128.687
 31
0.0
  0
LINE
  8
0
 62
     0
 10
121.849
 20
128.687
 30
0.0
 11
122.344
 21
128.618
 31
0.0
  0
LINE
  8
0
 62
     0
 10
122.344
 20
128.618
 30
0.0
 11
122.825
 21
128.45
 31
0.0
  0
LINE
  8
0
 62
     0
 10
122.825
 20
128.45
 30
0.0
 11
123.326
 21
128.152
 31
0.0
  0
LINE
  8
0
 62
     0
 10
123.326
 20
128.152
 30
0.0
 11
123.883
 21
127.693
 31
0.0
  0
LINE
  8
0
 62
     0
 10
123.883
 20
127.693
 30
0.0
 11
124.528
 21
127.041
 31
0.0
  0
LINE
  8
0
 62
     0
 10
124.528
 20
127.041
 30
0.0
 11
125.295
 21
126.166
 31
0.0
  0
LINE
  8
0
 62
     0
 10
125.295
 20
126.166
 30
0.0
 11
126.221
 21
125.034
 31
0.0
  0
LINE
  8
0
 62
     0
 10
126.221
 20
125.034
 30
0.0
 11
127.338
 21
123.613
 31
0.0
  0
LINE
  8
0
 62
     0
 10
127.338
 20
123.613
 30
0.0
 11
127.815
 21
122.866
 31
0.0
  0
LINE
  8
0
 62
     0
 10
127.815
 20
122.866
 30
0.0
 11
128.355
 21
121.786
 31
0.0
  0
LINE
  8
0
 62
     0
 10
128.355
 20
121.786
 30
0.0
 11
128.932
 21
120.428
 31
0.0
  0
LINE
  8
0
 62
     0
 10
128.932
 20
120.428
 30
0.0
 11
129.522
 21
118.85
 31
0.0
  0
LINE
  8
0
 62
     0
 10
129.522
 20
118.85
 30
0.0
 11
129.952
 21
117.447
 31
0.0
  0
LINE
  8
0
 62
     0
 10
129.952
 20
117.447
 30
0.0
 11
130.182
 21
115.93
 31
0.0
  0
LINE
  8
0
 62
     0
 10
130.182
 20
115.93
 30
0.0
 11
130.262
 21
113.678
 31
0.0
  0
LINE
  8
0
 62
     0
 10
130.262
 20
113.678
 30
0.0
 11
130.247
 21
110.067
 31
0.0
  0
LINE
  8
0
 62
     0
 10
130.247
 20
110.067
 30
0.0
 11
130.012
 21
103.396
 31
0.0
  0
LINE
  8
0
 62
     0
 10
130.012
 20
103.396
 30
0.0
 11
129.417
 21
97.9537
 31
0.0
  0
LINE
  8
0
 62
     0
 10
129.417
 20
97.9537
 30
0.0
 11
128.375
 21
93.2145
 31
0.0
  0
LINE
  8
0
 62
     0
 10
128.375
 20
93.2145
 30
0.0
 11
126.803
 21
88.6534
 31
0.0
  0
LINE
  8
0
 62
     0
 10
126.803
 20
88.6534
 30
0.0
 11
125.641
 21
85.9525
 31
0.0
  0
LINE
  8
0
 62
     0
 10
125.641
 20
85.9525
 30
0.0
 11
124.449
 21
83.6083
 31
0.0
  0
LINE
  8
0
 62
     0
 10
124.449
 20
83.6083
 30
0.0
 11
123.088
 21
81.3802
 31
0.0
  0
LINE
  8
0
 62
     0
 10
123.088
 20
81.3802
 30
0.0
 11
121.422
 21
79.0222
 31
0.0
  0
LINE
  8
0
 62
     0
 10
121.422
 20
79.0222
 30
0.0
 11
118.299
 21
75.3057
 31
0.0
  0
LINE
  8
0
 62
     0
 10
118.299
 20
75.3057
 30
0.0
 11
114.604
 21
71.7405
 31
0.0
  0
LINE
  8
0
 62
     0
 10
114.604
 20
71.7405
 30
0.0
 11
110.421
 21
68.4029
 31
0.0
  0
LINE
  8
0
 62
     0
 10
110.421
 20
68.4029
 30
0.0
 11
105.833
 21
65.3644
 31
0.0
  0
LINE
  8
0
 62
     0
 10
105.833
 20
65.3644
 30
0.0
 11
103.313
 21
63.9632
 31
0.0
  0
LINE
  8
0
 62
     0
 10
103.313
 20
63.9632
 30
0.0
 11
100.362
 21
62.5066
 31
0.0
  0
LINE
  8
0
 62
     0
 10
100.362
 20
62.5066
 30
0.0
 11
97.113
 21
61.0485
 31
0.0
  0
LINE
  8
0
 62
     0
 10
97.113
 20
61.0485
 30
0.0
 11
93.701
 21
59.6427
 31
0.0
  0
LINE
  8
0
 62
     0
 10
93.701
 20
59.6427
 30
0.0
 11
90.2628
 21
58.3449
 31
0.0
  0
LINE
  8
0
 62
     0
 10
90.2628
 20
58.3449
 30
0.0
 11
86.9336
 21
57.2036
 31
0.0
  0
LINE
  8
0
 62
     0
 10
86.9336
 20
57.2036
 30
0.0
 11
83.8468
 21
56.2762
 31
0.0
  0
LINE
  8
0
 62
     0
 10
83.8468
 20
56.2762
 30
0.0
 11
81.1389
 21
55.6147
 31
0.0
  0
LINE
  8
0
 62
     0
 10
81.1389
 20
55.6147
 30
0.0
 11
79.9606
 21
55.3501
 31
0.0
  0
LINE
  8
0
 62
     0
 10
79.9606
 20
55.3501
 30
0.0
 11
78.7012
 21
55.0319
 31
0.0
  0
LINE
  8
0
 62
     0
 10
78.7012
 20
55.0319
 30
0.0
 11
77.5134
 21
54.7
 31
0.0
  0
LINE
  8
0
 62
     0
 10
77.5134
 20
54.7
 30
0.0
 11
76.5528
 21
54.3952
 31
0.0
  0
LINE
  8
0
 62
     0
 10
76.5528
 20
54.3952
 30
0.0
 11
74.4583
 21
53.5573
 31
0.0
  0
LINE
  8
0
 62
     0
 10
74.4583
 20
53.5573
 30
0.0
 11
72.1829
 21
52.488
 31
0.0
  0
LINE
  8
0
 62
     0
 10
72.1829
 20
52.488
 30
0.0
 11
70.2635
 21
51.4558
 31
0.0
  0
LINE
  8
0
 62
     0
 10
70.2635
 20
51.4558
 30
0.0
 11
69.2369
 21
50.7298
 31
0.0
  0
LINE
  8
0
 62
     0
 10
69.2369
 20
50.7298
 30
0.0
 11
69.0217
 21
50.3026
 31
0.0
  0
LINE
  8
0
 62
     0
 10
69.0217
 20
50.3026
 30
0.0
 11
68.7395
 21
49.5004
 31
0.0
  0
LINE
  8
0
 62
     0
 10
68.7395
 20
49.5004
 30
0.0
 11
68.4251
 21
48.4449
 31
0.0
  0
LINE
  8
0
 62
     0
 10
68.4251
 20
48.4449
 30
0.0
 11
68.1221
 21
47.2542
 31
0.0
  0
LINE
  8
0
 62
     0
 10
68.1221
 20
47.2542
 30
0.0
 11
67.8311
 21
46.0555
 31
0.0
  0
LINE
  8
0
 62
     0
 10
67.8311
 20
46.0555
 30
0.0
 11
67.5569
 21
44.9735
 31
0.0
  0
LINE
  8
0
 62
     0
 10
67.5569
 20
44.9735
 30
0.0
 11
67.3308
 21
44.1332
 31
0.0
  0
LINE
  8
0
 62
     0
 10
67.3308
 20
44.1332
 30
0.0
 11
67.1862
 21
43.6563
 31
0.0
  0
LINE
  8
0
 62
     0
 10
67.1862
 20
43.6563
 30
0.0
 11
67.171
 21
43.2802
 31
0.0
  0
LINE
  8
0
 62
     0
 10
67.171
 20
43.2802
 30
0.0
 11
67.3957
 21
42.7976
 31
0.0
  0
LINE
  8
0
 62
     0
 10
67.3957
 20
42.7976
 30
0.0
 11
67.8917
 21
42.1679
 31
0.0
  0
LINE
  8
0
 62
     0
 10
67.8917
 20
42.1679
 30
0.0
 11
68.6855
 21
41.3452
 31
0.0
  0
LINE
  8
0
 62
     0
 10
68.6855
 20
41.3452
 30
0.0
 11
69.4048
 21
40.6947
 31
0.0
  0
LINE
  8
0
 62
     0
 10
69.4048
 20
40.6947
 30
0.0
 11
70.3432
 21
39.9217
 31
0.0
  0
LINE
  8
0
 62
     0
 10
70.3432
 20
39.9217
 30
0.0
 11
71.4114
 21
39.0934
 31
0.0
  0
LINE
  8
0
 62
     0
 10
71.4114
 20
39.0934
 30
0.0
 11
72.5205
 21
38.2707
 31
0.0
  0
LINE
  8
0
 62
     0
 10
72.5205
 20
38.2707
 30
0.0
 11
73.5817
 21
37.5211
 31
0.0
  0
LINE
  8
0
 62
     0
 10
73.5817
 20
37.5211
 30
0.0
 11
74.5077
 21
36.9051
 31
0.0
  0
LINE
  8
0
 62
     0
 10
74.5077
 20
36.9051
 30
0.0
 11
75.209
 21
36.4892
 31
0.0
  0
LINE
  8
0
 62
     0
 10
75.209
 20
36.4892
 30
0.0
 11
75.6006
 21
36.3361
 31
0.0
  0
LINE
  8
0
 62
     0
 10
75.6006
 20
36.3361
 30
0.0
 11
75.8391
 21
36.2673
 31
0.0
  0
LINE
  8
0
 62
     0
 10
75.8391
 20
36.2673
 30
0.0
 11
76.309
 21
36.0786
 31
0.0
  0
LINE
  8
0
 62
     0
 10
76.309
 20
36.0786
 30
0.0
 11
76.944
 21
35.7974
 31
0.0
  0
LINE
  8
0
 62
     0
 10
76.944
 20
35.7974
 30
0.0
 11
77.6813
 21
35.4485
 31
0.0
  0
LINE
  8
0
 62
     0
 10
77.6813
 20
35.4485
 30
0.0
 11
81.1816
 21
34.2194
 31
0.0
  0
LINE
  8
0
 62
     0
 10
81.1816
 20
34.2194
 30
0.0
 11
85.6947
 21
33.23
 31
0.0
  0
LINE
  8
0
 62
     0
 10
85.6947
 20
33.23
 30
0.0
 11
90.2836
 21
32.6444
 31
0.0
  0
LINE
  8
0
 62
     0
 10
90.2836
 20
32.6444
 30
0.0
 11
94.0153
 21
32.6223
 31
0.0
  0
LINE
  8
0
 62
     0
 10
94.0153
 20
32.6223
 30
0.0
 11
95.8825
 21
32.8111
 31
0.0
  0
LINE
  8
0
 62
     0
 10
95.8825
 20
32.8111
 30
0.0
 11
97.8958
 21
33.0026
 31
0.0
  0
LINE
  8
0
 62
     0
 10
97.8958
 20
33.0026
 30
0.0
 11
99.0794
 21
33.1735
 31
0.0
  0
LINE
  8
0
 62
     0
 10
99.0794
 20
33.1735
 30
0.0
 11
100.735
 21
33.4918
 31
0.0
  0
LINE
  8
0
 62
     0
 10
100.735
 20
33.4918
 30
0.0
 11
102.645
 21
33.9149
 31
0.0
  0
LINE
  8
0
 62
     0
 10
102.645
 20
33.9149
 30
0.0
 11
104.599
 21
34.3986
 31
0.0
  0
LINE
  8
0
 62
     0
 10
104.599
 20
34.3986
 30
0.0
 11
108.908
 21
35.7325
 31
0.0
  0
LINE
  8
0
 62
     0
 10
108.908
 20
35.7325
 30
0.0
 11
113.38
 21
37.4964
 31
0.0
  0
LINE
  8
0
 62
     0
 10
113.38
 20
37.4964
 30
0.0
 11
117.91
 21
39.6282
 31
0.0
  0
LINE
  8
0
 62
     0
 10
117.91
 20
39.6282
 30
0.0
 11
122.394
 21
42.0673
 31
0.0
  0
LINE
  8
0
 62
     0
 10
122.394
 20
42.0673
 30
0.0
 11
126.728
 21
44.7544
 31
0.0
  0
LINE
  8
0
 62
     0
 10
126.728
 20
44.7544
 30
0.0
 11
130.81
 21
47.6278
 31
0.0
  0
LINE
  8
0
 62
     0
 10
130.81
 20
47.6278
 30
0.0
 11
134.533
 21
50.6278
 31
0.0
  0
LINE
  8
0
 62
     0
 10
134.533
 20
50.6278
 30
0.0
 11
137.793
 21
53.6924
 31
0.0
  0
LINE
  8
0
 62
     0
 10
137.793
 20
53.6924
 30
0.0
 11
140.377
 21
56.4473
 31
0.0
  0
LINE
  8
0
 62
     0
 10
140.377
 20
56.4473
 30
0.0
 11
142.59
 21
59.0532
 31
0.0
  0
LINE
  8
0
 62
     0
 10
142.59
 20
59.0532
 30
0.0
 11
144.728
 21
61.8822
 31
0.0
  0
LINE
  8
0
 62
     0
 10
144.728
 20
61.8822
 30
0.0
 11
147.086
 21
65.2999
 31
0.0
  0
LINE
  8
0
 62
     0
 10
147.086
 20
65.2999
 30
0.0
 11
148.951
 21
68.1895
 31
0.0
  0
LINE
  8
0
 62
     0
 10
148.951
 20
68.1895
 30
0.0
 11
150.429
 21
70.8007
 31
0.0
  0
LINE
  8
0
 62
     0
 10
150.429
 20
70.8007
 30
0.0
 11
151.879
 21
73.8283
 31
0.0
  0
LINE
  8
0
 62
     0
 10
151.879
 20
73.8283
 30
0.0
 11
153.662
 21
77.9639
 31
0.0
  0
LINE
  8
0
 62
     0
 10
153.662
 20
77.9639
 30
0.0
 11
154.998
 21
81.6074
 31
0.0
  0
LINE
  8
0
 62
     0
 10
154.998
 20
81.6074
 30
0.0
 11
156.104
 21
85.5719
 31
0.0
  0
LINE
  8
0
 62
     0
 10
156.104
 20
85.5719
 30
0.0
 11
156.968
 21
89.7283
 31
0.0
  0
LINE
  8
0
 62
     0
 10
156.968
 20
89.7283
 30
0.0
 11
157.576
 21
93.9493
 31
0.0
  0
LINE
  8
0
 62
     0
 10
157.576
 20
93.9493
 30
0.0
 11
157.909
 21
98.1054
 31
0.0
  0
LINE
  8
0
 62
     0
 10
157.909
 20
98.1054
 30
0.0
 11
157.958
 21
102.068
 31
0.0
  0
LINE
  8
0
 62
     0
 10
157.958
 20
102.068
 30
0.0
 11
157.704
 21
105.711
 31
0.0
  0
LINE
  8
0
 62
     0
 10
157.704
 20
105.711
 30
0.0
 11
157.136
 21
108.902
 31
0.0
  0
LINE
  8
0
 62
     0
 10
157.136
 20
108.902
 30
0.0
 11
156.366
 21
111.148
 31
0.0
  0
LINE
  8
0
 62
     0
 10
156.366
 20
111.148
 30
0.0
 11
155.193
 21
113.567
 31
0.0
  0
LINE
  8
0
 62
     0
 10
155.193
 20
113.567
 30
0.0
 11
153.771
 21
115.877
 31
0.0
  0
LINE
  8
0
 62
     0
 10
153.771
 20
115.877
 30
0.0
 11
152.258
 21
117.792
 31
0.0
  0
LINE
  8
0
 62
     0
 10
152.258
 20
117.792
 30
0.0
 11
150.658
 21
119.254
 31
0.0
  0
LINE
  8
0
 62
     0
 10
150.658
 20
119.254
 30
0.0
 11
148.638
 21
120.72
 31
0.0
  0
LINE
  8
0
 62
     0
 10
148.638
 20
120.72
 30
0.0
 11
146.479
 21
122.009
 31
0.0
  0
LINE
  8
0
 62
     0
 10
146.479
 20
122.009
 30
0.0
 11
144.463
 21
122.931
 31
0.0
  0
LINE
  8
0
 62
     0
 10
144.463
 20
122.931
 30
0.0
 11
142.999
 21
123.58
 31
0.0
  0
LINE
  8
0
 62
     0
 10
142.999
 20
123.58
 30
0.0
 11
141.975
 21
124.23
 31
0.0
  0
LINE
  8
0
 62
     0
 10
141.975
 20
124.23
 30
0.0
 11
141.347
 21
124.689
 31
0.0
  0
LINE
  8
0
 62
     0
 10
141.347
 20
124.689
 30
0.0
 11
140.847
 21
124.883
 31
0.0
  0
LINE
  8
0
 62
     0
 10
140.847
 20
124.883
 30
0.0
 11
140.492
 21
125.109
 31
0.0
  0
LINE
  8
0
 62
     0
 10
140.492
 20
125.109
 30
0.0
 11
139.829
 21
125.725
 31
0.0
  0
LINE
  8
0
 62
     0
 10
139.829
 20
125.725
 30
0.0
 11
138.953
 21
126.64
 31
0.0
  0
LINE
  8
0
 62
     0
 10
138.953
 20
126.64
 30
0.0
 11
137.954
 21
127.758
 31
0.0
  0
LINE
  8
0
 62
     0
 10
137.954
 20
127.758
 30
0.0
 11
137.22
 21
128.615
 31
0.0
  0
LINE
  8
0
 62
     0
 10
137.22
 20
128.615
 30
0.0
 11
136.656
 21
129.293
 31
0.0
  0
LINE
  8
0
 62
     0
 10
136.656
 20
129.293
 30
0.0
 11
136.249
 21
129.821
 31
0.0
  0
LINE
  8
0
 62
     0
 10
136.249
 20
129.821
 30
0.0
 11
135.983
 21
130.221
 31
0.0
  0
LINE
  8
0
 62
     0
 10
135.983
 20
130.221
 30
0.0
 11
135.846
 21
130.52
 31
0.0
  0
LINE
  8
0
 62
     0
 10
135.846
 20
130.52
 30
0.0
 11
135.819
 21
130.741
 31
0.0
  0
LINE
  8
0
 62
     0
 10
135.819
 20
130.741
 30
0.0
 11
135.891
 21
130.912
 31
0.0
  0
LINE
  8
0
 62
     0
 10
135.891
 20
130.912
 30
0.0
 11
136.048
 21
131.057
 31
0.0
  0
LINE
  8
0
 62
     0
 10
136.048
 20
131.057
 30
0.0
 11
136.356
 21
131.521
 31
0.0
  0
LINE
  8
0
 62
     0
 10
136.356
 20
131.521
 30
0.0
 11
136.58
 21
132.592
 31
0.0
  0
LINE
  8
0
 62
     0
 10
136.58
 20
132.592
 30
0.0
 11
136.763
 21
134.575
 31
0.0
  0
LINE
  8
0
 62
     0
 10
136.763
 20
134.575
 30
0.0
 11
136.948
 21
137.778
 31
0.0
  0
LINE
  8
0
 62
     0
 10
136.948
 20
137.778
 30
0.0
 11
137.057
 21
140.254
 31
0.0
  0
LINE
  8
0
 62
     0
 10
137.057
 20
140.254
 30
0.0
 11
137.12
 21
142.347
 31
0.0
  0
LINE
  8
0
 62
     0
 10
137.12
 20
142.347
 30
0.0
 11
137.133
 21
143.837
 31
0.0
  0
LINE
  8
0
 62
     0
 10
137.133
 20
143.837
 30
0.0
 11
137.09
 21
144.498
 31
0.0
  0
LINE
  8
0
 62
     0
 10
137.09
 20
144.498
 30
0.0
 11
136.572
 21
144.978
 31
0.0
  0
LINE
  8
0
 62
     0
 10
136.572
 20
144.978
 30
0.0
 11
135.573
 21
145.539
 31
0.0
  0
LINE
  8
0
 62
     0
 10
135.573
 20
145.539
 30
0.0
 11
134.561
 21
146.006
 31
0.0
  0
LINE
  8
0
 62
     0
 10
134.561
 20
146.006
 30
0.0
 11
134.02
 21
146.262
 31
0.0
  0
LINE
  8
0
 62
     0
 10
134.02
 20
146.262
 30
0.0
 11
133.788
 21
146.207
 31
0.0
  0
LINE
  8
0
 62
     0
 10
133.788
 20
146.207
 30
0.0
 11
133.314
 21
145.974
 31
0.0
  0
LINE
  8
0
 62
     0
 10
133.314
 20
145.974
 30
0.0
 11
132.664
 21
145.602
 31
0.0
  0
LINE
  8
0
 62
     0
 10
132.664
 20
145.602
 30
0.0
 11
131.903
 21
145.124
 31
0.0
  0
ENDSEC
  0
EOF
