  0
SECTION
  2
HEADER
  9
$ACADVER
  1
AC1009
  9
$EXTMIN
 10
0.0
 20
0.0
 30
0.0
  9
$EXTMAX
 10
1000.0
 20
1000.0
 30
0.0
  9
$FILLMODE
 70
 0
  9
$SPLFRAME
 70
 1
  0
ENDSEC
  0
SECTION
  2
TABLES
  0
TABLE
  2
LAYER
 70
1
  0
LAYER
  2
0
 70
     0
 62
     7
  6
CONTINUOUS
  0
ENDTAB
  0
ENDSEC
  0
SECTION
  2
ENTITIES
  0
LINE
  8
0
 62
     0
 10
24.383
 20
117.983
 30
0.0
 11
22.2856
 21
118.226
 31
0.0
  0
LINE
  8
0
 62
     0
 10
22.2856
 20
118.226
 30
0.0
 11
21.2411
 21
119.477
 31
0.0
  0
LINE
  8
0
 62
     0
 10
21.2411
 20
119.477
 30
0.0
 11
21.0468
 21
121.422
 31
0.0
  0
LINE
  8
0
 62
     0
 10
21.0468
 20
121.422
 30
0.0
 11
21.507
 21
123.74
 31
0.0
  0
LINE
  8
0
 62
     0
 10
21.507
 20
123.74
 30
0.0
 11
22.4179
 21
126.117
 31
0.0
  0
LINE
  8
0
 62
     0
 10
22.4179
 20
126.117
 30
0.0
 11
23.5824
 21
128.233
 31
0.0
  0
LINE
  8
0
 62
     0
 10
23.5824
 20
128.233
 30
0.0
 11
24.8006
 21
129.775
 31
0.0
  0
LINE
  8
0
 62
     0
 10
24.8006
 20
129.775
 30
0.0
 11
25.8713
 21
130.422
 31
0.0
  0
LINE
  8
0
 62
     0
 10
25.8713
 20
130.422
 30
0.0
 11
26.716
 21
130.643
 31
0.0
  0
LINE
  8
0
 62
     0
 10
26.716
 20
130.643
 30
0.0
 11
27.1735
 21
130.406
 31
0.0
  0
LINE
  8
0
 62
     0
 10
27.1735
 20
130.406
 30
0.0
 11
27.3596
 21
129.825
 31
0.0
  0
LINE
  8
0
 62
     0
 10
27.3596
 20
129.825
 30
0.0
 11
27.394
 21
129.01
 31
0.0
  0
LINE
  8
0
 62
     0
 10
27.394
 20
129.01
 30
0.0
 11
27.394
 21
128.075
 31
0.0
  0
LINE
  8
0
 62
     0
 10
27.394
 20
128.075
 30
0.0
 11
27.4767
 21
127.131
 31
0.0
  0
LINE
  8
0
 62
     0
 10
27.4767
 20
127.131
 30
0.0
 11
27.7592
 21
126.289
 31
0.0
  0
LINE
  8
0
 62
     0
 10
27.7592
 20
126.289
 30
0.0
 11
28.3628
 21
125.661
 31
0.0
  0
LINE
  8
0
 62
     0
 10
28.3628
 20
125.661
 30
0.0
 11
29.4969
 21
124.874
 31
0.0
  0
LINE
  8
0
 62
     0
 10
29.4969
 20
124.874
 30
0.0
 11
31.1809
 21
123.614
 31
0.0
  0
LINE
  8
0
 62
     0
 10
31.1809
 20
123.614
 30
0.0
 11
33.2314
 21
122.086
 31
0.0
  0
LINE
  8
0
 62
     0
 10
33.2314
 20
122.086
 30
0.0
 11
35.4722
 21
120.494
 31
0.0
  0
LINE
  8
0
 62
     0
 10
35.4722
 20
120.494
 30
0.0
 11
37.7197
 21
119.045
 31
0.0
  0
LINE
  8
0
 62
     0
 10
37.7197
 20
119.045
 30
0.0
 11
39.799
 21
117.942
 31
0.0
  0
LINE
  8
0
 62
     0
 10
39.799
 20
117.942
 30
0.0
 11
41.5272
 21
117.392
 31
0.0
  0
LINE
  8
0
 62
     0
 10
41.5272
 20
117.392
 30
0.0
 11
42.726
 21
117.598
 31
0.0
  0
LINE
  8
0
 62
     0
 10
42.726
 20
117.598
 30
0.0
 11
44.7629
 21
118.754
 31
0.0
  0
LINE
  8
0
 62
     0
 10
44.7629
 20
118.754
 30
0.0
 11
47.177
 21
119.432
 31
0.0
  0
LINE
  8
0
 62
     0
 10
47.177
 20
119.432
 30
0.0
 11
49.6686
 21
119.364
 31
0.0
  0
LINE
  8
0
 62
     0
 10
49.6686
 20
119.364
 30
0.0
 11
51.9342
 21
118.287
 31
0.0
  0
LINE
  8
0
 62
     0
 10
51.9342
 20
118.287
 30
0.0
 11
54.048
 21
117.467
 31
0.0
  0
LINE
  8
0
 62
     0
 10
54.048
 20
117.467
 30
0.0
 11
56.158
 21
116.321
 31
0.0
  0
LINE
  8
0
 62
     0
 10
56.158
 20
116.321
 30
0.0
 11
58.2415
 21
114.866
 31
0.0
  0
LINE
  8
0
 62
     0
 10
58.2415
 20
114.866
 30
0.0
 11
60.2823
 21
113.117
 31
0.0
  0
LINE
  8
0
 62
     0
 10
60.2823
 20
113.117
 30
0.0
 11
62.261
 21
111.087
 31
0.0
  0
LINE
  8
0
 62
     0
 10
62.261
 20
111.087
 30
0.0
 11
64.1586
 21
108.788
 31
0.0
  0
LINE
  8
0
 62
     0
 10
64.1586
 20
108.788
 30
0.0
 11
65.9571
 21
106.238
 31
0.0
  0
LINE
  8
0
 62
     0
 10
65.9571
 20
106.238
 30
0.0
 11
67.637
 21
103.449
 31
0.0
  0
LINE
  8
0
 62
     0
 10
67.637
 20
103.449
 30
0.0
 11
69.1815
 21
100.437
 31
0.0
  0
LINE
  8
0
 62
     0
 10
69.1815
 20
100.437
 30
0.0
 11
70.5707
 21
97.215
 31
0.0
  0
LINE
  8
0
 62
     0
 10
70.5707
 20
97.215
 30
0.0
 11
71.786
 21
93.7976
 31
0.0
  0
LINE
  8
0
 62
     0
 10
71.786
 20
93.7976
 30
0.0
 11
72.8087
 21
90.1982
 31
0.0
  0
LINE
  8
0
 62
     0
 10
72.8087
 20
90.1982
 30
0.0
 11
73.6205
 21
86.432
 31
0.0
  0
LINE
  8
0
 62
     0
 10
73.6205
 20
86.432
 30
0.0
 11
74.2019
 21
82.513
 31
0.0
  0
LINE
  8
0
 62
     0
 10
74.2019
 20
82.513
 30
0.0
 11
74.5352
 21
78.456
 31
0.0
  0
LINE
  8
0
 62
     0
 10
74.5352
 20
78.456
 30
0.0
 11
74.6016
 21
74.2749
 31
0.0
  0
LINE
  8
0
 62
     0
 10
74.6016
 20
74.2749
 30
0.0
 11
74.3839
 21
69.9823
 31
0.0
  0
LINE
  8
0
 62
     0
 10
74.3839
 20
69.9823
 30
0.0
 11
73.86
 21
65.5959
 31
0.0
  0
LINE
  8
0
 62
     0
 10
73.86
 20
65.5959
 30
0.0
 11
73.0141
 21
61.1269
 31
0.0
  0
LINE
  8
0
 62
     0
 10
73.0141
 20
61.1269
 30
0.0
 11
71.8263
 21
56.5919
 31
0.0
  0
LINE
  8
0
 62
     0
 10
71.8263
 20
56.5919
 30
0.0
 11
70.28
 21
52.003
 31
0.0
  0
LINE
  8
0
 62
     0
 10
70.28
 20
52.003
 30
0.0
 11
68.3535
 21
47.3756
 31
0.0
  0
LINE
  8
0
 62
     0
 10
68.3535
 20
47.3756
 30
0.0
 11
66.0301
 21
42.7246
 31
0.0
  0
LINE
  8
0
 62
     0
 10
66.0301
 20
42.7246
 30
0.0
 11
63.2905
 21
38.063
 31
0.0
  0
LINE
  8
0
 62
     0
 10
63.2905
 20
38.063
 30
0.0
 11
60.1169
 21
33.405
 31
0.0
  0
LINE
  8
0
 62
     0
 10
60.1169
 20
33.405
 30
0.0
 11
56.4885
 21
28.7666
 31
0.0
  0
LINE
  8
0
 62
     0
 10
56.4885
 20
28.7666
 30
0.0
 11
52.3903
 21
24.1598
 31
0.0
  0
LINE
  8
0
 62
     0
 10
52.3903
 20
24.1598
 30
0.0
 11
47.8014
 21
19.6012
 31
0.0
  0
LINE
  8
0
 62
     0
 10
47.8014
 20
19.6012
 30
0.0
 11
42.7027
 21
15.1019
 31
0.0
  0
LINE
  8
0
 62
     0
 10
42.7027
 20
15.1019
 30
0.0
 11
37.0762
 21
10.6798
 31
0.0
  0
LINE
  8
0
 62
     0
 10
37.0762
 20
10.6798
 30
0.0
 11
30.9039
 21
6.34587
 31
0.0
  0
LINE
  8
0
 62
     0
 10
30.9039
 20
6.34587
 30
0.0
 11
24.1667
 21
2.11667
 31
0.0
  0
LINE
  8
0
 62
     0
 10
24.1667
 20
2.11667
 30
0.0
 11
23.0918
 21
1.95819
 31
0.0
  0
LINE
  8
0
 62
     0
 10
23.0918
 20
1.95819
 30
0.0
 11
21.3031
 21
1.80523
 31
0.0
  0
LINE
  8
0
 62
     0
 10
21.3031
 20
1.80523
 30
0.0
 11
19.0238
 21
1.66743
 31
0.0
  0
LINE
  8
0
 62
     0
 10
19.0238
 20
1.66743
 30
0.0
 11
16.4827
 21
1.55305
 31
0.0
  0
LINE
  8
0
 62
     0
 10
16.4827
 20
1.55305
 30
0.0
 11
13.9017
 21
1.46899
 31
0.0
  0
LINE
  8
0
 62
     0
 10
13.9017
 20
1.46899
 30
0.0
 11
11.508
 21
1.42489
 31
0.0
  0
LINE
  8
0
 62
     0
 10
11.508
 20
1.42489
 30
0.0
 11
9.52638
 21
1.42903
 31
0.0
  0
LINE
  8
0
 62
     0
 10
9.52638
 20
1.42903
 30
0.0
 11
8.18279
 21
1.48828
 31
0.0
  0
LINE
  8
0
 62
     0
 10
8.18279
 20
1.48828
 30
0.0
 11
7.17684
 21
1.95957
 31
0.0
  0
LINE
  8
0
 62
     0
 10
7.17684
 20
1.95957
 30
0.0
 11
6.0041
 21
2.61001
 31
0.0
  0
LINE
  8
0
 62
     0
 10
6.0041
 20
2.61001
 30
0.0
 11
4.77076
 21
3.43683
 31
0.0
  0
LINE
  8
0
 62
     0
 10
4.77076
 20
3.43683
 30
0.0
 11
3.58842
 21
4.43727
 31
0.0
  0
LINE
  8
0
 62
     0
 10
3.58842
 20
4.43727
 30
0.0
 11
2.56453
 21
5.60585
 31
0.0
  0
LINE
  8
0
 62
     0
 10
2.56453
 20
5.60585
 30
0.0
 11
1.80937
 21
6.93981
 31
0.0
  0
LINE
  8
0
 62
     0
 10
1.80937
 20
6.93981
 30
0.0
 11
1.4304
 21
8.43499
 31
0.0
  0
LINE
  8
0
 62
     0
 10
1.4304
 20
8.43499
 30
0.0
 11
1.53927
 21
10.0886
 31
0.0
  0
LINE
  8
0
 62
     0
 10
1.53927
 20
10.0886
 30
0.0
 11
4.73495
 21
16.3504
 31
0.0
  0
LINE
  8
0
 62
     0
 10
4.73495
 20
16.3504
 30
0.0
 11
8.39914
 21
22.3449
 31
0.0
  0
LINE
  8
0
 62
     0
 10
8.39914
 20
22.3449
 30
0.0
 11
12.4024
 21
28.1271
 31
0.0
  0
LINE
  8
0
 62
     0
 10
12.4024
 20
28.1271
 30
0.0
 11
16.6192
 21
33.744
 31
0.0
  0
LINE
  8
0
 62
     0
 10
16.6192
 20
33.744
 30
0.0
 11
20.9186
 21
39.2479
 31
0.0
  0
LINE
  8
0
 62
     0
 10
20.9186
 20
39.2479
 30
0.0
 11
25.1726
 21
44.6899
 31
0.0
  0
LINE
  8
0
 62
     0
 10
25.1726
 20
44.6899
 30
0.0
 11
29.2544
 21
50.1177
 31
0.0
  0
LINE
  8
0
 62
     0
 10
29.2544
 20
50.1177
 30
0.0
 11
33.0357
 21
55.5847
 31
0.0
  0
LINE
  8
0
 62
     0
 10
33.0357
 20
55.5847
 30
0.0
 11
36.3873
 21
61.1396
 31
0.0
  0
LINE
  8
0
 62
     0
 10
36.3873
 20
61.1396
 30
0.0
 11
39.1816
 21
66.8334
 31
0.0
  0
LINE
  8
0
 62
     0
 10
39.1816
 20
66.8334
 30
0.0
 11
41.2902
 21
72.7163
 31
0.0
  0
LINE
  8
0
 62
     0
 10
41.2902
 20
72.7163
 30
0.0
 11
42.5856
 21
78.8402
 31
0.0
  0
LINE
  8
0
 62
     0
 10
42.5856
 20
78.8402
 30
0.0
 11
42.9383
 21
85.2537
 31
0.0
  0
LINE
  8
0
 62
     0
 10
42.9383
 20
85.2537
 30
0.0
 11
42.2219
 21
92.0076
 31
0.0
  0
LINE
  8
0
 62
     0
 10
42.2219
 20
92.0076
 30
0.0
 11
40.3049
 21
99.1528
 31
0.0
  0
LINE
  8
0
 62
     0
 10
40.3049
 20
99.1528
 30
0.0
 11
37.0639
 21
106.739
 31
0.0
  0
LINE
  8
0
 62
     0
 10
37.0639
 20
106.739
 30
0.0
 11
35.4446
 21
109.273
 31
0.0
  0
LINE
  8
0
 62
     0
 10
35.4446
 20
109.273
 30
0.0
 11
33.5056
 21
111.51
 31
0.0
  0
LINE
  8
0
 62
     0
 10
33.5056
 20
111.51
 30
0.0
 11
31.4083
 21
113.436
 31
0.0
  0
LINE
  8
0
 62
     0
 10
31.4083
 20
113.436
 30
0.0
 11
29.3219
 21
115.04
 31
0.0
  0
LINE
  8
0
 62
     0
 10
29.3219
 20
115.04
 30
0.0
 11
27.4092
 21
116.309
 31
0.0
  0
LINE
  8
0
 62
     0
 10
27.4092
 20
116.309
 30
0.0
 11
25.8382
 21
117.231
 31
0.0
  0
LINE
  8
0
 62
     0
 10
25.8382
 20
117.231
 30
0.0
 11
24.7744
 21
117.793
 31
0.0
  0
LINE
  8
0
 62
     0
 10
24.7744
 20
117.793
 30
0.0
 11
24.383
 21
117.983
 31
0.0
  0
LINE
  8
0
 62
     0
 10
24.383
 20
117.983
 30
0.0
 11
22.2856
 21
118.226
 31
0.0
  0
LINE
  8
0
 62
     0
 10
22.2856
 20
118.226
 30
0.0
 11
21.2411
 21
119.477
 31
0.0
  0
LINE
  8
0
 62
     0
 10
21.2411
 20
119.477
 30
0.0
 11
21.0468
 21
121.422
 31
0.0
  0
LINE
  8
0
 62
     0
 10
21.0468
 20
121.422
 30
0.0
 11
21.507
 21
123.74
 31
0.0
  0
LINE
  8
0
 62
     0
 10
21.507
 20
123.74
 30
0.0
 11
22.4179
 21
126.117
 31
0.0
  0
LINE
  8
0
 62
     0
 10
22.4179
 20
126.117
 30
0.0
 11
23.5824
 21
128.233
 31
0.0
  0
LINE
  8
0
 62
     0
 10
23.5824
 20
128.233
 30
0.0
 11
24.8006
 21
129.775
 31
0.0
  0
LINE
  8
0
 62
     0
 10
24.8006
 20
129.775
 30
0.0
 11
25.8713
 21
130.422
 31
0.0
  0
LINE
  8
0
 62
     0
 10
25.8713
 20
130.422
 30
0.0
 11
26.716
 21
130.643
 31
0.0
  0
LINE
  8
0
 62
     0
 10
26.716
 20
130.643
 30
0.0
 11
27.1735
 21
130.406
 31
0.0
  0
LINE
  8
0
 62
     0
 10
27.1735
 20
130.406
 30
0.0
 11
27.3596
 21
129.825
 31
0.0
  0
LINE
  8
0
 62
     0
 10
27.3596
 20
129.825
 30
0.0
 11
27.394
 21
129.01
 31
0.0
  0
LINE
  8
0
 62
     0
 10
27.394
 20
129.01
 30
0.0
 11
27.394
 21
128.075
 31
0.0
  0
LINE
  8
0
 62
     0
 10
27.394
 20
128.075
 30
0.0
 11
27.4767
 21
127.131
 31
0.0
  0
LINE
  8
0
 62
     0
 10
27.4767
 20
127.131
 30
0.0
 11
27.7592
 21
126.289
 31
0.0
  0
LINE
  8
0
 62
     0
 10
27.7592
 20
126.289
 30
0.0
 11
28.3628
 21
125.661
 31
0.0
  0
LINE
  8
0
 62
     0
 10
28.3628
 20
125.661
 30
0.0
 11
29.4969
 21
124.874
 31
0.0
  0
LINE
  8
0
 62
     0
 10
29.4969
 20
124.874
 30
0.0
 11
31.1809
 21
123.614
 31
0.0
  0
LINE
  8
0
 62
     0
 10
31.1809
 20
123.614
 30
0.0
 11
33.2314
 21
122.086
 31
0.0
  0
LINE
  8
0
 62
     0
 10
33.2314
 20
122.086
 30
0.0
 11
35.4722
 21
120.494
 31
0.0
  0
LINE
  8
0
 62
     0
 10
35.4722
 20
120.494
 30
0.0
 11
37.7197
 21
119.045
 31
0.0
  0
LINE
  8
0
 62
     0
 10
37.7197
 20
119.045
 30
0.0
 11
39.799
 21
117.942
 31
0.0
  0
LINE
  8
0
 62
     0
 10
39.799
 20
117.942
 30
0.0
 11
41.5272
 21
117.392
 31
0.0
  0
LINE
  8
0
 62
     0
 10
41.5272
 20
117.392
 30
0.0
 11
42.726
 21
117.598
 31
0.0
  0
LINE
  8
0
 62
     0
 10
42.726
 20
117.598
 30
0.0
 11
44.7629
 21
118.754
 31
0.0
  0
LINE
  8
0
 62
     0
 10
44.7629
 20
118.754
 30
0.0
 11
47.177
 21
119.432
 31
0.0
  0
LINE
  8
0
 62
     0
 10
47.177
 20
119.432
 30
0.0
 11
49.6686
 21
119.364
 31
0.0
  0
LINE
  8
0
 62
     0
 10
49.6686
 20
119.364
 30
0.0
 11
51.9342
 21
118.287
 31
0.0
  0
LINE
  8
0
 62
     0
 10
51.9342
 20
118.287
 30
0.0
 11
54.048
 21
117.467
 31
0.0
  0
LINE
  8
0
 62
     0
 10
54.048
 20
117.467
 30
0.0
 11
56.158
 21
116.321
 31
0.0
  0
LINE
  8
0
 62
     0
 10
56.158
 20
116.321
 30
0.0
 11
58.2415
 21
114.866
 31
0.0
  0
LINE
  8
0
 62
     0
 10
58.2415
 20
114.866
 30
0.0
 11
60.2823
 21
113.117
 31
0.0
  0
LINE
  8
0
 62
     0
 10
60.2823
 20
113.117
 30
0.0
 11
62.261
 21
111.087
 31
0.0
  0
LINE
  8
0
 62
     0
 10
62.261
 20
111.087
 30
0.0
 11
64.1586
 21
108.788
 31
0.0
  0
LINE
  8
0
 62
     0
 10
64.1586
 20
108.788
 30
0.0
 11
65.9571
 21
106.238
 31
0.0
  0
LINE
  8
0
 62
     0
 10
65.9571
 20
106.238
 30
0.0
 11
67.637
 21
103.449
 31
0.0
  0
LINE
  8
0
 62
     0
 10
67.637
 20
103.449
 30
0.0
 11
69.1815
 21
100.437
 31
0.0
  0
LINE
  8
0
 62
     0
 10
69.1815
 20
100.437
 30
0.0
 11
70.5707
 21
97.215
 31
0.0
  0
LINE
  8
0
 62
     0
 10
70.5707
 20
97.215
 30
0.0
 11
71.786
 21
93.7976
 31
0.0
  0
LINE
  8
0
 62
     0
 10
71.786
 20
93.7976
 30
0.0
 11
72.8087
 21
90.1982
 31
0.0
  0
LINE
  8
0
 62
     0
 10
72.8087
 20
90.1982
 30
0.0
 11
73.6205
 21
86.432
 31
0.0
  0
LINE
  8
0
 62
     0
 10
73.6205
 20
86.432
 30
0.0
 11
74.2019
 21
82.513
 31
0.0
  0
LINE
  8
0
 62
     0
 10
74.2019
 20
82.513
 30
0.0
 11
74.5352
 21
78.456
 31
0.0
  0
LINE
  8
0
 62
     0
 10
74.5352
 20
78.456
 30
0.0
 11
74.6016
 21
74.2749
 31
0.0
  0
LINE
  8
0
 62
     0
 10
74.6016
 20
74.2749
 30
0.0
 11
74.3839
 21
69.9823
 31
0.0
  0
LINE
  8
0
 62
     0
 10
74.3839
 20
69.9823
 30
0.0
 11
73.86
 21
65.5959
 31
0.0
  0
LINE
  8
0
 62
     0
 10
73.86
 20
65.5959
 30
0.0
 11
73.0141
 21
61.1269
 31
0.0
  0
LINE
  8
0
 62
     0
 10
73.0141
 20
61.1269
 30
0.0
 11
71.8263
 21
56.5919
 31
0.0
  0
LINE
  8
0
 62
     0
 10
71.8263
 20
56.5919
 30
0.0
 11
70.28
 21
52.003
 31
0.0
  0
LINE
  8
0
 62
     0
 10
70.28
 20
52.003
 30
0.0
 11
68.3535
 21
47.3756
 31
0.0
  0
LINE
  8
0
 62
     0
 10
68.3535
 20
47.3756
 30
0.0
 11
66.0301
 21
42.7246
 31
0.0
  0
LINE
  8
0
 62
     0
 10
66.0301
 20
42.7246
 30
0.0
 11
63.2905
 21
38.063
 31
0.0
  0
LINE
  8
0
 62
     0
 10
63.2905
 20
38.063
 30
0.0
 11
60.1169
 21
33.405
 31
0.0
  0
LINE
  8
0
 62
     0
 10
60.1169
 20
33.405
 30
0.0
 11
56.4885
 21
28.7666
 31
0.0
  0
LINE
  8
0
 62
     0
 10
56.4885
 20
28.7666
 30
0.0
 11
52.3903
 21
24.1598
 31
0.0
  0
LINE
  8
0
 62
     0
 10
52.3903
 20
24.1598
 30
0.0
 11
47.8014
 21
19.6012
 31
0.0
  0
LINE
  8
0
 62
     0
 10
47.8014
 20
19.6012
 30
0.0
 11
42.7027
 21
15.1019
 31
0.0
  0
LINE
  8
0
 62
     0
 10
42.7027
 20
15.1019
 30
0.0
 11
37.0762
 21
10.6798
 31
0.0
  0
LINE
  8
0
 62
     0
 10
37.0762
 20
10.6798
 30
0.0
 11
30.9039
 21
6.34587
 31
0.0
  0
LINE
  8
0
 62
     0
 10
30.9039
 20
6.34587
 30
0.0
 11
24.1667
 21
2.11667
 31
0.0
  0
LINE
  8
0
 62
     0
 10
24.1667
 20
2.11667
 30
0.0
 11
23.0918
 21
1.95819
 31
0.0
  0
LINE
  8
0
 62
     0
 10
23.0918
 20
1.95819
 30
0.0
 11
21.3031
 21
1.80523
 31
0.0
  0
LINE
  8
0
 62
     0
 10
21.3031
 20
1.80523
 30
0.0
 11
19.0238
 21
1.66743
 31
0.0
  0
LINE
  8
0
 62
     0
 10
19.0238
 20
1.66743
 30
0.0
 11
16.4827
 21
1.55305
 31
0.0
  0
LINE
  8
0
 62
     0
 10
16.4827
 20
1.55305
 30
0.0
 11
13.9017
 21
1.46899
 31
0.0
  0
LINE
  8
0
 62
     0
 10
13.9017
 20
1.46899
 30
0.0
 11
11.508
 21
1.42491
 31
0.0
  0
LINE
  8
0
 62
     0
 10
11.508
 20
1.42491
 30
0.0
 11
9.52638
 21
1.42903
 31
0.0
  0
LINE
  8
0
 62
     0
 10
9.52638
 20
1.42903
 30
0.0
 11
8.18279
 21
1.48828
 31
0.0
  0
LINE
  8
0
 62
     0
 10
8.18279
 20
1.48828
 30
0.0
 11
7.17684
 21
1.95957
 31
0.0
  0
LINE
  8
0
 62
     0
 10
7.17684
 20
1.95957
 30
0.0
 11
6.00414
 21
2.61001
 31
0.0
  0
LINE
  8
0
 62
     0
 10
6.00414
 20
2.61001
 30
0.0
 11
4.77079
 21
3.43683
 31
0.0
  0
LINE
  8
0
 62
     0
 10
4.77079
 20
3.43683
 30
0.0
 11
3.58842
 21
4.43731
 31
0.0
  0
LINE
  8
0
 62
     0
 10
3.58842
 20
4.43731
 30
0.0
 11
2.56454
 21
5.60585
 31
0.0
  0
LINE
  8
0
 62
     0
 10
2.56454
 20
5.60585
 30
0.0
 11
1.80938
 21
6.93981
 31
0.0
  0
LINE
  8
0
 62
     0
 10
1.80938
 20
6.93981
 30
0.0
 11
1.43042
 21
8.43499
 31
0.0
  0
LINE
  8
0
 62
     0
 10
1.43042
 20
8.43499
 30
0.0
 11
1.53928
 21
10.0886
 31
0.0
  0
LINE
  8
0
 62
     0
 10
1.53928
 20
10.0886
 30
0.0
 11
4.73495
 21
16.3504
 31
0.0
  0
LINE
  8
0
 62
     0
 10
4.73495
 20
16.3504
 30
0.0
 11
8.39914
 21
22.3449
 31
0.0
  0
LINE
  8
0
 62
     0
 10
8.39914
 20
22.3449
 30
0.0
 11
12.4024
 21
28.1271
 31
0.0
  0
LINE
  8
0
 62
     0
 10
12.4024
 20
28.1271
 30
0.0
 11
16.6192
 21
33.744
 31
0.0
  0
LINE
  8
0
 62
     0
 10
16.6192
 20
33.744
 30
0.0
 11
20.9186
 21
39.2479
 31
0.0
  0
LINE
  8
0
 62
     0
 10
20.9186
 20
39.2479
 30
0.0
 11
25.1726
 21
44.6899
 31
0.0
  0
LINE
  8
0
 62
     0
 10
25.1726
 20
44.6899
 30
0.0
 11
29.2544
 21
50.1177
 31
0.0
  0
LINE
  8
0
 62
     0
 10
29.2544
 20
50.1177
 30
0.0
 11
33.0357
 21
55.5847
 31
0.0
  0
LINE
  8
0
 62
     0
 10
33.0357
 20
55.5847
 30
0.0
 11
36.3873
 21
61.1396
 31
0.0
  0
LINE
  8
0
 62
     0
 10
36.3873
 20
61.1396
 30
0.0
 11
39.1816
 21
66.8334
 31
0.0
  0
LINE
  8
0
 62
     0
 10
39.1816
 20
66.8334
 30
0.0
 11
41.2902
 21
72.7163
 31
0.0
  0
LINE
  8
0
 62
     0
 10
41.2902
 20
72.7163
 30
0.0
 11
42.5856
 21
78.8402
 31
0.0
  0
LINE
  8
0
 62
     0
 10
42.5856
 20
78.8402
 30
0.0
 11
42.9383
 21
85.2537
 31
0.0
  0
LINE
  8
0
 62
     0
 10
42.9383
 20
85.2537
 30
0.0
 11
42.2219
 21
92.0076
 31
0.0
  0
LINE
  8
0
 62
     0
 10
42.2219
 20
92.0076
 30
0.0
 11
40.3049
 21
99.1528
 31
0.0
  0
LINE
  8
0
 62
     0
 10
40.3049
 20
99.1528
 30
0.0
 11
37.0635
 21
106.739
 31
0.0
  0
LINE
  8
0
 62
     0
 10
37.0635
 20
106.739
 30
0.0
 11
35.4446
 21
109.273
 31
0.0
  0
LINE
  8
0
 62
     0
 10
35.4446
 20
109.273
 30
0.0
 11
33.5056
 21
111.51
 31
0.0
  0
LINE
  8
0
 62
     0
 10
33.5056
 20
111.51
 30
0.0
 11
31.4082
 21
113.436
 31
0.0
  0
LINE
  8
0
 62
     0
 10
31.4082
 20
113.436
 30
0.0
 11
29.3219
 21
115.04
 31
0.0
  0
LINE
  8
0
 62
     0
 10
29.3219
 20
115.04
 30
0.0
 11
27.4092
 21
116.309
 31
0.0
  0
LINE
  8
0
 62
     0
 10
27.4092
 20
116.309
 30
0.0
 11
25.8382
 21
117.231
 31
0.0
  0
LINE
  8
0
 62
     0
 10
25.8382
 20
117.231
 30
0.0
 11
24.7744
 21
117.793
 31
0.0
  0
LINE
  8
0
 62
     0
 10
24.7744
 20
117.793
 30
0.0
 11
24.383
 21
117.983
 31
0.0
  0
ENDSEC
  0
EOF
