<?xml version="1.0" encoding="UTF-8" standalone="no"?>
<svg
   xmlns:dc="http://purl.org/dc/elements/1.1/"
   xmlns:cc="http://creativecommons.org/ns#"
   xmlns:rdf="http://www.w3.org/1999/02/22-rdf-syntax-ns#"
   xmlns:svg="http://www.w3.org/2000/svg"
   xmlns="http://www.w3.org/2000/svg"
   xmlns:sodipodi="http://sodipodi.sourceforge.net/DTD/sodipodi-0.dtd"
   xmlns:inkscape="http://www.inkscape.org/namespaces/inkscape"
   width="533.3333333333333"
   height="533.3333333333333"
   id="svg3040"
   version="1.1"
   inkscape:version="0.48.5 r10040"
   sodipodi:docname="banana-wireframe.svg">
  <metadata
     id="metadata3058">
    <rdf:RDF>
      <cc:Work
         rdf:about="">
        <dc:format>image/svg+xml</dc:format>
        <dc:type
           rdf:resource="http://purl.org/dc/dcmitype/StillImage" />
      </cc:Work>
    </rdf:RDF>
  </metadata>
  <defs
     id="defs3056" />
  <sodipodi:namedview
     pagecolor="#ffffff"
     bordercolor="#666666"
     borderopacity="1"
     objecttolerance="10"
     gridtolerance="10"
     guidetolerance="10"
     inkscape:pageopacity="0"
     inkscape:pageshadow="2"
     inkscape:window-width="1436"
     inkscape:window-height="856"
     id="namedview3054"
     showgrid="false"
     inkscape:zoom="1.3892542"
     inkscape:cx="304.62758"
     inkscape:cy="310.54079"
     inkscape:window-x="4"
     inkscape:window-y="0"
     inkscape:window-maximized="1"
     inkscape:current-layer="svg3040" />
  <title
     id="title3042">Banana wireframe</title>
  <g
     id="g3044">
    <title
       id="title3046">Layer 1</title>
    <g
       transform="rotate(-50.825, 266.086, 252.014)"
       id="g845">
      <path
         fill="#050404"
         fill-rule="evenodd"
         stroke="#000000"
         stroke-width="10"
         stroke-linejoin="round"
         id="path847"
         d="m411.75,120.75c-18.75,-17.5 31.25,-30 37.5,-23.75c10,5 -8.75,8.75 -7.5,17.5c1.25,8.75 0,55 10,57.5c10,2.5 22.5,11.25 22.5,23.75c31.25,77.5 -91.25,290 -381.25,183.75c-5,-3.75 -32.5,-35 -37.5,-42.5c-2.5,-8.75 -6.25,-30 8.75,-37.5c128.75,-33.75 277.5,32.5 345,-118.75c11.25,-26.25 2.5,-60 2.5,-60z" />
    </g>
  </g>
</svg>
