  0
SECTION
  2
HEADER
  9
$ACADVER
  1
AC1015
  9
$ACADMAINTVER
 70
     6
  9
$DWGCODEPAGE
  3
ANSI_1252
  9
$INSBASE
 10
0.0
 20
0.0
 30
0.0
  9
$EXTMIN
 10
1.000000E+20
 20
1.000000E+20
 30
1.000000E+20
  9
$EXTMAX
 10
-1.000000E+20
 20
-1.000000E+20
 30
-1.000000E+20
  9
$LIMMIN
 10
0.0
 20
0.0
  9
$LIMMAX
 10
420.0
 20
297.0
  9
$ORTHOMODE
 70
     0
  9
$REGENMODE
 70
     1
  9
$FILLMODE
 70
     1
  9
$QTEXTMODE
 70
     0
  9
$MIRRTEXT
 70
     1
  9
$LTSCALE
 40
1.0
  9
$ATTMODE
 70
     1
  9
$TEXTSIZE
 40
2.5
  9
$TRACEWID
 40
1.0
  9
$TEXTSTYLE
  7
Standard
  9
$CLAYER
  8
0
  9
$CELTYPE
  6
ByLayer
  9
$CECOLOR
 62
   256
  9
$CELTSCALE
 40
1.0
  9
$DISPSILH
 70
     0
  9
$DIMSCALE
 40
1.0
  9
$DIMASZ
 40
2.5
  9
$DIMEXO
 40
0.625
  9
$DIMDLI
 40
3.75
  9
$DIMRND
 40
0.0
  9
$DIMDLE
 40
0.0
  9
$DIMEXE
 40
1.25
  9
$DIMTP
 40
0.0
  9
$DIMTM
 40
0.0
  9
$DIMTXT
 40
2.5
  9
$DIMCEN
 40
2.5
  9
$DIMTSZ
 40
0.0
  9
$DIMTOL
 70
     0
  9
$DIMLIM
 70
     0
  9
$DIMTIH
 70
     0
  9
$DIMTOH
 70
     0
  9
$DIMSE1
 70
     0
  9
$DIMSE2
 70
     0
  9
$DIMTAD
 70
     1
  9
$DIMZIN
 70
     8
  9
$DIMBLK
  1

  9
$DIMASO
 70
     1
  9
$DIMSHO
 70
     1
  9
$DIMPOST
  1

  9
$DIMAPOST
  1

  9
$DIMALT
 70
     0
  9
$DIMALTD
 70
     3
  9
$DIMALTF
 40
0.03937
  9
$DIMLFAC
 40
1.0
  9
$DIMTOFL
 70
     1
  9
$DIMTVP
 40
0.0
  9
$DIMTIX
 70
     0
  9
$DIMSOXD
 70
     0
  9
$DIMSAH
 70
     0
  9
$DIMBLK1
  1

  9
$DIMBLK2
  1

  9
$DIMSTYLE
  2
ISO-25
  9
$DIMCLRD
 70
     0
  9
$DIMCLRE
 70
     0
  9
$DIMCLRT
 70
     0
  9
$DIMTFAC
 40
1.0
  9
$DIMGAP
 40
0.625
  9
$DIMJUST
 70
     0
  9
$DIMSD1
 70
     0
  9
$DIMSD2
 70
     0
  9
$DIMTOLJ
 70
     0
  9
$DIMTZIN
 70
     8
  9
$DIMALTZ
 70
     0
  9
$DIMALTTZ
 70
     0
  9
$DIMUPT
 70
     0
  9
$DIMDEC
 70
     2
  9
$DIMTDEC
 70
     2
  9
$DIMALTU
 70
     2
  9
$DIMALTTD
 70
     3
  9
$DIMTXSTY
  7
Standard
  9
$DIMAUNIT
 70
     0
  9
$DIMADEC
 70
     0
  9
$DIMALTRND
 40
0.0
  9
$DIMAZIN
 70
     0
  9
$DIMDSEP
 70
    44
  9
$DIMATFIT
 70
     3
  9
$DIMFRAC
 70
     0
  9
$DIMLDRBLK
  1

  9
$DIMLUNIT
 70
     2
  9
$DIMLWD
 70
    -2
  9
$DIMLWE
 70
    -2
  9
$DIMTMOVE
 70
     0
  9
$LUNITS
 70
     2
  9
$LUPREC
 70
     4
  9
$SKETCHINC
 40
1.0
  9
$FILLETRAD
 40
10.0
  9
$AUNITS
 70
     0
  9
$AUPREC
 70
     0
  9
$MENU
  1
.
  9
$ELEVATION
 40
0.0
  9
$PELEVATION
 40
0.0
  9
$THICKNESS
 40
0.0
  9
$LIMCHECK
 70
     0
  9
$CHAMFERA
 40
10.0
  9
$CHAMFERB
 40
10.0
  9
$CHAMFERC
 40
20.0
  9
$CHAMFERD
 40
0.0
  9
$SKPOLY
 70
     0
  9
$TDCREATE
 40
2455799.836128125
  9
$TDUCREATE
 40
2455800.002794792
  9
$TDUPDATE
 40
2455799.836128137
  9
$TDUUPDATE
 40
2455800.002794803
  9
$TDINDWG
 40
0.0000000116
  9
$TDUSRTIMER
 40
0.0000000116
  9
$USRTIMER
 70
     1
  9
$ANGBASE
 50
0.0
  9
$ANGDIR
 70
     0
  9
$PDMODE
 70
     3
  9
$PDSIZE
 40
-0.7
  9
$PLINEWID
 40
0.0
  9
$SPLFRAME
 70
     0
  9
$SPLINETYPE
 70
     6
  9
$SPLINESEGS
 70
     8
  9
$HANDSEED
  5
2D
  9
$SURFTAB1
 70
     6
  9
$SURFTAB2
 70
     6
  9
$SURFTYPE
 70
     6
  9
$SURFU
 70
     6
  9
$SURFV
 70
     6
  9
$UCSBASE
  2

  9
$UCSNAME
  2

  9
$UCSORG
 10
0.0
 20
0.0
 30
0.0
  9
$UCSXDIR
 10
1.0
 20
0.0
 30
0.0
  9
$UCSYDIR
 10
0.0
 20
1.0
 30
0.0
  9
$UCSORTHOREF
  2

  9
$UCSORTHOVIEW
 70
     0
  9
$UCSORGTOP
 10
0.0
 20
0.0
 30
0.0
  9
$UCSORGBOTTOM
 10
0.0
 20
0.0
 30
0.0
  9
$UCSORGLEFT
 10
0.0
 20
0.0
 30
0.0
  9
$UCSORGRIGHT
 10
0.0
 20
0.0
 30
0.0
  9
$UCSORGFRONT
 10
0.0
 20
0.0
 30
0.0
  9
$UCSORGBACK
 10
0.0
 20
0.0
 30
0.0
  9
$PUCSBASE
  2

  9
$PUCSNAME
  2

  9
$PUCSORG
 10
0.0
 20
0.0
 30
0.0
  9
$PUCSXDIR
 10
1.0
 20
0.0
 30
0.0
  9
$PUCSYDIR
 10
0.0
 20
1.0
 30
0.0
  9
$PUCSORTHOREF
  2

  9
$PUCSORTHOVIEW
 70
     0
  9
$PUCSORGTOP
 10
0.0
 20
0.0
 30
0.0
  9
$PUCSORGBOTTOM
 10
0.0
 20
0.0
 30
0.0
  9
$PUCSORGLEFT
 10
0.0
 20
0.0
 30
0.0
  9
$PUCSORGRIGHT
 10
0.0
 20
0.0
 30
0.0
  9
$PUCSORGFRONT
 10
0.0
 20
0.0
 30
0.0
  9
$PUCSORGBACK
 10
0.0
 20
0.0
 30
0.0
  9
$USERI1
 70
     0
  9
$USERI2
 70
     0
  9
$USERI3
 70
     0
  9
$USERI4
 70
     0
  9
$USERI5
 70
     0
  9
$USERR1
 40
0.0
  9
$USERR2
 40
0.0
  9
$USERR3
 40
0.0
  9
$USERR4
 40
0.0
  9
$USERR5
 40
0.0
  9
$WORLDVIEW
 70
     1
  9
$SHADEDGE
 70
     3
  9
$SHADEDIF
 70
    70
  9
$TILEMODE
 70
     1
  9
$MAXACTVP
 70
    64
  9
$PINSBASE
 10
0.0
 20
0.0
 30
0.0
  9
$PLIMCHECK
 70
     0
  9
$PEXTMIN
 10
1.000000E+20
 20
1.000000E+20
 30
1.000000E+20
  9
$PEXTMAX
 10
-1.000000E+20
 20
-1.000000E+20
 30
-1.000000E+20
  9
$PLIMMIN
 10
0.0
 20
0.0
  9
$PLIMMAX
 10
420.0
 20
297.0
  9
$UNITMODE
 70
     0
  9
$VISRETAIN
 70
     1
  9
$PLINEGEN
 70
     0
  9
$PSLTSCALE
 70
     1
  9
$TREEDEPTH
 70
  3020
  9
$CMLSTYLE
  2
Standard
  9
$CMLJUST
 70
     1
  9
$CMLSCALE
 40
1.0
  9
$PROXYGRAPHICS
 70
     1
  9
$MEASUREMENT
 70
     1
  9
$CELWEIGHT
370
    -1
  9
$ENDCAPS
280
     0
  9
$JOINSTYLE
280
     0
  9
$LWDISPLAY
290
     0
  9
$INSUNITS
 70
     4
  9
$HYPERLINKBASE
  1

  9
$STYLESHEET
  1

  9
$XEDIT
290
     1
  9
$CEPSNTYPE
380
     0
  9
$PSTYLEMODE
290
     1
  9
$FINGERPRINTGUID
  2
{FAEB1C30-E019-11D5-929B-00C0DF256EC4}
  9
$VERSIONGUID
  2
{FAEB1C32-E019-11D5-929B-00C0DF256EC4}
  9
$EXTNAMES
290
     1
  9
$PSVPSCALE
 40
0.0
  9
$OLESTARTUP
290
     0
  0
ENDSEC
  0
SECTION
  2
CLASSES
  0
CLASS
  1
ACDBDICTIONARYWDFLT
  2
AcDbDictionaryWithDefault
  3
ObjectDBX Classes
 90
        0
280
     0
281
     0
  0
CLASS
  1
ACDBPLACEHOLDER
  2
AcDbPlaceHolder
  3
ObjectDBX Classes
 90
        0
280
     0
281
     0
  0
CLASS
  1
LAYOUT
  2
AcDbLayout
  3
ObjectDBX Classes
 90
        0
280
     0
281
     0
  0
ENDSEC
  0
SECTION
  2
TABLES
  0
TABLE
  2
VPORT
  5
8
330
0
100
AcDbSymbolTable
 70
     2
  0
VPORT
  5
29
330
8
100
AcDbSymbolTableRecord
100
AcDbViewportTableRecord
  2
*Active
 70
     0
 10
0.0
 20
0.0
 11
1.0
 21
1.0
 12
50.0
 22
50.0
 13
0.0
 23
0.0
 14
10.0
 24
10.0
 15
10.0
 25
10.0
 16
0.0
 26
0.0
 36
1.0
 17
0.0
 27
0.0
 37
0.0
 40
103.921569
 41
1.0
 42
50.0
 43
0.0
 44
0.0
 50
0.0
 51
0.0
 71
     0
 72
   100
 73
     1
 74
     3
 75
     0
 76
     0
 77
     0
 78
     0
281
     0
 65
     1
110
0.0
120
0.0
130
0.0
111
1.0
121
0.0
131
0.0
112
0.0
122
1.0
132
0.0
 79
     0
146
0.0
  0
ENDTAB
  0
TABLE
  2
LTYPE
  5
5
330
0
100
AcDbSymbolTable
 70
     1
  0
LTYPE
  5
14
330
5
100
AcDbSymbolTableRecord
100
AcDbLinetypeTableRecord
  2
ByBlock
 70
     0
  3

 72
    65
 73
     0
 40
0.0
  0
LTYPE
  5
15
330
5
100
AcDbSymbolTableRecord
100
AcDbLinetypeTableRecord
  2
ByLayer
 70
     0
  3

 72
    65
 73
     0
 40
0.0
  0
LTYPE
  5
16
330
5
100
AcDbSymbolTableRecord
100
AcDbLinetypeTableRecord
  2
Continuous
 70
     0
  3

 72
    65
 73
     0
 40
0.0
  0
ENDTAB
  0
TABLE
  2
LAYER
  5
2
330
0
100
AcDbSymbolTable
 70
     1
  0
LAYER
  5
10
330
2
100
AcDbSymbolTableRecord
100
AcDbLayerTableRecord
  2
0
 70
     0
 62
     7
  6
Continuous
370
    -3
390
F
  0
ENDTAB
  0
TABLE
  2
STYLE
  5
3
330
0
100
AcDbSymbolTable
 70
     1
  0
STYLE
  5
11
330
3
100
AcDbSymbolTableRecord
100
AcDbTextStyleTableRecord
  2
Standard
 70
     0
 40
1.0
 41
1.0
 50
0.0
 71
     0
 42
2.5
  3
RomanS
  4

  0
ENDTAB
  0
TABLE
  2
VIEW
  5
6
330
0
100
AcDbSymbolTable
 70
     0
  0
ENDTAB
  0
TABLE
  2
UCS
  5
7
330
0
100
AcDbSymbolTable
 70
     0
  0
ENDTAB
  0
TABLE
  2
APPID
  5
9
330
0
100
AcDbSymbolTable
 70
     1
  0
APPID
  5
12
330
9
100
AcDbSymbolTableRecord
100
AcDbRegAppTableRecord
  2
ACAD
 70
     0
  0
ENDTAB
  0
TABLE
  2
DIMSTYLE
  5
A
330
0
100
AcDbSymbolTable
 70
     1
100
AcDbDimStyleTable
  0
DIMSTYLE
105
27
330
A
100
AcDbSymbolTableRecord
100
AcDbDimStyleTableRecord
  2
ISO-25
 70
     0
 41
2.5
 42
0.625
 44
1.25
 73
     0
 74
     0
 77
     1
 78
     8
 79
     2
140
2.5
141
2.5
146
0.0
147
0.625
271
     2
272
     0
273
     0
274
     0
278
    44
283
     0
289
     0
340
11
  0
ENDTAB
  0
TABLE
  2
BLOCK_RECORD
  5
1
330
0
100
AcDbSymbolTable
 70
     1
  0
BLOCK_RECORD
  5
1F
330
1
100
AcDbSymbolTableRecord
100
AcDbBlockTableRecord
  2
*Model_Space
340
22
  0
BLOCK_RECORD
  5
1B
330
1
100
AcDbSymbolTableRecord
100
AcDbBlockTableRecord
  2
*Paper_Space
340
1E
  0
BLOCK_RECORD
  5
23
330
1
100
AcDbSymbolTableRecord
100
AcDbBlockTableRecord
  2
*Paper_Space0
340
26
  0
ENDTAB
  0
ENDSEC
  0
SECTION
  2
BLOCKS
  0
BLOCK
  5
20
330
1F
100
AcDbEntity
  8
0
100
AcDbBlockBegin
  2
*Model_Space
 70
     0
 71
     0
 10
0.0
 20
0.0
 30
0.0
  3
*Model_Space
  1

  0
ENDBLK
  5
21
330
1F
100
AcDbEntity
  8
0
100
AcDbBlockEnd
  0
BLOCK
  5
1C
330
1B
100
AcDbEntity
 67
     1
  8
0
100
AcDbBlockBegin
  2
*Paper_Space
 70
     0
 71
     0
 10
0.0
 20
0.0
 30
0.0
  3
*Paper_Space
  1

  0
ENDBLK
  5
1D
330
1B
100
AcDbEntity
 67
     1
  8
0
100
AcDbBlockEnd
  0
BLOCK
  5
24
330
23
100
AcDbEntity
  8
0
100
AcDbBlockBegin
  2
*Paper_Space0
 70
     0
 71
     0
 10
0.0
 20
0.0
 30
0.0
  3
*Paper_Space0
  1

  0
ENDBLK
  5
25
330
23
100
AcDbEntity
  8
0
100
AcDbBlockEnd
  0
ENDSEC
  0
SECTION
  2
ENTITIES
  0
LWPOLYLINE
  5
2A
330
1F
100
AcDbEntity
  8
0
100
AcDbPolyline
 90
      563
 70
   128
 43
0.0
 10
1.262309
 20
0.416667
 10
1.250883
 20
0.443263
 10
1.238693
 20
0.470018
 10
1.22568
 20
0.496741
 10
1.211787
 20
0.523241
 10
1.196956
 20
0.549327
 10
1.189172
 20
0.562155
 10
1.181131
 20
0.574808
 10
1.172827
 20
0.587261
 10
1.164253
 20
0.599492
 10
1.155402
 20
0.611476
 10
1.146266
 20
0.623189
 10
1.136838
 20
0.634608
 10
1.127111
 20
0.645708
 10
1.117077
 20
0.656466
 10
1.10673
 20
0.666858
 10
1.096063
 20
0.67686
 10
1.085068
 20
0.686448
 10
1.073737
 20
0.695598
 10
1.062065
 20
0.704286
 10
1.050043
 20
0.712489
 10
1.037665
 20
0.720182
 10
1.024923
 20
0.727342
 10
1.011809
 20
0.733944
 10
0.998318
 20
0.739966
 10
0.984441
 20
0.745383
 10
0.970172
 20
0.75017
 10
0.955504
 20
0.754306
 10
0.951157
 20
0.755503
 10
0.946765
 20
0.756207
 10
0.942337
 20
0.756449
 10
0.937879
 20
0.756256
 10
0.9334
 20
0.755658
 10
0.928907
 20
0.754684
 10
0.91991
 20
0.751726
 10
0.910952
 20
0.747614
 10
0.902093
 20
0.742582
 10
0.893396
 20
0.736862
 10
0.884924
 20
0.730689
 10
0.868899
 20
0.717915
 10
0.854515
 20
0.706124
 10
0.848094
 20
0.701181
 10
0.842269
 20
0.697183
 10
0.837102
 20
0.694365
 10
0.834785
 20
0.69347
 10
0.832656
 20
0.692958
 10
0.830274
 20
0.700689
 10
0.828471
 20
0.708691
 10
0.827146
 20
0.716935
 10
0.826198
 20
0.725394
 10
0.825026
 20
0.742838
 10
0.824144
 20
0.760795
 10
0.822742
 20
0.779038
 10
0.821593
 20
0.788195
 10
0.82001
 20
0.797337
 10
0.817891
 20
0.806437
 10
0.815136
 20
0.815466
 10
0.811642
 20
0.824394
 10
0.807309
 20
0.833194
 10
0.796358
 20
0.846441
 10
0.78526
 20
0.85813
 10
0.774024
 20
0.868326
 10
0.762656
 20
0.877094
 10
0.751165
 20
0.884498
 10
0.739559
 20
0.890604
 10
0.727846
 20
0.895476
 10
0.716033
 20
0.899179
 10
0.704129
 20
0.901777
 10
0.69214
 20
0.903336
 10
0.680076
 20
0.903921
 10
0.667944
 20
0.903595
 10
0.655752
 20
0.902424
 10
0.643507
 20
0.900472
 10
0.631218
 20
0.897805
 10
0.618892
 20
0.894486
 10
0.607141
 20
0.890782
 10
0.59537
 20
0.886603
 10
0.583586
 20
0.882006
 10
0.571796
 20
0.877044
 10
0.548225
 20
0.866255
 10
0.524712
 20
0.854681
 10
0.478076
 20
0.830963
 10
0.455062
 20
0.819711
 10
0.432323
 20
0.809458
 10
0.434551
 20
0.816962
 10
0.436481
 20
0.824518
 10
0.438109
 20
0.83211
 10
0.439432
 20
0.839722
 10
0.440447
 20
0.847338
 10
0.441151
 20
0.854942
 10
0.441541
 20
0.862518
 10
0.441612
 20
0.870051
 10
0.441363
 20
0.877524
 10
0.44079
 20
0.884921
 10
0.43989
 20
0.892227
 10
0.438659
 20
0.899425
 10
0.437095
 20
0.906499
 10
0.435194
 20
0.913435
 10
0.432953
 20
0.920214
 10
0.430368
 20
0.926823
 10
0.427437
 20
0.933244
 10
0.424157
 20
0.939462
 10
0.420523
 20
0.945461
 10
0.416534
 20
0.951225
 10
0.412185
 20
0.956738
 10
0.407474
 20
0.961984
 10
0.402397
 20
0.966947
 10
0.396952
 20
0.971611
 10
0.391134
 20
0.97596
 10
0.384942
 20
0.979978
 10
0.37837
 20
0.98365
 10
0.371417
 20
0.986959
 10
0.36408
 20
0.98989
 10
0.356354
 20
0.992426
 10
0.348237
 20
0.994551
 10
0.339726
 20
0.99625
 10
0.320987
 20
0.998673
 10
0.302167
 20
1.000071
 10
0.283312
 20
1.00046
 10
0.264467
 20
0.999856
 10
0.245679
 20
0.998274
 10
0.226994
 20
0.995732
 10
0.208458
 20
0.992243
 10
0.190116
 20
0.987825
 10
0.172016
 20
0.982492
 10
0.154203
 20
0.976261
 10
0.136723
 20
0.969147
 10
0.119622
 20
0.961166
 10
0.102947
 20
0.952334
 10
0.086743
 20
0.942667
 10
0.071057
 20
0.93218
 10
0.055934
 20
0.920889
 10
0.047946
 20
0.913698
 10
0.040449
 20
0.907681
 10
0.033477
 20
0.902841
 10
0.027065
 20
0.899179
 10
0.021246
 20
0.8967
 10
0.016056
 20
0.895406
 10
0.011528
 20
0.895301
 10
0.009524
 20
0.895695
 10
0.007698
 20
0.896387
 10
0.006055
 20
0.897378
 10
0.0046
 20
0.898668
 10
0.003336
 20
0.900257
 10
0.002267
 20
0.902146
 10
0.000736
 20
0.906825
 10
0.00004
 20
0.912707
 10
0.000213
 20
0.919796
 10
0.00129
 20
0.928095
 10
0.003306
 20
0.937606
 10
0.006295
 20
0.948333
 10
0.009003
 20
0.963669
 10
0.01285
 20
0.981575
 10
0.01779
 20
1.001821
 10
0.023774
 20
1.024178
 10
0.030756
 20
1.048417
 10
0.038689
 20
1.074307
 10
0.047526
 20
1.10162
 10
0.057219
 20
1.130125
 10
0.067721
 20
1.159593
 10
0.078985
 20
1.189794
 10
0.090965
 20
1.220499
 10
0.103612
 20
1.251478
 10
0.116879
 20
1.282501
 10
0.13072
 20
1.313339
 10
0.145088
 20
1.343763
 10
0.159934
 20
1.373542
 10
0.171551
 20
1.395677
 10
0.183398
 20
1.417201
 10
0.195454
 20
1.438013
 10
0.207698
 20
1.45801
 10
0.22011
 20
1.477092
 10
0.232669
 20
1.495156
 10
0.245353
 20
1.5121
 10
0.258142
 20
1.527823
 10
0.271016
 20
1.542222
 10
0.283952
 20
1.555197
 10
0.290437
 20
1.561118
 10
0.29693
 20
1.566645
 10
0.303429
 20
1.571764
 10
0.30993
 20
1.576464
 10
0.316432
 20
1.58073
 10
0.322931
 20
1.584552
 10
0.329424
 20
1.587916
 10
0.33591
 20
1.590808
 10
0.342386
 20
1.593217
 10
0.348849
 20
1.59513
 10
0.355297
 20
1.596534
 10
0.361726
 20
1.597417
 10
0.363082
 20
1.596253
 10
0.364173
 20
1.594654
 10
0.364983
 20
1.5926
 10
0.365495
 20
1.590068
 10
0.365694
 20
1.587038
 10
0.365564
 20
1.583489
 10
0.364254
 20
1.57475
 10
0.362448
 20
1.568458
 10
0.361053
 20
1.562161
 10
0.359118
 20
1.549519
 10
0.357699
 20
1.53676
 10
0.356045
 20
1.523819
 10
0.356026
 20
1.511287
 10
0.356612
 20
1.498947
 10
0.357787
 20
1.486801
 10
0.359531
 20
1.474848
 10
0.361828
 20
1.463091
 10
0.364659
 20
1.451529
 10
0.368006
 20
1.440163
 10
0.371851
 20
1.428994
 10
0.376177
 20
1.418022
 10
0.380966
 20
1.407249
 10
0.3862
 20
1.396674
 10
0.39186
 20
1.386298
 10
0.397929
 20
1.376122
 10
0.404389
 20
1.366147
 10
0.411223
 20
1.356373
 10
0.418412
 20
1.3468
 10
0.425938
 20
1.337431
 10
0.433783
 20
1.328264
 10
0.44193
 20
1.319301
 10
0.450361
 20
1.310543
 10
0.459057
 20
1.30199
 10
0.468002
 20
1.293643
 10
0.486563
 20
1.277567
 10
0.5059
 20
1.262323
 10
0.525872
 20
1.247914
 10
0.546333
 20
1.234347
 10
0.567142
 20
1.221625
 10
0.585135
 20
1.212081
 10
0.603469
 20
1.203191
 10
0.622119
 20
1.194933
 10
0.641057
 20
1.187286
 10
0.660257
 20
1.180228
 10
0.679692
 20
1.173739
 10
0.699335
 20
1.167797
 10
0.71916
 20
1.16238
 10
0.739139
 20
1.157468
 10
0.759246
 20
1.153039
 10
0.779454
 20
1.149072
 10
0.799736
 20
1.145545
 10
0.820066
 20
1.142437
 10
0.840417
 20
1.139728
 10
0.860761
 20
1.137395
 10
0.881073
 20
1.135417
 10
0.89926
 20
1.133387
 10
0.907931
 20
1.132742
 10
0.916165
 20
1.132932
 10
0.920083
 20
1.13348
 10
0.923848
 20
1.134402
 10
0.927447
 20
1.135755
 10
0.930864
 20
1.137594
 10
0.934086
 20
1.139975
 10
0.937098
 20
1.142952
 10
0.939885
 20
1.14658
 10
0.942434
 20
1.150917
 10
0.943508
 20
1.155707
 10
0.94413
 20
1.160887
 10
0.944341
 20
1.166406
 10
0.944185
 20
1.172218
 10
0.942942
 20
1.18452
 10
0.940745
 20
1.197403
 10
0.934862
 20
1.223345
 10
0.92928
 20
1.246918
 10
0.927459
 20
1.25684
 10
0.926743
 20
1.264998
 10
0.926907
 20
1.268293
 10
0.927475
 20
1.271001
 10
0.928492
 20
1.273072
 10
0.929999
 20
1.274458
 10
0.932039
 20
1.275109
 10
0.934656
 20
1.274978
 10
0.937892
 20
1.274015
 10
0.941791
 20
1.272172
 10
0.946394
 20
1.269398
 10
0.951746
 20
1.265647
 10
0.957888
 20
1.260868
 10
0.964865
 20
1.255014
 10
0.96976
 20
1.250659
 10
0.974632
 20
1.246788
 10
0.979477
 20
1.243387
 10
0.984289
 20
1.240443
 10
0.989067
 20
1.237943
 10
0.993805
 20
1.235873
 10
0.9985
 20
1.234219
 10
1.003148
 20
1.232969
 10
1.007745
 20
1.232108
 10
1.012287
 20
1.231623
 10
1.01677
 20
1.231501
 10
1.021191
 20
1.231729
 10
1.025545
 20
1.232292
 10
1.029829
 20
1.233177
 10
1.034039
 20
1.234371
 10
1.03817
 20
1.235861
 10
1.045501
 20
1.239299
 10
1.052537
 20
1.243594
 10
1.059253
 20
1.248665
 10
1.065625
 20
1.254429
 10
1.071632
 20
1.260804
 10
1.077249
 20
1.267708
 10
1.082452
 20
1.275059
 10
1.087219
 20
1.282776
 10
1.091525
 20
1.290776
 10
1.095348
 20
1.298976
 10
1.098663
 20
1.307296
 10
1.101448
 20
1.315652
 10
1.103678
 20
1.323963
 10
1.105331
 20
1.332147
 10
1.106382
 20
1.340122
 10
1.106809
 20
1.347806
 10
1.112907
 20
1.337261
 10
1.118441
 20
1.325572
 10
1.128509
 20
1.300128
 10
1.138397
 20
1.2742
 10
1.143706
 20
1.261906
 10
1.14949
 20
1.250514
 10
1.154959
 20
1.241719
 10
1.157906
 20
1.23773
 10
1.161013
 20
1.23405
 10
1.164293
 20
1.230705
 10
1.16776
 20
1.227722
 10
1.171427
 20
1.225128
 10
1.175309
 20
1.22295
 10
1.179419
 20
1.221214
 10
1.18377
 20
1.219947
 10
1.188376
 20
1.219177
 10
1.193251
 20
1.21893
 10
1.198409
 20
1.219233
 10
1.203862
 20
1.220112
 10
1.209625
 20
1.221595
 10
1.215712
 20
1.223708
 10
1.234978
 20
1.232596
 10
1.253705
 20
1.2422
 10
1.271905
 20
1.252496
 10
1.289588
 20
1.263458
 10
1.306767
 20
1.27506
 10
1.323453
 20
1.287278
 10
1.339656
 20
1.300085
 10
1.355389
 20
1.313457
 10
1.370662
 20
1.327367
 10
1.385488
 20
1.341791
 10
1.399877
 20
1.356703
 10
1.413841
 20
1.372077
 10
1.427391
 20
1.387889
 10
1.440538
 20
1.404113
 10
1.453294
 20
1.420723
 10
1.46567
 20
1.437694
 10
1.477411
 20
1.457632
 10
1.488087
 20
1.478033
 10
1.493011
 20
1.488398
 10
1.497651
 20
1.498867
 10
1.502002
 20
1.509436
 10
1.506058
 20
1.520101
 10
1.509813
 20
1.530859
 10
1.513261
 20
1.541705
 10
1.516396
 20
1.552635
 10
1.519212
 20
1.563646
 10
1.521705
 20
1.574734
 10
1.523867
 20
1.585894
 10
1.525694
 20
1.597123
 10
1.527179
 20
1.608417
 10
1.528316
 20
1.619771
 10
1.529101
 20
1.631183
 10
1.529526
 20
1.642648
 10
1.529586
 20
1.654161
 10
1.529276
 20
1.66572
 10
1.528589
 20
1.67732
 10
1.52752
 20
1.688957
 10
1.526063
 20
1.700628
 10
1.524212
 20
1.712328
 10
1.521961
 20
1.724054
 10
1.519305
 20
1.735801
 10
1.516238
 20
1.747566
 10
1.512753
 20
1.759344
 10
1.508846
 20
1.771132
 10
1.50451
 20
1.782926
 10
1.49974
 20
1.794722
 10
1.518192
 20
1.79704
 10
1.53663
 20
1.798531
 10
1.555045
 20
1.799216
 10
1.573431
 20
1.799118
 10
1.591781
 20
1.798259
 10
1.610089
 20
1.796662
 10
1.628348
 20
1.79435
 10
1.64655
 20
1.791344
 10
1.66469
 20
1.787667
 10
1.682761
 20
1.783342
 10
1.700756
 20
1.77839
 10
1.718667
 20
1.772836
 10
1.736489
 20
1.766699
 10
1.754215
 20
1.760004
 10
1.771838
 20
1.752773
 10
1.789351
 20
1.745028
 10
1.805279
 20
1.737506
 10
1.821104
 20
1.729588
 10
1.836821
 20
1.721294
 10
1.852424
 20
1.712638
 10
1.867909
 20
1.70364
 10
1.88327
 20
1.694315
 10
1.898503
 20
1.684681
 10
1.913601
 20
1.674755
 10
1.943374
 20
1.654098
 10
1.972548
 20
1.63248
 10
2.001082
 20
1.610038
 10
2.028934
 20
1.586911
 10
2.056063
 20
1.563237
 10
2.082427
 20
1.539151
 10
2.107985
 20
1.514793
 10
2.132694
 20
1.490299
 10
2.156515
 20
1.465808
 10
2.179405
 20
1.441456
 10
2.201322
 20
1.417382
 10
2.222226
 20
1.393722
 10
2.207165
 20
1.398464
 10
2.191891
 20
1.402896
 10
2.176442
 20
1.407001
 10
2.160858
 20
1.410761
 10
2.145178
 20
1.414158
 10
2.129442
 20
1.417174
 10
2.113689
 20
1.419791
 10
2.097958
 20
1.421991
 10
2.08229
 20
1.423757
 10
2.066724
 20
1.425071
 10
2.051299
 20
1.425915
 10
2.036054
 20
1.426271
 10
2.021029
 20
1.426121
 10
2.006264
 20
1.425448
 10
1.991798
 20
1.424233
 10
1.97767
 20
1.422458
 10
1.967494
 20
1.42078
 10
1.95754
 20
1.41878
 10
1.947822
 20
1.416453
 10
1.938357
 20
1.41379
 10
1.92916
 20
1.410786
 10
1.920248
 20
1.407431
 10
1.911635
 20
1.403721
 10
1.903339
 20
1.399646
 10
1.895374
 20
1.3952
 10
1.887756
 20
1.390376
 10
1.880501
 20
1.385166
 10
1.873625
 20
1.379564
 10
1.867144
 20
1.373562
 10
1.861073
 20
1.367152
 10
1.855429
 20
1.360329
 10
1.850226
 20
1.353083
 10
1.845147
 20
1.344822
 10
1.840616
 20
1.336057
 10
1.836654
 20
1.326781
 10
1.833278
 20
1.316983
 10
1.83051
 20
1.306656
 10
1.828369
 20
1.29579
 10
1.826873
 20
1.284376
 10
1.826043
 20
1.272406
 10
1.825899
 20
1.259871
 10
1.82646
 20
1.246761
 10
1.827745
 20
1.233068
 10
1.829775
 20
1.218783
 10
1.832568
 20
1.203896
 10
1.836144
 20
1.1884
 10
1.840524
 20
1.172285
 10
1.845726
 20
1.155542
 10
1.853208
 20
1.138384
 10
1.860768
 20
1.122393
 10
1.874863
 20
1.094686
 10
1.885497
 20
1.073965
 10
1.888731
 20
1.066708
 10
1.889689
 20
1.06394
 10
1.890156
 20
1.061778
 10
1.869987
 20
1.071235
 10
1.850436
 20
1.079833
 10
1.831502
 20
1.087567
 10
1.813184
 20
1.094431
 10
1.795827
 20
1.10056
 10
1.779189
 20
1.105606
 10
1.763261
 20
1.109595
 10
1.748031
 20
1.112553
 10
1.733487
 20
1.114505
 10
1.719619
 20
1.115478
 10
1.706415
 20
1.115497
 10
1.693865
 20
1.114589
 10
1.681956
 20
1.112778
 10
1.670678
 20
1.110091
 10
1.660019
 20
1.106555
 10
1.649969
 20
1.102194
 10
1.640516
 20
1.097035
 10
1.631649
 20
1.091104
 10
1.623357
 20
1.084426
 10
1.615629
 20
1.077028
 10
1.608
 20
1.068381
 10
1.600985
 20
1.058977
 10
1.59457
 20
1.048847
 10
1.588742
 20
1.038023
 10
1.583487
 20
1.026536
 10
1.578792
 20
1.014417
 10
1.574643
 20
1.001698
 10
1.571026
 20
0.98841
 10
1.567929
 20
0.974584
 10
1.565337
 20
0.960251
 10
1.563236
 20
0.945443
 10
1.561615
 20
0.930192
 10
1.560458
 20
0.914528
 10
1.559753
 20
0.898483
 10
1.559485
 20
0.882088
 10
1.559642
 20
0.865375
 10
1.550156
 20
0.874554
 10
1.540832
 20
0.883085
 10
1.531669
 20
0.890978
 10
1.522666
 20
0.898247
 10
1.513824
 20
0.904901
 10
1.50514
 20
0.910954
 10
1.496614
 20
0.916417
 10
1.488246
 20
0.921303
 10
1.480034
 20
0.925622
 10
1.471978
 20
0.929386
 10
1.464076
 20
0.932609
 10
1.456329
 20
0.9353
 10
1.448735
 20
0.937473
 10
1.441293
 20
0.939138
 10
1.434004
 20
0.940308
 10
1.426865
 20
0.940995
 10
1.419876
 20
0.94121
 10
1.413036
 20
0.940965
 10
1.406345
 20
0.940272
 10
1.399801
 20
0.939143
 10
1.393405
 20
0.93759
 10
1.387154
 20
0.935624
 10
1.381049
 20
0.933257
 10
1.375088
 20
0.930502
 10
1.36927
 20
0.927369
 10
1.363596
 20
0.923871
 10
1.358063
 20
0.92002
 10
1.352672
 20
0.915827
 10
1.347421
 20
0.911304
 10
1.34231
 20
0.906463
 10
1.332504
 20
0.895875
 10
1.326912
 20
0.889013
 10
1.321515
 20
0.881769
 10
1.31631
 20
0.874163
 10
1.311296
 20
0.866215
 10
1.306472
 20
0.857945
 10
1.301837
 20
0.849373
 10
1.293125
 20
0.831404
 10
1.285151
 20
0.812469
 10
1.277903
 20
0.792729
 10
1.271369
 20
0.772343
 10
1.26554
 20
0.751474
 10
1.260403
 20
0.730281
 10
1.255949
 20
0.708926
 10
1.252165
 20
0.687568
 10
1.249041
 20
0.666369
 10
1.246565
 20
0.64549
 10
1.244727
 20
0.62509
 10
1.243516
 20
0.605332
 10
1.24292
 20
0.586375
 10
1.243153
 20
0.576691
 10
1.24386
 20
0.566014
 10
1.246403
 20
0.542424
 10
1.253938
 20
0.491531
 10
1.257751
 20
0.467212
 10
1.260811
 20
0.445633
 10
1.261873
 20
0.436338
 10
1.262526
 20
0.428287
 10
1.262696
 20
0.421668
 10
1.262309
 20
0.416667
  0
LWPOLYLINE
  5
2B
330
1F
100
AcDbEntity
  8
0
100
AcDbPolyline
 90
       33
 70
   128
 43
0.0
 10
1.02374
 20
1.126347
 10
1.021296
 20
1.126026
 10
1.019027
 20
1.125159
 10
1.016951
 20
1.123813
 10
1.015083
 20
1.122052
 10
1.013441
 20
1.119944
 10
1.01204
 20
1.117554
 10
1.010898
 20
1.114949
 10
1.010031
 20
1.112194
 10
1.009461
 20
1.109356
 10
1.0092
 20
1.1065
 10
1.009264
 20
1.103692
 10
1.009672
 20
1.100997
 10
1.010439
 20
1.098479
 10
1.011584
 20
1.096206
 10
1.013123
 20
1.094242
 10
1.015073
 20
1.092653
 10
1.021131
 20
1.092159
 10
1.026403
 20
1.092241
 10
1.030898
 20
1.092848
 10
1.034628
 20
1.093931
 10
1.037605
 20
1.095443
 10
1.039838
 20
1.097334
 10
1.041339
 20
1.099555
 10
1.04212
 20
1.102057
 10
1.042191
 20
1.104792
 10
1.041563
 20
1.107711
 10
1.040247
 20
1.110765
 10
1.038255
 20
1.113905
 10
1.035597
 20
1.117082
 10
1.032284
 20
1.120247
 10
1.028328
 20
1.123352
 10
1.02374
 20
1.126347
  0
LWPOLYLINE
  5
2C
330
1F
100
AcDbEntity
  8
0
100
AcDbPolyline
 90
       27
 70
   128
 43
0.0
 10
1.121017
 20
1.141556
 10
1.119372
 20
1.142115
 10
1.117276
 20
1.142169
 10
1.114806
 20
1.141766
 10
1.112037
 20
1.140955
 10
1.105898
 20
1.138298
 10
1.099462
 20
1.134583
 10
1.093327
 20
1.130195
 10
1.08809
 20
1.125517
 10
1.085995
 20
1.123191
 10
1.084349
 20
1.120939
 10
1.083225
 20
1.118808
 10
1.082698
 20
1.116847
 10
1.086699
 20
1.114638
 10
1.090446
 20
1.113074
 10
1.093948
 20
1.112122
 10
1.097214
 20
1.111752
 10
1.10025
 20
1.111932
 10
1.103067
 20
1.11263
 10
1.105672
 20
1.113816
 10
1.108073
 20
1.115458
 10
1.110298
 20
1.117549
 10
1.112332
 20
1.120038
 10
1.114184
 20
1.122894
 10
1.115863
 20
1.126085
 10
1.118735
 20
1.133343
 10
1.121017
 20
1.141556
  0
ENDSEC
  0
SECTION
  2
OBJECTS
  0
DICTIONARY
  5
C
330
0
100
AcDbDictionary
281
     1
  3
ACAD_GROUP
350
D
  3
ACAD_LAYOUT
350
1A
  3
ACAD_MLINESTYLE
350
17
  3
ACAD_PLOTSETTINGS
350
19
  3
ACAD_PLOTSTYLENAME
350
E
  0
DICTIONARY
  5
D
102
{ACAD_REACTORS
330
C
102
}
330
C
100
AcDbDictionary
281
     1
  0
DICTIONARY
  5
1A
102
{ACAD_REACTORS
330
C
102
}
330
C
100
AcDbDictionary
281
     1
  3
Layout1
350
1E
  3
Layout2
350
26
  3
Model
350
22
  0
DICTIONARY
  5
17
102
{ACAD_REACTORS
330
C
102
}
330
C
100
AcDbDictionary
281
     1
  3
Standard
350
18
  0
DICTIONARY
  5
19
102
{ACAD_REACTORS
330
C
102
}
330
C
100
AcDbDictionary
281
     1
  0
ACDBDICTIONARYWDFLT
  5
E
102
{ACAD_REACTORS
330
C
102
}
330
C
100
AcDbDictionary
281
     1
  3
Normal
350
F
100
AcDbDictionaryWithDefault
340
F
  0
LAYOUT
  5
1E
102
{ACAD_REACTORS
330
1A
102
}
330
1A
100
AcDbPlotSettings
  1

  2

  4

  6

 40
0.0
 41
0.0
 42
0.0
 43
0.0
 44
0.0
 45
0.0
 46
0.0
 47
0.0
 48
0.0
 49
0.0
140
0.0
141
0.0
142
1.0
143
1.0
 70
   688
 72
     0
 73
     0
 74
     5
  7

 75
    16
147
1.0
148
0.0
149
0.0
100
AcDbLayout
  1
Layout1
 70
     1
 71
     1
 10
0.0
 20
0.0
 11
420.0
 21
297.0
 12
0.0
 22
0.0
 32
0.0
 14
1.000000E+20
 24
1.000000E+20
 34
1.000000E+20
 15
-1.000000E+20
 25
-1.000000E+20
 35
-1.000000E+20
146
0.0
 13
0.0
 23
0.0
 33
0.0
 16
1.0
 26
0.0
 36
0.0
 17
0.0
 27
1.0
 37
0.0
 76
     0
330
1B
  0
LAYOUT
  5
26
102
{ACAD_REACTORS
330
1A
102
}
330
1A
100
AcDbPlotSettings
  1

  2

  4

  6

 40
0.0
 41
0.0
 42
0.0
 43
0.0
 44
0.0
 45
0.0
 46
0.0
 47
0.0
 48
0.0
 49
0.0
140
0.0
141
0.0
142
1.0
143
1.0
 70
   688
 72
     0
 73
     0
 74
     5
  7

 75
    16
147
1.0
148
0.0
149
0.0
100
AcDbLayout
  1
Layout2
 70
     1
 71
     2
 10
0.0
 20
0.0
 11
0.0
 21
0.0
 12
0.0
 22
0.0
 32
0.0
 14
0.0
 24
0.0
 34
0.0
 15
0.0
 25
0.0
 35
0.0
146
0.0
 13
0.0
 23
0.0
 33
0.0
 16
1.0
 26
0.0
 36
0.0
 17
0.0
 27
1.0
 37
0.0
 76
     0
330
23
  0
LAYOUT
  5
22
102
{ACAD_REACTORS
330
1A
102
}
330
1A
100
AcDbPlotSettings
  1

  2

  4

  6

 40
0.0
 41
0.0
 42
0.0
 43
0.0
 44
0.0
 45
0.0
 46
0.0
 47
0.0
 48
0.0
 49
0.0
140
0.0
141
0.0
142
1.0
143
1.0
 70
  1712
 72
     0
 73
     0
 74
     0
  7

 75
     0
147
1.0
148
0.0
149
0.0
100
AcDbLayout
  1
Model
 70
     1
 71
     0
 10
0.0
 20
0.0
 11
0.0
 21
0.0
 12
0.0
 22
0.0
 32
0.0
 14
0.0
 24
0.0
 34
0.0
 15
0.0
 25
0.0
 35
0.0
146
0.0
 13
0.0
 23
0.0
 33
0.0
 16
1.0
 26
0.0
 36
0.0
 17
0.0
 27
1.0
 37
0.0
 76
     0
330
1F
  0
MLINESTYLE
  5
18
102
{ACAD_REACTORS
330
17
102
}
330
17
100
AcDbMlineStyle
  2
Standard
 70
     0
  3

 62
   256
 51
90.0
 52
90.0
 71
     2
 49
1.0
 62
   256
  6
BYLAYER
 49
-1.0
 62
   256
  6
BYLAYER
  0
ACDBPLACEHOLDER
  5
F
102
{ACAD_REACTORS
330
E
102
}
330
E
  0
ENDSEC
  0
EOF
