  0
SECTION
  2
HEADER
  9
$ACADVER
  1
AC1009
  9
$EXTMIN
 10
0.0
 20
0.0
 30
0.0
  9
$EXTMAX
 10
1000.0
 20
1000.0
 30
0.0
  9
$FILLMODE
 70
 0
  9
$SPLFRAME
 70
 1
  0
ENDSEC
  0
SECTION
  2
TABLES
  0
TABLE
  2
LAYER
 70
1
  0
LAYER
  2
0
 70
     0
 62
     7
  6
CONTINUOUS
  0
ENDTAB
  0
ENDSEC
  0
SECTION
  2
ENTITIES
  0
LINE
  8
0
 62
     0
 10
35.0752
 20
69.5332
 30
0.0
 11
34.8754
 21
68.4925
 31
0.0
  0
LINE
  8
0
 62
     0
 10
34.8754
 20
68.4925
 30
0.0
 11
34.3435
 21
67.491
 31
0.0
  0
LINE
  8
0
 62
     0
 10
34.3435
 20
67.491
 30
0.0
 11
33.4519
 21
66.4916
 31
0.0
  0
LINE
  8
0
 62
     0
 10
33.4519
 20
66.4916
 30
0.0
 11
32.1731
 21
65.4554
 31
0.0
  0
LINE
  8
0
 62
     0
 10
32.1731
 20
65.4554
 30
0.0
 11
30.3706
 21
63.784
 31
0.0
  0
LINE
  8
0
 62
     0
 10
30.3706
 20
63.784
 30
0.0
 11
29.2847
 21
61.9333
 31
0.0
  0
LINE
  8
0
 62
     0
 10
29.2847
 20
61.9333
 30
0.0
 11
28.9609
 21
60.0329
 31
0.0
  0
LINE
  8
0
 62
     0
 10
28.9609
 20
60.0329
 30
0.0
 11
29.4487
 21
58.2083
 31
0.0
  0
LINE
  8
0
 62
     0
 10
29.4487
 20
58.2083
 30
0.0
 11
29.7767
 21
57.3126
 31
0.0
  0
LINE
  8
0
 62
     0
 10
29.7767
 20
57.3126
 30
0.0
 11
29.7229
 21
56.6484
 31
0.0
  0
LINE
  8
0
 62
     0
 10
29.7229
 20
56.6484
 30
0.0
 11
29.2957
 21
56.2349
 31
0.0
  0
LINE
  8
0
 62
     0
 10
29.2957
 20
56.2349
 30
0.0
 11
28.5047
 21
56.0917
 31
0.0
  0
LINE
  8
0
 62
     0
 10
28.5047
 20
56.0917
 30
0.0
 11
26.5782
 21
56.5079
 31
0.0
  0
LINE
  8
0
 62
     0
 10
26.5782
 20
56.5079
 30
0.0
 11
24.8254
 21
57.6488
 31
0.0
  0
LINE
  8
0
 62
     0
 10
24.8254
 20
57.6488
 30
0.0
 11
23.4267
 21
59.352
 31
0.0
  0
LINE
  8
0
 62
     0
 10
23.4267
 20
59.352
 30
0.0
 11
22.5612
 21
61.4535
 31
0.0
  0
LINE
  8
0
 62
     0
 10
22.5612
 20
61.4535
 30
0.0
 11
22.0514
 21
62.9211
 31
0.0
  0
LINE
  8
0
 62
     0
 10
22.0514
 20
62.9211
 30
0.0
 11
21.3017
 21
64.1255
 31
0.0
  0
LINE
  8
0
 62
     0
 10
21.3017
 20
64.1255
 30
0.0
 11
20.3385
 21
65.0353
 31
0.0
  0
LINE
  8
0
 62
     0
 10
20.3385
 20
65.0353
 30
0.0
 11
19.1905
 21
65.6153
 31
0.0
  0
LINE
  8
0
 62
     0
 10
19.1905
 20
65.6153
 30
0.0
 11
18.2962
 21
65.8566
 31
0.0
  0
LINE
  8
0
 62
     0
 10
18.2962
 20
65.8566
 30
0.0
 11
17.8167
 21
65.8372
 31
0.0
  0
LINE
  8
0
 62
     0
 10
17.8167
 20
65.8372
 30
0.0
 11
17.7147
 21
65.5408
 31
0.0
  0
LINE
  8
0
 62
     0
 10
17.7147
 20
65.5408
 30
0.0
 11
17.96
 21
64.9471
 31
0.0
  0
LINE
  8
0
 62
     0
 10
17.96
 20
64.9471
 30
0.0
 11
18.27
 21
64.0387
 31
0.0
  0
LINE
  8
0
 62
     0
 10
18.27
 20
64.0387
 30
0.0
 11
18.2948
 21
62.9267
 31
0.0
  0
LINE
  8
0
 62
     0
 10
18.2948
 20
62.9267
 30
0.0
 11
18.0289
 21
61.5474
 31
0.0
  0
LINE
  8
0
 62
     0
 10
18.0289
 20
61.5474
 30
0.0
 11
17.4666
 21
59.8318
 31
0.0
  0
LINE
  8
0
 62
     0
 10
17.4666
 20
59.8318
 30
0.0
 11
16.7487
 21
57.2174
 31
0.0
  0
LINE
  8
0
 62
     0
 10
16.7487
 20
57.2174
 30
0.0
 11
16.717
 21
55.0527
 31
0.0
  0
LINE
  8
0
 62
     0
 10
16.717
 20
55.0527
 30
0.0
 11
17.3674
 21
53.359
 31
0.0
  0
LINE
  8
0
 62
     0
 10
17.3674
 20
53.359
 30
0.0
 11
18.6972
 21
52.1575
 31
0.0
  0
LINE
  8
0
 62
     0
 10
18.6972
 20
52.1575
 30
0.0
 11
19.513
 21
51.4904
 31
0.0
  0
LINE
  8
0
 62
     0
 10
19.513
 20
51.4904
 30
0.0
 11
19.7597
 21
50.7905
 31
0.0
  0
LINE
  8
0
 62
     0
 10
19.7597
 20
50.7905
 30
0.0
 11
19.44
 21
50.1248
 31
0.0
  0
LINE
  8
0
 62
     0
 10
19.44
 20
50.1248
 30
0.0
 11
18.5567
 21
49.5639
 31
0.0
  0
LINE
  8
0
 62
     0
 10
18.5567
 20
49.5639
 30
0.0
 11
14.7629
 21
49.2841
 31
0.0
  0
LINE
  8
0
 62
     0
 10
14.7629
 20
49.2841
 30
0.0
 11
11.0064
 21
51.616
 31
0.0
  0
LINE
  8
0
 62
     0
 10
11.0064
 20
51.616
 30
0.0
 11
10.1479
 21
52.3946
 31
0.0
  0
LINE
  8
0
 62
     0
 10
10.1479
 20
52.3946
 30
0.0
 11
9.41613
 21
52.8507
 31
0.0
  0
LINE
  8
0
 62
     0
 10
9.41613
 20
52.8507
 30
0.0
 11
8.57003
 21
53.0888
 31
0.0
  0
LINE
  8
0
 62
     0
 10
8.57003
 20
53.0888
 30
0.0
 11
7.37249
 21
53.2158
 31
0.0
  0
LINE
  8
0
 62
     0
 10
7.37249
 20
53.2158
 30
0.0
 11
5.82771
 21
53.2419
 31
0.0
  0
LINE
  8
0
 62
     0
 10
5.82771
 20
53.2419
 30
0.0
 11
4.96919
 21
53.0518
 31
0.0
  0
LINE
  8
0
 62
     0
 10
4.96919
 20
53.0518
 30
0.0
 11
4.82727
 21
52.6644
 31
0.0
  0
LINE
  8
0
 62
     0
 10
4.82727
 20
52.6644
 30
0.0
 11
5.43221
 21
52.0954
 31
0.0
  0
LINE
  8
0
 62
     0
 10
5.43221
 20
52.0954
 30
0.0
 11
6.22184
 21
51.3994
 31
0.0
  0
LINE
  8
0
 62
     0
 10
6.22184
 20
51.3994
 30
0.0
 11
6.82544
 21
50.4567
 31
0.0
  0
LINE
  8
0
 62
     0
 10
6.82544
 20
50.4567
 30
0.0
 11
7.26087
 21
49.2263
 31
0.0
  0
LINE
  8
0
 62
     0
 10
7.26087
 20
49.2263
 30
0.0
 11
7.55167
 21
47.661
 31
0.0
  0
LINE
  8
0
 62
     0
 10
7.55167
 20
47.661
 30
0.0
 11
8.12493
 21
45.0963
 31
0.0
  0
LINE
  8
0
 62
     0
 10
8.12493
 20
45.0963
 30
0.0
 11
9.0799
 21
43.2029
 31
0.0
  0
LINE
  8
0
 62
     0
 10
9.0799
 20
43.2029
 30
0.0
 11
10.3821
 21
42.0303
 31
0.0
  0
LINE
  8
0
 62
     0
 10
10.3821
 20
42.0303
 30
0.0
 11
11.9944
 21
41.6278
 31
0.0
  0
LINE
  8
0
 62
     0
 10
11.9944
 20
41.6278
 30
0.0
 11
13.1162
 21
41.4736
 31
0.0
  0
LINE
  8
0
 62
     0
 10
13.1162
 20
41.4736
 30
0.0
 11
13.7735
 21
41.0573
 31
0.0
  0
LINE
  8
0
 62
     0
 10
13.7735
 20
41.0573
 30
0.0
 11
14.0009
 21
40.4495
 31
0.0
  0
LINE
  8
0
 62
     0
 10
14.0009
 20
40.4495
 30
0.0
 11
13.8314
 21
39.7221
 31
0.0
  0
LINE
  8
0
 62
     0
 10
13.8314
 20
39.7221
 30
0.0
 11
13.2967
 21
38.946
 31
0.0
  0
LINE
  8
0
 62
     0
 10
13.2967
 20
38.946
 30
0.0
 11
12.4313
 21
38.1924
 31
0.0
  0
LINE
  8
0
 62
     0
 10
12.4313
 20
38.1924
 30
0.0
 11
11.2682
 21
37.5324
 31
0.0
  0
LINE
  8
0
 62
     0
 10
11.2682
 20
37.5324
 30
0.0
 11
9.84194
 21
37.036
 31
0.0
  0
LINE
  8
0
 62
     0
 10
9.84194
 20
37.036
 30
0.0
 11
8.92694
 21
36.8501
 31
0.0
  0
LINE
  8
0
 62
     0
 10
8.92694
 20
36.8501
 30
0.0
 11
8.12214
 21
36.8102
 31
0.0
  0
LINE
  8
0
 62
     0
 10
8.12214
 20
36.8102
 30
0.0
 11
7.26916
 21
36.9245
 31
0.0
  0
LINE
  8
0
 62
     0
 10
7.26916
 20
36.9245
 30
0.0
 11
6.20945
 21
37.1987
 31
0.0
  0
LINE
  8
0
 62
     0
 10
6.20945
 20
37.1987
 30
0.0
 11
4.59299
 21
37.5186
 31
0.0
  0
LINE
  8
0
 62
     0
 10
4.59299
 20
37.5186
 30
0.0
 11
3.14331
 21
37.4798
 31
0.0
  0
LINE
  8
0
 62
     0
 10
3.14331
 20
37.4798
 30
0.0
 11
1.86586
 21
37.0858
 31
0.0
  0
LINE
  8
0
 62
     0
 10
1.86586
 20
37.0858
 30
0.0
 11
0.775836
 21
36.3361
 31
0.0
  0
LINE
  8
0
 62
     0
 10
0.775836
 20
36.3361
 30
0.0
 11
0.183279
 21
35.6898
 31
0.0
  0
LINE
  8
0
 62
     0
 10
0.183279
 20
35.6898
 30
0.0
 11
0.0413413
 21
35.2516
 31
0.0
  0
LINE
  8
0
 62
     0
 10
0.0413413
 20
35.2516
 30
0.0
 11
0.354157
 21
35.0036
 31
0.0
  0
LINE
  8
0
 62
     0
 10
0.354157
 20
35.0036
 30
0.0
 11
1.12861
 21
34.925
 31
0.0
  0
LINE
  8
0
 62
     0
 10
1.12861
 20
34.925
 30
0.0
 11
1.80661
 21
34.8175
 31
0.0
  0
LINE
  8
0
 62
     0
 10
1.80661
 20
34.8175
 30
0.0
 11
2.54661
 21
34.4055
 31
0.0
  0
LINE
  8
0
 62
     0
 10
2.54661
 20
34.4055
 30
0.0
 11
3.52778
 21
33.5566
 31
0.0
  0
LINE
  8
0
 62
     0
 10
3.52778
 20
33.5566
 30
0.0
 11
4.93201
 21
32.1386
 31
0.0
  0
LINE
  8
0
 62
     0
 10
4.93201
 20
32.1386
 30
0.0
 11
7.04868
 21
30.106
 31
0.0
  0
LINE
  8
0
 62
     0
 10
7.04868
 20
30.106
 30
0.0
 11
8.71746
 21
29.005
 31
0.0
  0
LINE
  8
0
 62
     0
 10
8.71746
 20
29.005
 30
0.0
 11
10.2237
 21
28.71
 31
0.0
  0
LINE
  8
0
 62
     0
 10
10.2237
 20
28.71
 30
0.0
 11
11.8539
 21
29.0945
 31
0.0
  0
LINE
  8
0
 62
     0
 10
11.8539
 20
29.0945
 30
0.0
 11
13.079
 21
29.4666
 31
0.0
  0
LINE
  8
0
 62
     0
 10
13.079
 20
29.4666
 30
0.0
 11
13.8865
 21
29.4583
 31
0.0
  0
LINE
  8
0
 62
     0
 10
13.8865
 20
29.4583
 30
0.0
 11
14.3288
 21
29.0491
 31
0.0
  0
LINE
  8
0
 62
     0
 10
14.3288
 20
29.0491
 30
0.0
 11
14.4639
 21
28.2222
 31
0.0
  0
LINE
  8
0
 62
     0
 10
14.4639
 20
28.2222
 30
0.0
 11
14.0518
 21
26.4349
 31
0.0
  0
LINE
  8
0
 62
     0
 10
14.0518
 20
26.4349
 30
0.0
 11
12.9246
 21
24.7578
 31
0.0
  0
LINE
  8
0
 62
     0
 10
12.9246
 20
24.7578
 30
0.0
 11
11.2338
 21
23.3619
 31
0.0
  0
LINE
  8
0
 62
     0
 10
11.2338
 20
23.3619
 30
0.0
 11
9.13638
 21
22.4138
 31
0.0
  0
LINE
  8
0
 62
     0
 10
9.13638
 20
22.4138
 30
0.0
 11
7.60952
 21
21.8833
 31
0.0
  0
LINE
  8
0
 62
     0
 10
7.60952
 20
21.8833
 30
0.0
 11
6.52639
 21
21.3679
 31
0.0
  0
LINE
  8
0
 62
     0
 10
6.52639
 20
21.3679
 30
0.0
 11
5.88285
 21
20.7271
 31
0.0
  0
LINE
  8
0
 62
     0
 10
5.88285
 20
20.7271
 30
0.0
 11
5.25307
 21
19.7528
 31
0.0
  0
LINE
  8
0
 62
     0
 10
5.25307
 20
19.7528
 30
0.0
 11
4.77492
 21
18.6986
 31
0.0
  0
LINE
  8
0
 62
     0
 10
4.77492
 20
18.6986
 30
0.0
 11
4.58611
 21
17.8153
 31
0.0
  0
LINE
  8
0
 62
     0
 10
4.58611
 20
17.8153
 30
0.0
 11
4.61641
 21
17.53
 31
0.0
  0
LINE
  8
0
 62
     0
 10
4.61641
 20
17.53
 30
0.0
 11
4.75287
 21
17.4308
 31
0.0
  0
LINE
  8
0
 62
     0
 10
4.75287
 20
17.4308
 30
0.0
 11
5.06155
 21
17.5162
 31
0.0
  0
LINE
  8
0
 62
     0
 10
5.06155
 20
17.5162
 30
0.0
 11
5.6086
 21
17.7822
 31
0.0
  0
LINE
  8
0
 62
     0
 10
5.6086
 20
17.7822
 30
0.0
 11
6.58978
 21
18.1901
 31
0.0
  0
LINE
  8
0
 62
     0
 10
6.58978
 20
18.1901
 30
0.0
 11
7.53925
 21
18.2797
 31
0.0
  0
LINE
  8
0
 62
     0
 10
7.53925
 20
18.2797
 30
0.0
 11
8.69678
 21
18.0371
 31
0.0
  0
LINE
  8
0
 62
     0
 10
8.69678
 20
18.0371
 30
0.0
 11
10.3008
 21
17.4446
 31
0.0
  0
LINE
  8
0
 62
     0
 10
10.3008
 20
17.4446
 30
0.0
 11
12.0633
 21
16.8837
 31
0.0
  0
LINE
  8
0
 62
     0
 10
12.0633
 20
16.8837
 30
0.0
 11
13.8135
 21
16.6067
 31
0.0
  0
LINE
  8
0
 62
     0
 10
13.8135
 20
16.6067
 30
0.0
 11
15.3927
 21
16.6233
 31
0.0
  0
LINE
  8
0
 62
     0
 10
15.3927
 20
16.6233
 30
0.0
 11
16.6508
 21
16.9471
 31
0.0
  0
LINE
  8
0
 62
     0
 10
16.6508
 20
16.9471
 30
0.0
 11
17.4611
 21
17.5769
 31
0.0
  0
LINE
  8
0
 62
     0
 10
17.4611
 20
17.5769
 30
0.0
 11
18.27
 21
18.5567
 31
0.0
  0
LINE
  8
0
 62
     0
 10
18.27
 20
18.5567
 30
0.0
 11
18.7923
 21
19.2002
 31
0.0
  0
LINE
  8
0
 62
     0
 10
18.7923
 20
19.2002
 30
0.0
 11
19.3063
 21
19.5419
 31
0.0
  0
LINE
  8
0
 62
     0
 10
19.3063
 20
19.5419
 30
0.0
 11
19.7914
 21
19.5971
 31
0.0
  0
LINE
  8
0
 62
     0
 10
19.7914
 20
19.5971
 30
0.0
 11
20.231
 21
19.3821
 31
0.0
  0
LINE
  8
0
 62
     0
 10
20.231
 20
19.3821
 30
0.0
 11
20.6044
 21
18.9122
 31
0.0
  0
LINE
  8
0
 62
     0
 10
20.6044
 20
18.9122
 30
0.0
 11
20.8966
 21
18.2011
 31
0.0
  0
LINE
  8
0
 62
     0
 10
20.8966
 20
18.2011
 30
0.0
 11
21.0854
 21
17.2668
 31
0.0
  0
LINE
  8
0
 62
     0
 10
21.0854
 20
17.2668
 30
0.0
 11
21.157
 21
16.1217
 31
0.0
  0
LINE
  8
0
 62
     0
 10
21.157
 20
16.1217
 30
0.0
 11
21.0247
 21
14.683
 31
0.0
  0
LINE
  8
0
 62
     0
 10
21.0247
 20
14.683
 30
0.0
 11
20.5893
 21
13.367
 31
0.0
  0
LINE
  8
0
 62
     0
 10
20.5893
 20
13.367
 30
0.0
 11
19.801
 21
12.0702
 31
0.0
  0
LINE
  8
0
 62
     0
 10
19.801
 20
12.0702
 30
0.0
 11
18.6118
 21
10.6894
 31
0.0
  0
LINE
  8
0
 62
     0
 10
18.6118
 20
10.6894
 30
0.0
 11
17.858
 21
9.8516
 31
0.0
  0
LINE
  8
0
 62
     0
 10
17.858
 20
9.8516
 30
0.0
 11
17.406
 21
9.14054
 31
0.0
  0
LINE
  8
0
 62
     0
 10
17.406
 20
9.14054
 30
0.0
 11
17.1649
 21
8.36605
 31
0.0
  0
LINE
  8
0
 62
     0
 10
17.1649
 20
8.36605
 30
0.0
 11
17.0463
 21
7.33806
 31
0.0
  0
LINE
  8
0
 62
     0
 10
17.0463
 20
7.33806
 30
0.0
 11
17.0215
 21
5.75331
 31
0.0
  0
LINE
  8
0
 62
     0
 10
17.0215
 20
5.75331
 30
0.0
 11
17.2709
 21
4.99403
 31
0.0
  0
LINE
  8
0
 62
     0
 10
17.2709
 20
4.99403
 30
0.0
 11
17.8373
 21
5.01883
 31
0.0
  0
LINE
  8
0
 62
     0
 10
17.8373
 20
5.01883
 30
0.0
 11
18.7675
 21
5.78499
 31
0.0
  0
LINE
  8
0
 62
     0
 10
18.7675
 20
5.78499
 30
0.0
 11
19.4262
 21
6.37067
 31
0.0
  0
LINE
  8
0
 62
     0
 10
19.4262
 20
6.37067
 30
0.0
 11
20.0877
 21
6.78134
 31
0.0
  0
LINE
  8
0
 62
     0
 10
20.0877
 20
6.78134
 30
0.0
 11
20.8304
 21
7.05556
 31
0.0
  0
LINE
  8
0
 62
     0
 10
20.8304
 20
7.05556
 30
0.0
 11
21.7317
 21
7.23057
 31
0.0
  0
LINE
  8
0
 62
     0
 10
21.7317
 20
7.23057
 30
0.0
 11
24.7399
 21
7.86447
 31
0.0
  0
LINE
  8
0
 62
     0
 10
24.7399
 20
7.86447
 30
0.0
 11
26.8828
 21
8.8277
 31
0.0
  0
LINE
  8
0
 62
     0
 10
26.8828
 20
8.8277
 30
0.0
 11
28.2236
 21
10.1658
 31
0.0
  0
LINE
  8
0
 62
     0
 10
28.2236
 20
10.1658
 30
0.0
 11
28.8341
 21
11.9242
 31
0.0
  0
LINE
  8
0
 62
     0
 10
28.8341
 20
11.9242
 30
0.0
 11
29.1207
 21
13.0927
 31
0.0
  0
LINE
  8
0
 62
     0
 10
29.1207
 20
13.0927
 30
0.0
 11
29.5272
 21
13.8217
 31
0.0
  0
LINE
  8
0
 62
     0
 10
29.5272
 20
13.8217
 30
0.0
 11
30.1859
 21
14.0147
 31
0.0
  0
LINE
  8
0
 62
     0
 10
30.1859
 20
14.0147
 30
0.0
 11
30.9921
 21
13.6936
 31
0.0
  0
LINE
  8
0
 62
     0
 10
30.9921
 20
13.6936
 30
0.0
 11
31.8575
 21
12.9191
 31
0.0
  0
LINE
  8
0
 62
     0
 10
31.8575
 20
12.9191
 30
0.0
 11
32.694
 21
11.7478
 31
0.0
  0
LINE
  8
0
 62
     0
 10
32.694
 20
11.7478
 30
0.0
 11
33.2231
 21
10.5613
 31
0.0
  0
LINE
  8
0
 62
     0
 10
33.2231
 20
10.5613
 30
0.0
 11
33.4395
 21
9.16534
 31
0.0
  0
LINE
  8
0
 62
     0
 10
33.4395
 20
9.16534
 30
0.0
 11
33.3527
 21
7.27054
 31
0.0
  0
LINE
  8
0
 62
     0
 10
33.3527
 20
7.27054
 30
0.0
 11
32.9751
 21
4.58611
 31
0.0
  0
LINE
  8
0
 62
     0
 10
32.9751
 20
4.58611
 30
0.0
 11
32.9503
 21
3.96462
 31
0.0
  0
LINE
  8
0
 62
     0
 10
32.9503
 20
3.96462
 30
0.0
 11
33.0495
 21
3.26595
 31
0.0
  0
LINE
  8
0
 62
     0
 10
33.0495
 20
3.26595
 30
0.0
 11
33.2521
 21
2.53697
 31
0.0
  0
LINE
  8
0
 62
     0
 10
33.2521
 20
2.53697
 30
0.0
 11
33.5373
 21
1.82452
 31
0.0
  0
LINE
  8
0
 62
     0
 10
33.5373
 20
1.82452
 30
0.0
 11
33.8818
 21
1.17271
 31
0.0
  0
LINE
  8
0
 62
     0
 10
33.8818
 20
1.17271
 30
0.0
 11
34.2649
 21
0.631141
 31
0.0
  0
LINE
  8
0
 62
     0
 10
34.2649
 20
0.631141
 30
0.0
 11
34.6673
 21
0.242535
 31
0.0
  0
LINE
  8
0
 62
     0
 10
34.6673
 20
0.242535
 30
0.0
 11
35.0655
 21
0.0537436
 31
0.0
  0
LINE
  8
0
 62
     0
 10
35.0655
 20
0.0537436
 30
0.0
 11
35.5244
 21
0.0799264
 31
0.0
  0
LINE
  8
0
 62
     0
 10
35.5244
 20
0.0799264
 30
0.0
 11
35.5424
 21
0.423058
 31
0.0
  0
LINE
  8
0
 62
     0
 10
35.5424
 20
0.423058
 30
0.0
 11
35.5286
 21
1.25264
 31
0.0
  0
LINE
  8
0
 62
     0
 10
35.5286
 20
1.25264
 30
0.0
 11
36.0204
 21
2.3027
 31
0.0
  0
LINE
  8
0
 62
     0
 10
36.0204
 20
2.3027
 30
0.0
 11
36.9933
 21
3.53466
 31
0.0
  0
LINE
  8
0
 62
     0
 10
36.9933
 20
3.53466
 30
0.0
 11
38.4168
 21
4.90167
 31
0.0
  0
LINE
  8
0
 62
     0
 10
38.4168
 20
4.90167
 30
0.0
 11
40.0967
 21
6.4878
 31
0.0
  0
LINE
  8
0
 62
     0
 10
40.0967
 20
6.4878
 30
0.0
 11
41.0891
 21
7.81071
 31
0.0
  0
LINE
  8
0
 62
     0
 10
41.0891
 20
7.81071
 30
0.0
 11
41.5121
 21
9.09228
 31
0.0
  0
LINE
  8
0
 62
     0
 10
41.5121
 20
9.09228
 30
0.0
 11
41.486
 21
10.5475
 31
0.0
  0
LINE
  8
0
 62
     0
 10
41.486
 20
10.5475
 30
0.0
 11
41.3219
 21
11.8029
 31
0.0
  0
LINE
  8
0
 62
     0
 10
41.3219
 20
11.8029
 30
0.0
 11
41.2143
 21
12.74
 31
0.0
  0
LINE
  8
0
 62
     0
 10
41.2143
 20
12.74
 30
0.0
 11
41.1773
 21
13.4042
 31
0.0
  0
LINE
  8
0
 62
     0
 10
41.1773
 20
13.4042
 30
0.0
 11
41.22
 21
13.8424
 31
0.0
  0
LINE
  8
0
 62
     0
 10
41.22
 20
13.8424
 30
0.0
 11
41.3561
 21
14.0987
 31
0.0
  0
LINE
  8
0
 62
     0
 10
41.3561
 20
14.0987
 30
0.0
 11
41.5974
 21
14.2214
 31
0.0
  0
LINE
  8
0
 62
     0
 10
41.5974
 20
14.2214
 30
0.0
 11
41.9545
 21
14.2544
 31
0.0
  0
LINE
  8
0
 62
     0
 10
41.9545
 20
14.2544
 30
0.0
 11
42.4395
 21
14.2434
 31
0.0
  0
LINE
  8
0
 62
     0
 10
42.4395
 20
14.2434
 30
0.0
 11
44.3371
 21
13.7845
 31
0.0
  0
LINE
  8
0
 62
     0
 10
44.3371
 20
13.7845
 30
0.0
 11
45.9934
 21
12.5773
 31
0.0
  0
LINE
  8
0
 62
     0
 10
45.9934
 20
12.5773
 30
0.0
 11
47.3385
 21
10.6977
 31
0.0
  0
LINE
  8
0
 62
     0
 10
47.3385
 20
10.6977
 30
0.0
 11
48.3002
 21
8.22
 31
0.0
  0
LINE
  8
0
 62
     0
 10
48.3002
 20
8.22
 30
0.0
 11
48.8996
 21
6.92326
 31
0.0
  0
LINE
  8
0
 62
     0
 10
48.8996
 20
6.92326
 30
0.0
 11
49.863
 21
5.75469
 31
0.0
  0
LINE
  8
0
 62
     0
 10
49.863
 20
5.75469
 30
0.0
 11
50.9859
 21
4.91134
 31
0.0
  0
LINE
  8
0
 62
     0
 10
50.9859
 20
4.91134
 30
0.0
 11
52.0707
 21
4.58611
 31
0.0
  0
LINE
  8
0
 62
     0
 10
52.0707
 20
4.58611
 30
0.0
 11
52.5141
 21
4.61366
 31
0.0
  0
LINE
  8
0
 62
     0
 10
52.5141
 20
4.61366
 30
0.0
 11
52.7512
 21
4.71152
 31
0.0
  0
LINE
  8
0
 62
     0
 10
52.7512
 20
4.71152
 30
0.0
 11
52.8105
 21
4.90721
 31
0.0
  0
LINE
  8
0
 62
     0
 10
52.8105
 20
4.90721
 30
0.0
 11
52.7142
 21
5.22139
 31
0.0
  0
LINE
  8
0
 62
     0
 10
52.7142
 20
5.22139
 30
0.0
 11
52.3752
 21
6.29765
 31
0.0
  0
LINE
  8
0
 62
     0
 10
52.3752
 20
6.29765
 30
0.0
 11
52.3187
 21
7.41521
 31
0.0
  0
LINE
  8
0
 62
     0
 10
52.3187
 20
7.41521
 30
0.0
 11
52.5582
 21
8.73263
 31
0.0
  0
LINE
  8
0
 62
     0
 10
52.5582
 20
8.73263
 30
0.0
 11
53.104
 21
10.4069
 31
0.0
  0
LINE
  8
0
 62
     0
 10
53.104
 20
10.4069
 30
0.0
 11
53.5658
 21
11.7712
 31
0.0
  0
LINE
  8
0
 62
     0
 10
53.5658
 20
11.7712
 30
0.0
 11
53.8385
 21
12.8833
 31
0.0
  0
LINE
  8
0
 62
     0
 10
53.8385
 20
12.8833
 30
0.0
 11
53.9433
 21
13.8768
 31
0.0
  0
LINE
  8
0
 62
     0
 10
53.9433
 20
13.8768
 30
0.0
 11
53.9048
 21
14.8869
 31
0.0
  0
LINE
  8
0
 62
     0
 10
53.9048
 20
14.8869
 30
0.0
 11
53.7626
 21
15.8998
 31
0.0
  0
LINE
  8
0
 62
     0
 10
53.7626
 20
15.8998
 30
0.0
 11
53.5023
 21
16.6315
 31
0.0
  0
LINE
  8
0
 62
     0
 10
53.5023
 20
16.6315
 30
0.0
 11
53.02
 21
17.2737
 31
0.0
  0
LINE
  8
0
 62
     0
 10
53.02
 20
17.2737
 30
0.0
 11
52.2111
 21
18.0165
 31
0.0
  0
LINE
  8
0
 62
     0
 10
52.2111
 20
18.0165
 30
0.0
 11
51.2699
 21
18.9714
 31
0.0
  0
LINE
  8
0
 62
     0
 10
51.2699
 20
18.9714
 30
0.0
 11
50.9337
 21
19.7349
 31
0.0
  0
LINE
  8
0
 62
     0
 10
50.9337
 20
19.7349
 30
0.0
 11
51.2011
 21
20.3467
 31
0.0
  0
LINE
  8
0
 62
     0
 10
51.2011
 20
20.3467
 30
0.0
 11
52.0707
 21
20.8401
 31
0.0
  0
LINE
  8
0
 62
     0
 10
52.0707
 20
20.8401
 30
0.0
 11
53.9006
 21
21.2121
 31
0.0
  0
LINE
  8
0
 62
     0
 10
53.9006
 20
21.2121
 30
0.0
 11
55.7911
 21
21.0165
 31
0.0
  0
LINE
  8
0
 62
     0
 10
55.7911
 20
21.0165
 30
0.0
 11
57.58
 21
20.2944
 31
0.0
  0
LINE
  8
0
 62
     0
 10
57.58
 20
20.2944
 30
0.0
 11
59.1026
 21
19.0858
 31
0.0
  0
LINE
  8
0
 62
     0
 10
59.1026
 20
19.0858
 30
0.0
 11
60.15
 21
18.0992
 31
0.0
  0
LINE
  8
0
 62
     0
 10
60.15
 20
18.0992
 30
0.0
 11
61.1851
 21
17.4322
 31
0.0
  0
LINE
  8
0
 62
     0
 10
61.1851
 20
17.4322
 30
0.0
 11
62.2695
 21
17.0532
 31
0.0
  0
LINE
  8
0
 62
     0
 10
62.2695
 20
17.0532
 30
0.0
 11
63.464
 21
16.9333
 31
0.0
  0
LINE
  8
0
 62
     0
 10
63.464
 20
16.9333
 30
0.0
 11
64.9083
 21
17.0546
 31
0.0
  0
LINE
  8
0
 62
     0
 10
64.9083
 20
17.0546
 30
0.0
 11
65.804
 21
17.3523
 31
0.0
  0
LINE
  8
0
 62
     0
 10
65.804
 20
17.3523
 30
0.0
 11
65.9874
 21
17.7257
 31
0.0
  0
LINE
  8
0
 62
     0
 10
65.9874
 20
17.7257
 30
0.0
 11
65.2999
 21
18.0744
 31
0.0
  0
LINE
  8
0
 62
     0
 10
65.2999
 20
18.0744
 30
0.0
 11
64.5679
 21
18.5043
 31
0.0
  0
LINE
  8
0
 62
     0
 10
64.5679
 20
18.5043
 30
0.0
 11
63.9547
 21
19.3794
 31
0.0
  0
LINE
  8
0
 62
     0
 10
63.9547
 20
19.3794
 30
0.0
 11
63.4601
 21
20.6926
 31
0.0
  0
LINE
  8
0
 62
     0
 10
63.4601
 20
20.6926
 30
0.0
 11
63.0894
 21
22.4372
 31
0.0
  0
LINE
  8
0
 62
     0
 10
63.0894
 20
22.4372
 30
0.0
 11
62.4582
 21
25.0927
 31
0.0
  0
LINE
  8
0
 62
     0
 10
62.4582
 20
25.0927
 30
0.0
 11
61.5251
 21
27.0151
 31
0.0
  0
LINE
  8
0
 62
     0
 10
61.5251
 20
27.0151
 30
0.0
 11
60.3042
 21
28.1823
 31
0.0
  0
LINE
  8
0
 62
     0
 10
60.3042
 20
28.1823
 30
0.0
 11
58.8077
 21
28.575
 31
0.0
  0
LINE
  8
0
 62
     0
 10
58.8077
 20
28.575
 30
0.0
 11
57.9603
 21
28.6411
 31
0.0
  0
LINE
  8
0
 62
     0
 10
57.9603
 20
28.6411
 30
0.0
 11
57.3045
 21
28.8258
 31
0.0
  0
LINE
  8
0
 62
     0
 10
57.3045
 20
28.8258
 30
0.0
 11
56.8413
 21
29.118
 31
0.0
  0
LINE
  8
0
 62
     0
 10
56.8413
 20
29.118
 30
0.0
 11
56.5796
 21
29.5024
 31
0.0
  0
LINE
  8
0
 62
     0
 10
56.5796
 20
29.5024
 30
0.0
 11
56.5231
 21
29.9627
 31
0.0
  0
LINE
  8
0
 62
     0
 10
56.5231
 20
29.9627
 30
0.0
 11
56.6787
 21
30.4863
 31
0.0
  0
LINE
  8
0
 62
     0
 10
56.6787
 20
30.4863
 30
0.0
 11
57.0495
 21
31.0582
 31
0.0
  0
LINE
  8
0
 62
     0
 10
57.0495
 20
31.0582
 30
0.0
 11
57.6432
 21
31.6646
 31
0.0
  0
LINE
  8
0
 62
     0
 10
57.6432
 20
31.6646
 30
0.0
 11
58.8465
 21
32.5327
 31
0.0
  0
LINE
  8
0
 62
     0
 10
58.8465
 20
32.5327
 30
0.0
 11
60.1334
 21
33.117
 31
0.0
  0
LINE
  8
0
 62
     0
 10
60.1334
 20
33.117
 30
0.0
 11
61.4454
 21
33.4009
 31
0.0
  0
LINE
  8
0
 62
     0
 10
61.4454
 20
33.4009
 30
0.0
 11
62.7242
 21
33.3637
 31
0.0
  0
LINE
  8
0
 62
     0
 10
62.7242
 20
33.3637
 30
0.0
 11
65.2597
 21
32.9985
 31
0.0
  0
LINE
  8
0
 62
     0
 10
65.2597
 20
32.9985
 30
0.0
 11
66.978
 21
32.9048
 31
0.0
  0
LINE
  8
0
 62
     0
 10
66.978
 20
32.9048
 30
0.0
 11
68.1648
 21
33.0936
 31
0.0
  0
LINE
  8
0
 62
     0
 10
68.1648
 20
33.0936
 30
0.0
 11
69.1085
 21
33.5704
 31
0.0
  0
LINE
  8
0
 62
     0
 10
69.1085
 20
33.5704
 30
0.0
 11
69.9961
 21
34.2635
 31
0.0
  0
LINE
  8
0
 62
     0
 10
69.9961
 20
34.2635
 30
0.0
 11
70.4261
 21
34.8038
 31
0.0
  0
LINE
  8
0
 62
     0
 10
70.4261
 20
34.8038
 30
0.0
 11
70.382
 21
35.1537
 31
0.0
  0
LINE
  8
0
 62
     0
 10
70.382
 20
35.1537
 30
0.0
 11
69.85
 21
35.2778
 31
0.0
  0
LINE
  8
0
 62
     0
 10
69.85
 20
35.2778
 30
0.0
 11
68.8329
 21
35.4693
 31
0.0
  0
LINE
  8
0
 62
     0
 10
68.8329
 20
35.4693
 30
0.0
 11
67.7746
 21
36.037
 31
0.0
  0
LINE
  8
0
 62
     0
 10
67.7746
 20
36.037
 30
0.0
 11
66.6845
 21
36.9757
 31
0.0
  0
LINE
  8
0
 62
     0
 10
66.6845
 20
36.9757
 30
0.0
 11
65.574
 21
38.2764
 31
0.0
  0
LINE
  8
0
 62
     0
 10
65.574
 20
38.2764
 30
0.0
 11
64.3587
 21
39.6187
 31
0.0
  0
LINE
  8
0
 62
     0
 10
64.3587
 20
39.6187
 30
0.0
 11
62.9984
 21
40.6799
 31
0.0
  0
LINE
  8
0
 62
     0
 10
62.9984
 20
40.6799
 30
0.0
 11
61.6232
 21
41.377
 31
0.0
  0
LINE
  8
0
 62
     0
 10
61.6232
 20
41.377
 30
0.0
 11
60.361
 21
41.6278
 31
0.0
  0
LINE
  8
0
 62
     0
 10
60.361
 20
41.6278
 30
0.0
 11
59.5023
 21
41.4722
 31
0.0
  0
LINE
  8
0
 62
     0
 10
59.5023
 20
41.4722
 30
0.0
 11
58.5251
 21
41.082
 31
0.0
  0
LINE
  8
0
 62
     0
 10
58.5251
 20
41.082
 30
0.0
 11
57.4696
 21
40.6975
 31
0.0
  0
LINE
  8
0
 62
     0
 10
57.4696
 20
40.6975
 30
0.0
 11
56.709
 21
40.7734
 31
0.0
  0
LINE
  8
0
 62
     0
 10
56.709
 20
40.7734
 30
0.0
 11
56.2462
 21
41.3082
 31
0.0
  0
LINE
  8
0
 62
     0
 10
56.2462
 20
41.3082
 30
0.0
 11
56.0917
 21
42.2974
 31
0.0
  0
LINE
  8
0
 62
     0
 10
56.0917
 20
42.2974
 30
0.0
 11
56.4981
 21
44.1332
 31
0.0
  0
LINE
  8
0
 62
     0
 10
56.4981
 20
44.1332
 30
0.0
 11
57.6559
 21
45.78
 31
0.0
  0
LINE
  8
0
 62
     0
 10
57.6559
 20
45.78
 30
0.0
 11
59.4692
 21
47.1413
 31
0.0
  0
LINE
  8
0
 62
     0
 10
59.4692
 20
47.1413
 30
0.0
 11
61.8423
 21
48.121
 31
0.0
  0
LINE
  8
0
 62
     0
 10
61.8423
 20
48.121
 30
0.0
 11
63.2121
 21
48.6463
 31
0.0
  0
LINE
  8
0
 62
     0
 10
63.2121
 20
48.6463
 30
0.0
 11
64.2786
 21
49.3529
 31
0.0
  0
LINE
  8
0
 62
     0
 10
64.2786
 20
49.3529
 30
0.0
 11
65.0737
 21
50.2737
 31
0.0
  0
LINE
  8
0
 62
     0
 10
65.0737
 20
50.2737
 30
0.0
 11
65.6332
 21
51.4354
 31
0.0
  0
LINE
  8
0
 62
     0
 10
65.6332
 20
51.4354
 30
0.0
 11
65.8661
 21
52.2704
 31
0.0
  0
LINE
  8
0
 62
     0
 10
65.8661
 20
52.2704
 30
0.0
 11
65.84
 21
52.7237
 31
0.0
  0
LINE
  8
0
 62
     0
 10
65.84
 20
52.7237
 30
0.0
 11
65.5366
 21
52.8189
 31
0.0
  0
LINE
  8
0
 62
     0
 10
65.5366
 20
52.8189
 30
0.0
 11
64.9471
 21
52.5762
 31
0.0
  0
LINE
  8
0
 62
     0
 10
64.9471
 20
52.5762
 30
0.0
 11
63.959
 21
52.2718
 31
0.0
  0
LINE
  8
0
 62
     0
 10
63.959
 20
52.2718
 30
0.0
 11
62.7172
 21
52.2333
 31
0.0
  0
LINE
  8
0
 62
     0
 10
62.7172
 20
52.2333
 30
0.0
 11
61.3558
 21
52.4538
 31
0.0
  0
LINE
  8
0
 62
     0
 10
61.3558
 20
52.4538
 30
0.0
 11
60.0082
 21
52.9209
 31
0.0
  0
LINE
  8
0
 62
     0
 10
60.0082
 20
52.9209
 30
0.0
 11
57.609
 21
53.7284
 31
0.0
  0
LINE
  8
0
 62
     0
 10
57.609
 20
53.7284
 30
0.0
 11
55.5113
 21
53.8413
 31
0.0
  0
LINE
  8
0
 62
     0
 10
55.5113
 20
53.8413
 30
0.0
 11
53.7464
 21
53.2638
 31
0.0
  0
LINE
  8
0
 62
     0
 10
53.7464
 20
53.2638
 30
0.0
 11
52.342
 21
51.9987
 31
0.0
  0
LINE
  8
0
 62
     0
 10
52.342
 20
51.9987
 30
0.0
 11
51.5137
 21
51.1485
 31
0.0
  0
LINE
  8
0
 62
     0
 10
51.5137
 20
51.1485
 30
0.0
 11
50.8
 21
50.8
 31
0.0
  0
LINE
  8
0
 62
     0
 10
50.8
 20
50.8
 30
0.0
 11
50.2049
 21
51.1281
 31
0.0
  0
LINE
  8
0
 62
     0
 10
50.2049
 20
51.1281
 30
0.0
 11
49.7032
 21
51.9864
 31
0.0
  0
LINE
  8
0
 62
     0
 10
49.7032
 20
51.9864
 30
0.0
 11
49.367
 21
53.1964
 31
0.0
  0
LINE
  8
0
 62
     0
 10
49.367
 20
53.1964
 30
0.0
 11
49.2718
 21
54.5744
 31
0.0
  0
LINE
  8
0
 62
     0
 10
49.2718
 20
54.5744
 30
0.0
 11
49.4316
 21
55.8214
 31
0.0
  0
LINE
  8
0
 62
     0
 10
49.4316
 20
55.8214
 30
0.0
 11
49.8531
 21
56.9736
 31
0.0
  0
LINE
  8
0
 62
     0
 10
49.8531
 20
56.9736
 30
0.0
 11
50.5809
 21
58.1272
 31
0.0
  0
LINE
  8
0
 62
     0
 10
50.5809
 20
58.1272
 30
0.0
 11
51.6625
 21
59.3729
 31
0.0
  0
LINE
  8
0
 62
     0
 10
51.6625
 20
59.3729
 30
0.0
 11
52.1903
 21
59.9641
 31
0.0
  0
LINE
  8
0
 62
     0
 10
52.1903
 20
59.9641
 30
0.0
 11
52.6715
 21
60.5801
 31
0.0
  0
LINE
  8
0
 62
     0
 10
52.6715
 20
60.5801
 30
0.0
 11
53.0518
 21
61.1477
 31
0.0
  0
LINE
  8
0
 62
     0
 10
53.0518
 20
61.1477
 30
0.0
 11
53.2832
 21
61.5957
 31
0.0
  0
LINE
  8
0
 62
     0
 10
53.2832
 20
61.5957
 30
0.0
 11
53.5411
 21
62.6251
 31
0.0
  0
LINE
  8
0
 62
     0
 10
53.5411
 20
62.6251
 30
0.0
 11
53.6014
 21
63.7067
 31
0.0
  0
LINE
  8
0
 62
     0
 10
53.6014
 20
63.7067
 30
0.0
 11
53.4691
 21
64.6963
 31
0.0
  0
LINE
  8
0
 62
     0
 10
53.4691
 20
64.6963
 30
0.0
 11
53.1495
 21
65.4403
 31
0.0
  0
LINE
  8
0
 62
     0
 10
53.1495
 20
65.4403
 30
0.0
 11
52.8754
 21
65.7987
 31
0.0
  0
LINE
  8
0
 62
     0
 10
52.8754
 20
65.7987
 30
0.0
 11
52.7018
 21
65.9059
 31
0.0
  0
LINE
  8
0
 62
     0
 10
52.7018
 20
65.9059
 30
0.0
 11
52.5667
 21
65.7546
 31
0.0
  0
LINE
  8
0
 62
     0
 10
52.5667
 20
65.7546
 30
0.0
 11
52.415
 21
65.3341
 31
0.0
  0
LINE
  8
0
 62
     0
 10
52.415
 20
65.3341
 30
0.0
 11
51.9575
 21
64.5513
 31
0.0
  0
LINE
  8
0
 62
     0
 10
51.9575
 20
64.5513
 30
0.0
 11
51.1059
 21
63.9286
 31
0.0
  0
LINE
  8
0
 62
     0
 10
51.1059
 20
63.9286
 30
0.0
 11
49.7625
 21
63.416
 31
0.0
  0
LINE
  8
0
 62
     0
 10
49.7625
 20
63.416
 30
0.0
 11
47.8374
 21
62.968
 31
0.0
  0
LINE
  8
0
 62
     0
 10
47.8374
 20
62.968
 30
0.0
 11
45.0645
 21
62.261
 31
0.0
  0
LINE
  8
0
 62
     0
 10
45.0645
 20
62.261
 30
0.0
 11
43.2361
 21
61.3103
 31
0.0
  0
LINE
  8
0
 62
     0
 10
43.2361
 20
61.3103
 30
0.0
 11
42.1598
 21
59.9627
 31
0.0
  0
LINE
  8
0
 62
     0
 10
42.1598
 20
59.9627
 30
0.0
 11
41.6458
 21
58.0679
 31
0.0
  0
LINE
  8
0
 62
     0
 10
41.6458
 20
58.0679
 30
0.0
 11
41.5135
 21
57.3472
 31
0.0
  0
LINE
  8
0
 62
     0
 10
41.5135
 20
57.3472
 30
0.0
 11
41.3286
 21
56.8868
 31
0.0
  0
LINE
  8
0
 62
     0
 10
41.3286
 20
56.8868
 30
0.0
 11
41.0503
 21
56.6289
 31
0.0
  0
LINE
  8
0
 62
     0
 10
41.0503
 20
56.6289
 30
0.0
 11
40.6396
 21
56.5118
 31
0.0
  0
LINE
  8
0
 62
     0
 10
40.6396
 20
56.5118
 30
0.0
 11
39.8847
 21
56.599
 31
0.0
  0
LINE
  8
0
 62
     0
 10
39.8847
 20
56.599
 30
0.0
 11
39.135
 21
57.0495
 31
0.0
  0
LINE
  8
0
 62
     0
 10
39.135
 20
57.0495
 30
0.0
 11
38.4059
 21
57.8499
 31
0.0
  0
LINE
  8
0
 62
     0
 10
38.4059
 20
57.8499
 30
0.0
 11
37.7183
 21
58.9841
 31
0.0
  0
LINE
  8
0
 62
     0
 10
37.7183
 20
58.9841
 30
0.0
 11
37.0762
 21
61.5625
 31
0.0
  0
LINE
  8
0
 62
     0
 10
37.0762
 20
61.5625
 30
0.0
 11
37.4689
 21
64.6987
 31
0.0
  0
LINE
  8
0
 62
     0
 10
37.4689
 20
64.6987
 30
0.0
 11
37.6671
 21
66.0894
 31
0.0
  0
LINE
  8
0
 62
     0
 10
37.6671
 20
66.0894
 30
0.0
 11
37.5349
 21
67.4508
 31
0.0
  0
LINE
  8
0
 62
     0
 10
37.5349
 20
67.4508
 30
0.0
 11
37.0886
 21
68.7077
 31
0.0
  0
LINE
  8
0
 62
     0
 10
37.0886
 20
68.7077
 30
0.0
 11
36.347
 21
69.7798
 31
0.0
  0
LINE
  8
0
 62
     0
 10
36.347
 20
69.7798
 30
0.0
 11
35.7477
 21
70.3531
 31
0.0
  0
LINE
  8
0
 62
     0
 10
35.7477
 20
70.3531
 30
0.0
 11
35.3674
 21
70.5086
 31
0.0
  0
LINE
  8
0
 62
     0
 10
35.3674
 20
70.5086
 30
0.0
 11
35.1593
 21
70.2388
 31
0.0
  0
LINE
  8
0
 62
     0
 10
35.1593
 20
70.2388
 30
0.0
 11
35.0752
 21
69.5332
 31
0.0
  0
ENDSEC
  0
EOF
