  0
SECTION
  2
HEADER
  9
$ACADVER
  1
AC1015
  9
$ACADMAINTVER
 70
     6
  9
$DWGCODEPAGE
  3
ANSI_1252
  9
$INSBASE
 10
0.0
 20
0.0
 30
0.0
  9
$EXTMIN
 10
1.000000E+20
 20
1.000000E+20
 30
1.000000E+20
  9
$EXTMAX
 10
-1.000000E+20
 20
-1.000000E+20
 30
-1.000000E+20
  9
$LIMMIN
 10
0.0
 20
0.0
  9
$LIMMAX
 10
420.0
 20
297.0
  9
$ORTHOMODE
 70
     0
  9
$REGENMODE
 70
     1
  9
$FILLMODE
 70
     1
  9
$QTEXTMODE
 70
     0
  9
$MIRRTEXT
 70
     1
  9
$LTSCALE
 40
1.0
  9
$ATTMODE
 70
     1
  9
$TEXTSIZE
 40
2.5
  9
$TRACEWID
 40
1.0
  9
$TEXTSTYLE
  7
Standard
  9
$CLAYER
  8
0
  9
$CELTYPE
  6
ByLayer
  9
$CECOLOR
 62
   256
  9
$CELTSCALE
 40
1.0
  9
$DISPSILH
 70
     0
  9
$DIMSCALE
 40
1.0
  9
$DIMASZ
 40
2.5
  9
$DIMEXO
 40
0.625
  9
$DIMDLI
 40
3.75
  9
$DIMRND
 40
0.0
  9
$DIMDLE
 40
0.0
  9
$DIMEXE
 40
1.25
  9
$DIMTP
 40
0.0
  9
$DIMTM
 40
0.0
  9
$DIMTXT
 40
2.5
  9
$DIMCEN
 40
2.5
  9
$DIMTSZ
 40
0.0
  9
$DIMTOL
 70
     0
  9
$DIMLIM
 70
     0
  9
$DIMTIH
 70
     0
  9
$DIMTOH
 70
     0
  9
$DIMSE1
 70
     0
  9
$DIMSE2
 70
     0
  9
$DIMTAD
 70
     1
  9
$DIMZIN
 70
     8
  9
$DIMBLK
  1

  9
$DIMASO
 70
     1
  9
$DIMSHO
 70
     1
  9
$DIMPOST
  1

  9
$DIMAPOST
  1

  9
$DIMALT
 70
     0
  9
$DIMALTD
 70
     3
  9
$DIMALTF
 40
0.03937
  9
$DIMLFAC
 40
1.0
  9
$DIMTOFL
 70
     1
  9
$DIMTVP
 40
0.0
  9
$DIMTIX
 70
     0
  9
$DIMSOXD
 70
     0
  9
$DIMSAH
 70
     0
  9
$DIMBLK1
  1

  9
$DIMBLK2
  1

  9
$DIMSTYLE
  2
ISO-25
  9
$DIMCLRD
 70
     0
  9
$DIMCLRE
 70
     0
  9
$DIMCLRT
 70
     0
  9
$DIMTFAC
 40
1.0
  9
$DIMGAP
 40
0.625
  9
$DIMJUST
 70
     0
  9
$DIMSD1
 70
     0
  9
$DIMSD2
 70
     0
  9
$DIMTOLJ
 70
     0
  9
$DIMTZIN
 70
     8
  9
$DIMALTZ
 70
     0
  9
$DIMALTTZ
 70
     0
  9
$DIMUPT
 70
     0
  9
$DIMDEC
 70
     2
  9
$DIMTDEC
 70
     2
  9
$DIMALTU
 70
     2
  9
$DIMALTTD
 70
     3
  9
$DIMTXSTY
  7
Standard
  9
$DIMAUNIT
 70
     0
  9
$DIMADEC
 70
     0
  9
$DIMALTRND
 40
0.0
  9
$DIMAZIN
 70
     0
  9
$DIMDSEP
 70
    44
  9
$DIMATFIT
 70
     3
  9
$DIMFRAC
 70
     0
  9
$DIMLDRBLK
  1

  9
$DIMLUNIT
 70
     2
  9
$DIMLWD
 70
    -2
  9
$DIMLWE
 70
    -2
  9
$DIMTMOVE
 70
     0
  9
$LUNITS
 70
     2
  9
$LUPREC
 70
     4
  9
$SKETCHINC
 40
1.0
  9
$FILLETRAD
 40
10.0
  9
$AUNITS
 70
     0
  9
$AUPREC
 70
     0
  9
$MENU
  1
.
  9
$ELEVATION
 40
0.0
  9
$PELEVATION
 40
0.0
  9
$THICKNESS
 40
0.0
  9
$LIMCHECK
 70
     0
  9
$CHAMFERA
 40
10.0
  9
$CHAMFERB
 40
10.0
  9
$CHAMFERC
 40
20.0
  9
$CHAMFERD
 40
0.0
  9
$SKPOLY
 70
     0
  9
$TDCREATE
 40
2455798.115320093
  9
$TDUCREATE
 40
2455798.281986759
  9
$TDUPDATE
 40
2455798.115320104
  9
$TDUUPDATE
 40
2455798.281986771
  9
$TDINDWG
 40
0.0000000116
  9
$TDUSRTIMER
 40
0.0000000116
  9
$USRTIMER
 70
     1
  9
$ANGBASE
 50
0.0
  9
$ANGDIR
 70
     0
  9
$PDMODE
 70
     3
  9
$PDSIZE
 40
-0.7
  9
$PLINEWID
 40
0.0
  9
$SPLFRAME
 70
     0
  9
$SPLINETYPE
 70
     6
  9
$SPLINESEGS
 70
     8
  9
$HANDSEED
  5
2F
  9
$SURFTAB1
 70
     6
  9
$SURFTAB2
 70
     6
  9
$SURFTYPE
 70
     6
  9
$SURFU
 70
     6
  9
$SURFV
 70
     6
  9
$UCSBASE
  2

  9
$UCSNAME
  2

  9
$UCSORG
 10
0.0
 20
0.0
 30
0.0
  9
$UCSXDIR
 10
1.0
 20
0.0
 30
0.0
  9
$UCSYDIR
 10
0.0
 20
1.0
 30
0.0
  9
$UCSORTHOREF
  2

  9
$UCSORTHOVIEW
 70
     0
  9
$UCSORGTOP
 10
0.0
 20
0.0
 30
0.0
  9
$UCSORGBOTTOM
 10
0.0
 20
0.0
 30
0.0
  9
$UCSORGLEFT
 10
0.0
 20
0.0
 30
0.0
  9
$UCSORGRIGHT
 10
0.0
 20
0.0
 30
0.0
  9
$UCSORGFRONT
 10
0.0
 20
0.0
 30
0.0
  9
$UCSORGBACK
 10
0.0
 20
0.0
 30
0.0
  9
$PUCSBASE
  2

  9
$PUCSNAME
  2

  9
$PUCSORG
 10
0.0
 20
0.0
 30
0.0
  9
$PUCSXDIR
 10
1.0
 20
0.0
 30
0.0
  9
$PUCSYDIR
 10
0.0
 20
1.0
 30
0.0
  9
$PUCSORTHOREF
  2

  9
$PUCSORTHOVIEW
 70
     0
  9
$PUCSORGTOP
 10
0.0
 20
0.0
 30
0.0
  9
$PUCSORGBOTTOM
 10
0.0
 20
0.0
 30
0.0
  9
$PUCSORGLEFT
 10
0.0
 20
0.0
 30
0.0
  9
$PUCSORGRIGHT
 10
0.0
 20
0.0
 30
0.0
  9
$PUCSORGFRONT
 10
0.0
 20
0.0
 30
0.0
  9
$PUCSORGBACK
 10
0.0
 20
0.0
 30
0.0
  9
$USERI1
 70
     0
  9
$USERI2
 70
     0
  9
$USERI3
 70
     0
  9
$USERI4
 70
     0
  9
$USERI5
 70
     0
  9
$USERR1
 40
0.0
  9
$USERR2
 40
0.0
  9
$USERR3
 40
0.0
  9
$USERR4
 40
0.0
  9
$USERR5
 40
0.0
  9
$WORLDVIEW
 70
     1
  9
$SHADEDGE
 70
     3
  9
$SHADEDIF
 70
    70
  9
$TILEMODE
 70
     1
  9
$MAXACTVP
 70
    64
  9
$PINSBASE
 10
0.0
 20
0.0
 30
0.0
  9
$PLIMCHECK
 70
     0
  9
$PEXTMIN
 10
1.000000E+20
 20
1.000000E+20
 30
1.000000E+20
  9
$PEXTMAX
 10
-1.000000E+20
 20
-1.000000E+20
 30
-1.000000E+20
  9
$PLIMMIN
 10
0.0
 20
0.0
  9
$PLIMMAX
 10
420.0
 20
297.0
  9
$UNITMODE
 70
     0
  9
$VISRETAIN
 70
     1
  9
$PLINEGEN
 70
     0
  9
$PSLTSCALE
 70
     1
  9
$TREEDEPTH
 70
  3020
  9
$CMLSTYLE
  2
Standard
  9
$CMLJUST
 70
     1
  9
$CMLSCALE
 40
1.0
  9
$PROXYGRAPHICS
 70
     1
  9
$MEASUREMENT
 70
     1
  9
$CELWEIGHT
370
    -1
  9
$ENDCAPS
280
     0
  9
$JOINSTYLE
280
     0
  9
$LWDISPLAY
290
     0
  9
$INSUNITS
 70
     4
  9
$HYPERLINKBASE
  1

  9
$STYLESHEET
  1

  9
$XEDIT
290
     1
  9
$CEPSNTYPE
380
     0
  9
$PSTYLEMODE
290
     1
  9
$FINGERPRINTGUID
  2
{FAEB1C30-E019-11D5-929B-00C0DF256EC4}
  9
$VERSIONGUID
  2
{FAEB1C32-E019-11D5-929B-00C0DF256EC4}
  9
$EXTNAMES
290
     1
  9
$PSVPSCALE
 40
0.0
  9
$OLESTARTUP
290
     0
  0
ENDSEC
  0
SECTION
  2
CLASSES
  0
CLASS
  1
ACDBDICTIONARYWDFLT
  2
AcDbDictionaryWithDefault
  3
ObjectDBX Classes
 90
        0
280
     0
281
     0
  0
CLASS
  1
ACDBPLACEHOLDER
  2
AcDbPlaceHolder
  3
ObjectDBX Classes
 90
        0
280
     0
281
     0
  0
CLASS
  1
LAYOUT
  2
AcDbLayout
  3
ObjectDBX Classes
 90
        0
280
     0
281
     0
  0
ENDSEC
  0
SECTION
  2
TABLES
  0
TABLE
  2
VPORT
  5
8
330
0
100
AcDbSymbolTable
 70
     2
  0
VPORT
  5
29
330
8
100
AcDbSymbolTableRecord
100
AcDbViewportTableRecord
  2
*Active
 70
     0
 10
0.0
 20
0.0
 11
1.0
 21
1.0
 12
50.0
 22
50.0
 13
0.0
 23
0.0
 14
10.0
 24
10.0
 15
10.0
 25
10.0
 16
0.0
 26
0.0
 36
1.0
 17
0.0
 27
0.0
 37
0.0
 40
103.921569
 41
1.0
 42
50.0
 43
0.0
 44
0.0
 50
0.0
 51
0.0
 71
     0
 72
   100
 73
     1
 74
     3
 75
     0
 76
     0
 77
     0
 78
     0
281
     0
 65
     1
110
0.0
120
0.0
130
0.0
111
1.0
121
0.0
131
0.0
112
0.0
122
1.0
132
0.0
 79
     0
146
0.0
  0
ENDTAB
  0
TABLE
  2
LTYPE
  5
5
330
0
100
AcDbSymbolTable
 70
     1
  0
LTYPE
  5
14
330
5
100
AcDbSymbolTableRecord
100
AcDbLinetypeTableRecord
  2
ByBlock
 70
     0
  3

 72
    65
 73
     0
 40
0.0
  0
LTYPE
  5
15
330
5
100
AcDbSymbolTableRecord
100
AcDbLinetypeTableRecord
  2
ByLayer
 70
     0
  3

 72
    65
 73
     0
 40
0.0
  0
LTYPE
  5
16
330
5
100
AcDbSymbolTableRecord
100
AcDbLinetypeTableRecord
  2
Continuous
 70
     0
  3

 72
    65
 73
     0
 40
0.0
  0
ENDTAB
  0
TABLE
  2
LAYER
  5
2
330
0
100
AcDbSymbolTable
 70
     1
  0
LAYER
  5
10
330
2
100
AcDbSymbolTableRecord
100
AcDbLayerTableRecord
  2
0
 70
     0
 62
     7
  6
Continuous
370
    -3
390
F
  0
ENDTAB
  0
TABLE
  2
STYLE
  5
3
330
0
100
AcDbSymbolTable
 70
     1
  0
STYLE
  5
11
330
3
100
AcDbSymbolTableRecord
100
AcDbTextStyleTableRecord
  2
Standard
 70
     0
 40
1.0
 41
1.0
 50
0.0
 71
     0
 42
2.5
  3
RomanS
  4

  0
ENDTAB
  0
TABLE
  2
VIEW
  5
6
330
0
100
AcDbSymbolTable
 70
     0
  0
ENDTAB
  0
TABLE
  2
UCS
  5
7
330
0
100
AcDbSymbolTable
 70
     0
  0
ENDTAB
  0
TABLE
  2
APPID
  5
9
330
0
100
AcDbSymbolTable
 70
     1
  0
APPID
  5
12
330
9
100
AcDbSymbolTableRecord
100
AcDbRegAppTableRecord
  2
ACAD
 70
     0
  0
ENDTAB
  0
TABLE
  2
DIMSTYLE
  5
A
330
0
100
AcDbSymbolTable
 70
     1
100
AcDbDimStyleTable
  0
DIMSTYLE
105
27
330
A
100
AcDbSymbolTableRecord
100
AcDbDimStyleTableRecord
  2
ISO-25
 70
     0
 41
2.5
 42
0.625
 44
1.25
 73
     0
 74
     0
 77
     1
 78
     8
 79
     2
140
2.5
141
2.5
146
0.0
147
0.625
271
     2
272
     0
273
     0
274
     0
278
    44
283
     0
289
     0
340
11
  0
ENDTAB
  0
TABLE
  2
BLOCK_RECORD
  5
1
330
0
100
AcDbSymbolTable
 70
     1
  0
BLOCK_RECORD
  5
1F
330
1
100
AcDbSymbolTableRecord
100
AcDbBlockTableRecord
  2
*Model_Space
340
22
  0
BLOCK_RECORD
  5
1B
330
1
100
AcDbSymbolTableRecord
100
AcDbBlockTableRecord
  2
*Paper_Space
340
1E
  0
BLOCK_RECORD
  5
23
330
1
100
AcDbSymbolTableRecord
100
AcDbBlockTableRecord
  2
*Paper_Space0
340
26
  0
ENDTAB
  0
ENDSEC
  0
SECTION
  2
BLOCKS
  0
BLOCK
  5
20
330
1F
100
AcDbEntity
  8
0
100
AcDbBlockBegin
  2
*Model_Space
 70
     0
 71
     0
 10
0.0
 20
0.0
 30
0.0
  3
*Model_Space
  1

  0
ENDBLK
  5
21
330
1F
100
AcDbEntity
  8
0
100
AcDbBlockEnd
  0
BLOCK
  5
1C
330
1B
100
AcDbEntity
 67
     1
  8
0
100
AcDbBlockBegin
  2
*Paper_Space
 70
     0
 71
     0
 10
0.0
 20
0.0
 30
0.0
  3
*Paper_Space
  1

  0
ENDBLK
  5
1D
330
1B
100
AcDbEntity
 67
     1
  8
0
100
AcDbBlockEnd
  0
BLOCK
  5
24
330
23
100
AcDbEntity
  8
0
100
AcDbBlockBegin
  2
*Paper_Space0
 70
     0
 71
     0
 10
0.0
 20
0.0
 30
0.0
  3
*Paper_Space0
  1

  0
ENDBLK
  5
25
330
23
100
AcDbEntity
  8
0
100
AcDbBlockEnd
  0
ENDSEC
  0
SECTION
  2
ENTITIES
  0
LWPOLYLINE
  5
2A
330
1F
100
AcDbEntity
  8
0
100
AcDbPolyline
 90
      383
 70
   128
 43
0.0
 10
1.284364
 20
2.222225
 10
1.275137
 20
2.215903
 10
1.265985
 20
2.208613
 10
1.25686
 20
2.200521
 10
1.247711
 20
2.191794
 10
1.229779
 20
2.184516
 10
1.212963
 20
2.178173
 10
1.197212
 20
2.172702
 10
1.182475
 20
2.168041
 10
1.168701
 20
2.164128
 10
1.15584
 20
2.160901
 10
1.143841
 20
2.158297
 10
1.132652
 20
2.156255
 10
1.122223
 20
2.154713
 10
1.112504
 20
2.153607
 10
1.09499
 20
2.152459
 10
1.079703
 20
2.152313
 10
1.066237
 20
2.152673
 10
1.054186
 20
2.15304
 10
1.043143
 20
2.152919
 10
1.037872
 20
2.15252
 10
1.032701
 20
2.151811
 10
1.027579
 20
2.150732
 10
1.022455
 20
2.14922
 10
1.017278
 20
2.147212
 10
1.011998
 20
2.144647
 10
1.006563
 20
2.141463
 10
1.000923
 20
2.137597
 10
0.995027
 20
2.132987
 10
0.988824
 20
2.127571
 10
0.982263
 20
2.121286
 10
0.975294
 20
2.114072
 10
0.974197
 20
2.115169
 10
0.973836
 20
2.1126
 10
0.96842
 20
2.079146
 10
0.963129
 20
2.047947
 10
0.957491
 20
2.018861
 10
0.954394
 20
2.005066
 10
0.951034
 20
1.991748
 10
0.947351
 20
1.978887
 10
0.943287
 20
1.966467
 10
0.938782
 20
1.954469
 10
0.933778
 20
1.942877
 10
0.928215
 20
1.931673
 10
0.922035
 20
1.920839
 10
0.915178
 20
1.910357
 10
0.907586
 20
1.900211
 10
0.8992
 20
1.890381
 10
0.889961
 20
1.880852
 10
0.879809
 20
1.871605
 10
0.868686
 20
1.862622
 10
0.856534
 20
1.853887
 10
0.843292
 20
1.84538
 10
0.828902
 20
1.837086
 10
0.813305
 20
1.828986
 10
0.796442
 20
1.821063
 10
0.778254
 20
1.813299
 10
0.758683
 20
1.805677
 10
0.737668
 20
1.798178
 10
0.715152
 20
1.790786
 10
0.691075
 20
1.783482
 10
0.665378
 20
1.77625
 10
0.638003
 20
1.769072
 10
0.640197
 20
1.7676
 10
0.619076
 20
1.766407
 10
0.598318
 20
1.764536
 10
0.577922
 20
1.761997
 10
0.557889
 20
1.758803
 10
0.538217
 20
1.754964
 10
0.518909
 20
1.750493
 10
0.499963
 20
1.745402
 10
0.481379
 20
1.739701
 10
0.463157
 20
1.733403
 10
0.445298
 20
1.726518
 10
0.427801
 20
1.71906
 10
0.410667
 20
1.711038
 10
0.393895
 20
1.702465
 10
0.377485
 20
1.693353
 10
0.361438
 20
1.683713
 10
0.345753
 20
1.673557
 10
0.33043
 20
1.662895
 10
0.315469
 20
1.651741
 10
0.300871
 20
1.640105
 10
0.286635
 20
1.627999
 10
0.272762
 20
1.615435
 10
0.25925
 20
1.602425
 10
0.246101
 20
1.588979
 10
0.233314
 20
1.57511
 10
0.220889
 20
1.560829
 10
0.208827
 20
1.546147
 10
0.197126
 20
1.531077
 10
0.185788
 20
1.51563
 10
0.174812
 20
1.499818
 10
0.164198
 20
1.483652
 10
0.153947
 20
1.467143
 10
0.144057
 20
1.450304
 10
0.13453
 20
1.433146
 10
0.125365
 20
1.415681
 10
0.116562
 20
1.39792
 10
0.108121
 20
1.379875
 10
0.100042
 20
1.361557
 10
0.092325
 20
1.342978
 10
0.08497
 20
1.32415
 10
0.077977
 20
1.305084
 10
0.071347
 20
1.285792
 10
0.065078
 20
1.266286
 10
0.059171
 20
1.246576
 10
0.053627
 20
1.226676
 10
0.048444
 20
1.206596
 10
0.043624
 20
1.186347
 10
0.039165
 20
1.165942
 10
0.035069
 20
1.145393
 10
0.031334
 20
1.12471
 10
0.027961
 20
1.103905
 10
0.024951
 20
1.082991
 10
0.022302
 20
1.061978
 10
0.020015
 20
1.040878
 10
0.01809
 20
1.019703
 10
0.016527
 20
0.998465
 10
0.015326
 20
0.977174
 10
0.014487
 20
0.955843
 10
0.014009
 20
0.934484
 10
0.013894
 20
0.913107
 10
0.01414
 20
0.891725
 10
0.014749
 20
0.870348
 10
0.015719
 20
0.84899
 10
0.01705
 20
0.827661
 10
0.018744
 20
0.806372
 10
0.0208
 20
0.785136
 10
0.023217
 20
0.763965
 10
0.025996
 20
0.742868
 10
0.029137
 20
0.72186
 10
0.032639
 20
0.70095
 10
0.036504
 20
0.680151
 10
0.04073
 20
0.659474
 10
0.045318
 20
0.63893
 10
0.050267
 20
0.618532
 10
0.055579
 20
0.598291
 10
0.061251
 20
0.578219
 10
0.067286
 20
0.558327
 10
0.073682
 20
0.538626
 10
0.08044
 20
0.519129
 10
0.08756
 20
0.499848
 10
0.095041
 20
0.480792
 10
0.102884
 20
0.461975
 10
0.111089
 20
0.443408
 10
0.119655
 20
0.425102
 10
0.128583
 20
0.40707
 10
0.137872
 20
0.389322
 10
0.147523
 20
0.37187
 10
0.157536
 20
0.354726
 10
0.16791
 20
0.337902
 10
0.178646
 20
0.321409
 10
0.189743
 20
0.305258
 10
0.201202
 20
0.289462
 10
0.213022
 20
0.274032
 10
0.225204
 20
0.25898
 10
0.237747
 20
0.244316
 10
0.250652
 20
0.230053
 10
0.263918
 20
0.216203
 10
0.277546
 20
0.202777
 10
0.291535
 20
0.189786
 10
0.305886
 20
0.177243
 10
0.320598
 20
0.165158
 10
0.335671
 20
0.153544
 10
0.351106
 20
0.142411
 10
0.366902
 20
0.131773
 10
0.38306
 20
0.121639
 10
0.399579
 20
0.112023
 10
0.41646
 20
0.102935
 10
0.433702
 20
0.094387
 10
0.451305
 20
0.086391
 10
0.46927
 20
0.078958
 10
0.487595
 20
0.0721
 10
0.506283
 20
0.065828
 10
0.525331
 20
0.060155
 10
0.544741
 20
0.055091
 10
0.564512
 20
0.050649
 10
0.584645
 20
0.046839
 10
0.605139
 20
0.043674
 10
0.625994
 20
0.041166
 10
0.64721
 20
0.039325
 10
0.668787
 20
0.038163
 10
0.690726
 20
0.037693
 10
0.713026
 20
0.037925
 10
0.735687
 20
0.038871
 10
0.758709
 20
0.040543
 10
0.782093
 20
0.042952
 10
0.805838
 20
0.046111
 10
0.829944
 20
0.05003
 10
0.854411
 20
0.054722
 10
0.879239
 20
0.060197
 10
0.933142
 20
0.044433
 10
0.952939
 20
0.035767
 10
0.972732
 20
0.028141
 10
0.992503
 20
0.021519
 10
1.012233
 20
0.015861
 10
1.031901
 20
0.011131
 10
1.051491
 20
0.00729
 10
1.070983
 20
0.004301
 10
1.090358
 20
0.002126
 10
1.109597
 20
0.000726
 10
1.128682
 20
0.000065
 10
1.147593
 20
0.000105
 10
1.166313
 20
0.000807
 10
1.184821
 20
0.002134
 10
1.203099
 20
0.004048
 10
1.221129
 20
0.006511
 10
1.238892
 20
0.009485
 10
1.256368
 20
0.012933
 10
1.273539
 20
0.016817
 10
1.290386
 20
0.021098
 10
1.30689
 20
0.02574
 10
1.323033
 20
0.030704
 10
1.338795
 20
0.035952
 10
1.354158
 20
0.041448
 10
1.369103
 20
0.047152
 10
1.397663
 20
0.059035
 10
1.424324
 20
0.0713
 10
1.448937
 20
0.083645
 10
1.47135
 20
0.095766
 10
1.497345
 20
0.096976
 10
1.522772
 20
0.098891
 10
1.547602
 20
0.101442
 10
1.571808
 20
0.104558
 10
1.594523
 20
0.108094
 10
1.616703
 20
0.11219
 10
1.638354
 20
0.116838
 10
1.659481
 20
0.122027
 10
1.68009
 20
0.12775
 10
1.700186
 20
0.133997
 10
1.719775
 20
0.140759
 10
1.738864
 20
0.148028
 10
1.757456
 20
0.155794
 10
1.775559
 20
0.164049
 10
1.793177
 20
0.172783
 10
1.810317
 20
0.181989
 10
1.826983
 20
0.191656
 10
1.843182
 20
0.201775
 10
1.858919
 20
0.212339
 10
1.8742
 20
0.223338
 10
1.889031
 20
0.234763
 10
1.903416
 20
0.246605
 10
1.917362
 20
0.258855
 10
1.930875
 20
0.271505
 10
1.943959
 20
0.284545
 10
1.956621
 20
0.297966
 10
1.968866
 20
0.31176
 10
1.9807
 20
0.325918
 10
1.992129
 20
0.34043
 10
2.003158
 20
0.355288
 10
2.013792
 20
0.370482
 10
2.024037
 20
0.386005
 10
2.0339
 20
0.401846
 10
2.043385
 20
0.417998
 10
2.052499
 20
0.43445
 10
2.061246
 20
0.451195
 10
2.069633
 20
0.468223
 10
2.077665
 20
0.485525
 10
2.085347
 20
0.503093
 10
2.092686
 20
0.520917
 10
2.099687
 20
0.538989
 10
2.106356
 20
0.557299
 10
2.112698
 20
0.575839
 10
2.118718
 20
0.5946
 10
2.124424
 20
0.613572
 10
2.129819
 20
0.632747
 10
2.13491
 20
0.652117
 10
2.139703
 20
0.671671
 10
2.144202
 20
0.691401
 10
2.148415
 20
0.711299
 10
2.156
 20
0.75156
 10
2.162503
 20
0.792382
 10
2.167969
 20
0.833695
 10
2.172444
 20
0.875426
 10
2.175972
 20
0.917505
 10
2.178598
 20
0.959859
 10
2.180368
 20
1.002418
 10
2.181325
 20
1.04511
 10
2.181517
 20
1.087863
 10
2.179863
 20
1.102208
 10
2.177138
 20
1.11897
 10
2.173296
 20
1.13796
 10
2.168291
 20
1.158988
 10
2.162077
 20
1.181866
 10
2.154608
 20
1.206403
 10
2.14584
 20
1.232411
 10
2.135726
 20
1.259701
 10
2.124221
 20
1.288083
 10
2.111278
 20
1.317367
 10
2.096853
 20
1.347364
 10
2.0809
 20
1.377886
 10
2.072335
 20
1.393284
 10
2.063372
 20
1.408743
 10
2.054004
 20
1.424237
 10
2.044225
 20
1.439745
 10
2.034029
 20
1.455241
 10
2.023412
 20
1.470703
 10
2.012367
 20
1.486106
 10
2.000888
 20
1.501428
 10
1.98897
 20
1.516644
 10
1.976608
 20
1.53173
 10
1.963794
 20
1.546664
 10
1.950525
 20
1.561421
 10
1.936793
 20
1.575978
 10
1.922594
 20
1.59031
 10
1.907921
 20
1.604396
 10
1.892769
 20
1.618209
 10
1.877132
 20
1.631728
 10
1.861005
 20
1.644929
 10
1.844381
 20
1.657787
 10
1.827255
 20
1.670279
 10
1.809622
 20
1.682382
 10
1.791475
 20
1.694071
 10
1.772809
 20
1.705324
 10
1.753618
 20
1.716115
 10
1.733897
 20
1.726423
 10
1.713639
 20
1.736223
 10
1.69284
 20
1.745491
 10
1.671493
 20
1.754204
 10
1.649592
 20
1.762338
 10
1.627133
 20
1.769869
 10
1.604108
 20
1.776774
 10
1.580513
 20
1.78303
 10
1.556342
 20
1.788611
 10
1.531589
 20
1.793496
 10
1.506248
 20
1.797659
 10
1.480314
 20
1.801078
 10
1.453781
 20
1.803729
 10
1.426643
 20
1.805588
 10
1.398895
 20
1.806632
 10
1.370531
 20
1.806836
 10
1.350017
 20
1.806447
 10
1.329184
 20
1.805601
 10
1.308032
 20
1.804294
 10
1.28656
 20
1.802521
 10
1.264769
 20
1.80028
 10
1.242658
 20
1.797564
 10
1.220226
 20
1.794371
 10
1.197475
 20
1.790697
 10
1.191858
 20
1.80005
 10
1.186794
 20
1.80929
 10
1.182265
 20
1.81842
 10
1.178257
 20
1.827441
 10
1.174754
 20
1.836353
 10
1.171738
 20
1.845159
 10
1.169195
 20
1.853859
 10
1.167108
 20
1.862456
 10
1.165461
 20
1.870951
 10
1.164239
 20
1.879345
 10
1.163425
 20
1.887639
 10
1.163003
 20
1.895835
 10
1.162957
 20
1.903935
 10
1.163271
 20
1.911939
 10
1.16393
 20
1.91985
 10
1.164917
 20
1.927668
 10
1.166216
 20
1.935395
 10
1.167811
 20
1.943033
 10
1.171825
 20
1.958046
 10
1.176832
 20
1.972718
 10
1.182703
 20
1.98706
 10
1.18931
 20
2.001085
 10
1.196526
 20
2.014802
 10
1.204221
 20
2.028224
 10
1.212268
 20
2.041362
 10
1.228907
 20
2.066831
 10
1.245415
 20
2.091301
 10
1.26077
 20
2.114862
 10
1.267694
 20
2.12633
 10
1.273946
 20
2.137605
 10
1.279396
 20
2.148699
 10
1.283918
 20
2.159622
 10
1.287382
 20
2.170387
 10
1.288678
 20
2.175713
 10
1.289661
 20
2.181004
 10
1.290316
 20
2.18626
 10
1.290627
 20
2.191485
 10
1.290578
 20
2.196678
 10
1.290152
 20
2.201841
 10
1.289333
 20
2.206976
 10
1.288107
 20
2.212084
 10
1.286455
 20
2.217166
 10
1.284364
 20
2.222225
  0
LWPOLYLINE
  5
2B
330
1F
100
AcDbEntity
  8
0
100
AcDbPolyline
 90
       69
 70
   128
 43
0.0
 10
1.647697
 20
1.543961
 10
1.653563
 20
1.526819
 10
1.659059
 20
1.509523
 10
1.664187
 20
1.492077
 10
1.668947
 20
1.474488
 10
1.673343
 20
1.456762
 10
1.677377
 20
1.438902
 10
1.68105
 20
1.420916
 10
1.684364
 20
1.402808
 10
1.687329
 20
1.384574
 10
1.689951
 20
1.36622
 10
1.692226
 20
1.347753
 10
1.694152
 20
1.329179
 10
1.695725
 20
1.310505
 10
1.696942
 20
1.291738
 10
1.6978
 20
1.272883
 10
1.698294
 20
1.253947
 10
1.698435
 20
1.234936
 10
1.698233
 20
1.215845
 10
1.697689
 20
1.196681
 10
1.696803
 20
1.177449
 10
1.695577
 20
1.158154
 10
1.694011
 20
1.138804
 10
1.692107
 20
1.119404
 10
1.689864
 20
1.099961
 10
1.687276
 20
1.080481
 10
1.684341
 20
1.06097
 10
1.681065
 20
1.041431
 10
1.677454
 20
1.021867
 10
1.673515
 20
1.002281
 10
1.669255
 20
0.982676
 10
1.659794
 20
0.943419
 10
1.587374
 20
0.952025
 10
1.514975
 20
0.960641
 10
1.497017
 20
1.042405
 10
1.426628
 20
0.969808
 10
1.338076
 20
0.983195
 10
1.286831
 20
0.991146
 10
1.249544
 20
0.996572
 10
1.270295
 20
1.010225
 10
1.29033
 20
1.024062
 10
1.309668
 20
1.038091
 10
1.328327
 20
1.052318
 10
1.346328
 20
1.06675
 10
1.363687
 20
1.081392
 10
1.380424
 20
1.096252
 10
1.396558
 20
1.111336
 10
1.4121
 20
1.126638
 10
1.427062
 20
1.142161
 10
1.441465
 20
1.157906
 10
1.455329
 20
1.173874
 10
1.468675
 20
1.190068
 10
1.481523
 20
1.206488
 10
1.493894
 20
1.223137
 10
1.505808
 20
1.240016
 10
1.51728
 20
1.25713
 10
1.528313
 20
1.274483
 10
1.538928
 20
1.292077
 10
1.549147
 20
1.309914
 10
1.55899
 20
1.327997
 10
1.568478
 20
1.346327
 10
1.577633
 20
1.364907
 10
1.586475
 20
1.383738
 10
1.595011
 20
1.402832
 10
1.603256
 20
1.422195
 10
1.611229
 20
1.441826
 10
1.618951
 20
1.461725
 10
1.633713
 20
1.502317
 10
1.647697
 20
1.543961
  0
LWPOLYLINE
  5
2C
330
1F
100
AcDbEntity
  8
0
100
AcDbPolyline
 90
       73
 70
   128
 43
0.0
 10
0.547808
 20
1.538822
 10
0.551475
 20
1.527461
 10
0.552211
 20
1.528558
 10
0.552211
 20
1.525988
 10
0.559978
 20
1.503029
 10
0.567973
 20
1.480408
 10
0.576224
 20
1.45812
 10
0.584756
 20
1.436159
 10
0.593597
 20
1.414519
 10
0.602774
 20
1.393196
 10
0.612312
 20
1.372183
 10
0.622239
 20
1.351475
 10
0.622961
 20
1.350002
 10
0.636531
 20
1.323613
 10
0.637267
 20
1.322516
 10
0.648247
 20
1.302823
 10
0.659658
 20
1.283473
 10
0.671532
 20
1.264445
 10
0.683902
 20
1.24572
 10
0.6968
 20
1.227275
 10
0.710259
 20
1.209089
 10
0.724313
 20
1.191143
 10
0.738992
 20
1.173414
 10
0.754331
 20
1.155882
 10
0.770362
 20
1.138526
 10
0.787117
 20
1.121324
 10
0.80463
 20
1.104257
 10
0.822932
 20
1.087302
 10
0.842057
 20
1.070439
 10
0.862038
 20
1.053647
 10
0.882906
 20
1.036905
 10
0.881808
 20
1.036905
 10
0.897283
 20
1.025371
 10
0.91314
 20
1.01391
 10
0.929463
 20
1.002583
 10
0.946336
 20
0.991447
 10
0.857612
 20
0.97806
 10
0.806237
 20
0.970109
 10
0.768878
 20
0.964683
 10
0.668058
 20
1.046808
 10
0.691531
 20
0.957711
 10
0.613631
 20
0.94799
 10
0.535711
 20
0.93828
 10
0.534975
 20
0.941211
 10
0.534975
 20
0.940113
 10
0.531693
 20
0.950485
 10
0.528524
 20
0.961548
 10
0.522548
 20
0.985602
 10
0.517096
 20
1.011984
 10
0.512216
 20
1.0404
 10
0.507959
 20
1.070556
 10
0.504372
 20
1.102158
 10
0.501504
 20
1.134914
 10
0.499406
 20
1.16853
 10
0.498258
 20
1.193898
 10
0.497638
 20
1.219287
 10
0.497628
 20
1.244686
 10
0.498308
 20
1.270086
 10
0.498298
 20
1.275218
 10
0.498308
 20
1.28035
 10
0.499044
 20
1.292808
 10
0.50047
 20
1.31673
 10
0.502408
 20
1.340294
 10
0.504883
 20
1.363398
 10
0.507919
 20
1.385938
 10
0.511542
 20
1.407814
 10
0.515775
 20
1.428923
 10
0.520643
 20
1.449163
 10
0.526169
 20
1.468433
 10
0.531006
 20
1.486273
 10
0.536234
 20
1.503935
 10
0.541839
 20
1.521443
 10
0.547808
 20
1.538822
  0
LWPOLYLINE
  5
2D
330
1F
100
AcDbEntity
  8
0
100
AcDbPolyline
 90
        4
 70
   128
 43
0.0
 10
1.108392
 20
1.039836
 10
1.251003
 20
0.799697
 10
0.9896
 20
0.793822
 10
1.108392
 20
1.039836
  0
LWPOLYLINE
  5
2E
330
1F
100
AcDbEntity
  8
0
100
AcDbPolyline
 90
      169
 70
   128
 43
0.0
 10
0.540836
 20
0.816919
 10
0.561058
 20
0.799212
 10
0.587124
 20
0.777672
 10
0.648996
 20
0.728202
 10
0.710867
 20
0.67873
 10
0.736933
 20
0.657186
 10
0.757156
 20
0.639475
 10
0.754557
 20
0.594257
 10
0.751822
 20
0.556252
 10
0.744322
 20
0.47303
 10
0.806099
 20
0.462409
 10
0.885836
 20
0.448461
 10
0.890628
 20
0.477555
 10
0.89581
 20
0.51231
 10
0.900588
 20
0.548963
 10
0.902578
 20
0.566826
 10
0.904169
 20
0.583752
 10
0.910599
 20
0.582846
 10
0.919092
 20
0.581172
 10
0.941849
 20
0.576016
 10
0.971602
 20
0.569281
 10
1.007514
 20
0.561965
 10
1.027518
 20
0.558401
 10
1.048747
 20
0.555064
 10
1.071098
 20
0.552081
 10
1.094464
 20
0.549575
 10
1.118743
 20
0.547672
 10
1.143828
 20
0.546495
 10
1.169615
 20
0.54617
 10
1.195999
 20
0.54682
 10
1.222877
 20
0.548571
 10
1.236467
 20
0.549898
 10
1.250142
 20
0.551547
 10
1.263888
 20
0.553534
 10
1.277691
 20
0.555873
 10
1.291539
 20
0.558581
 10
1.305418
 20
0.561674
 10
1.319316
 20
0.565165
 10
1.33322
 20
0.569073
 10
1.347116
 20
0.573411
 10
1.360991
 20
0.578195
 10
1.374832
 20
0.583442
 10
1.388626
 20
0.589166
 10
1.40236
 20
0.595384
 10
1.416021
 20
0.60211
 10
1.429596
 20
0.60936
 10
1.443071
 20
0.617151
 10
1.456435
 20
0.625497
 10
1.469672
 20
0.634413
 10
1.482771
 20
0.643917
 10
1.495719
 20
0.654023
 10
1.508502
 20
0.664746
 10
1.521107
 20
0.676103
 10
1.533521
 20
0.688109
 10
1.545731
 20
0.700779
 10
1.557724
 20
0.714129
 10
1.569487
 20
0.728175
 10
1.581007
 20
0.742933
 10
1.59227
 20
0.758417
 10
1.603264
 20
0.774643
 10
1.613975
 20
0.791627
 10
1.616724
 20
0.778477
 10
1.619052
 20
0.7654
 10
1.620966
 20
0.752402
 10
1.62247
 20
0.739484
 10
1.62357
 20
0.72665
 10
1.624273
 20
0.713904
 10
1.624585
 20
0.701248
 10
1.62451
 20
0.688686
 10
1.624056
 20
0.676221
 10
1.623227
 20
0.663856
 10
1.622031
 20
0.651595
 10
1.620471
 20
0.639441
 10
1.618555
 20
0.627396
 10
1.616289
 20
0.615465
 10
1.613677
 20
0.60365
 10
1.610727
 20
0.591955
 10
1.607443
 20
0.580383
 10
1.603832
 20
0.568937
 10
1.599899
 20
0.55762
 10
1.595651
 20
0.546436
 10
1.591093
 20
0.535388
 10
1.586231
 20
0.524479
 10
1.58107
 20
0.513712
 10
1.575618
 20
0.50309
 10
1.569879
 20
0.492618
 10
1.56386
 20
0.482297
 10
1.557565
 20
0.472132
 10
1.551002
 20
0.462125
 10
1.544176
 20
0.45228
 10
1.537093
 20
0.4426
 10
1.522178
 20
0.423747
 10
1.506305
 20
0.405593
 10
1.489519
 20
0.388164
 10
1.471869
 20
0.371484
 10
1.453401
 20
0.355581
 10
1.434161
 20
0.34048
 10
1.414196
 20
0.326207
 10
1.393554
 20
0.312787
 10
1.37228
 20
0.300248
 10
1.350422
 20
0.288613
 10
1.328026
 20
0.27791
 10
1.30514
 20
0.268165
 10
1.28181
 20
0.259402
 10
1.258082
 20
0.251649
 10
1.234004
 20
0.24493
 10
1.209622
 20
0.239272
 10
1.184984
 20
0.2347
 10
1.160135
 20
0.231241
 10
1.135123
 20
0.228921
 10
1.109994
 20
0.227764
 10
1.097401
 20
0.227631
 10
1.084796
 20
0.227798
 10
1.072185
 20
0.228269
 10
1.059575
 20
0.229047
 10
1.04697
 20
0.230136
 10
1.034377
 20
0.231538
 10
1.021802
 20
0.233258
 10
1.00925
 20
0.235297
 10
0.996727
 20
0.23766
 10
0.98424
 20
0.24035
 10
0.971794
 20
0.243369
 10
0.959395
 20
0.246722
 10
0.947048
 20
0.25041
 10
0.93476
 20
0.254439
 10
0.922536
 20
0.25881
 10
0.910383
 20
0.263527
 10
0.898306
 20
0.268593
 10
0.88631
 20
0.274012
 10
0.874403
 20
0.279786
 10
0.862589
 20
0.28592
 10
0.850875
 20
0.292416
 10
0.839266
 20
0.299277
 10
0.827768
 20
0.306506
 10
0.816387
 20
0.314108
 10
0.80513
 20
0.322085
 10
0.794
 20
0.33044
 10
0.783006
 20
0.339177
 10
0.772152
 20
0.348298
 10
0.761444
 20
0.357808
 10
0.750888
 20
0.367708
 10
0.740491
 20
0.378004
 10
0.730257
 20
0.388697
 10
0.720193
 20
0.399791
 10
0.710304
 20
0.411289
 10
0.700597
 20
0.423195
 10
0.691077
 20
0.435511
 10
0.68175
 20
0.448241
 10
0.672622
 20
0.461389
 10
0.663698
 20
0.474957
 10
0.654986
 20
0.488948
 10
0.646489
 20
0.503367
 10
0.638215
 20
0.518215
 10
0.63017
 20
0.533497
 10
0.622358
 20
0.549215
 10
0.614786
 20
0.565373
 10
0.607459
 20
0.581974
 10
0.600385
 20
0.599021
 10
0.593567
 20
0.616518
 10
0.587013
 20
0.634468
 10
0.580728
 20
0.652873
 10
0.574718
 20
0.671738
 10
0.568989
 20
0.691065
 10
0.563546
 20
0.710858
 10
0.558396
 20
0.731119
 10
0.553544
 20
0.751853
 10
0.548996
 20
0.773062
 10
0.544758
 20
0.79475
 10
0.540836
 20
0.816919
  0
ENDSEC
  0
SECTION
  2
OBJECTS
  0
DICTIONARY
  5
C
330
0
100
AcDbDictionary
281
     1
  3
ACAD_GROUP
350
D
  3
ACAD_LAYOUT
350
1A
  3
ACAD_MLINESTYLE
350
17
  3
ACAD_PLOTSETTINGS
350
19
  3
ACAD_PLOTSTYLENAME
350
E
  0
DICTIONARY
  5
D
102
{ACAD_REACTORS
330
C
102
}
330
C
100
AcDbDictionary
281
     1
  0
DICTIONARY
  5
1A
102
{ACAD_REACTORS
330
C
102
}
330
C
100
AcDbDictionary
281
     1
  3
Layout1
350
1E
  3
Layout2
350
26
  3
Model
350
22
  0
DICTIONARY
  5
17
102
{ACAD_REACTORS
330
C
102
}
330
C
100
AcDbDictionary
281
     1
  3
Standard
350
18
  0
DICTIONARY
  5
19
102
{ACAD_REACTORS
330
C
102
}
330
C
100
AcDbDictionary
281
     1
  0
ACDBDICTIONARYWDFLT
  5
E
102
{ACAD_REACTORS
330
C
102
}
330
C
100
AcDbDictionary
281
     1
  3
Normal
350
F
100
AcDbDictionaryWithDefault
340
F
  0
LAYOUT
  5
1E
102
{ACAD_REACTORS
330
1A
102
}
330
1A
100
AcDbPlotSettings
  1

  2

  4

  6

 40
0.0
 41
0.0
 42
0.0
 43
0.0
 44
0.0
 45
0.0
 46
0.0
 47
0.0
 48
0.0
 49
0.0
140
0.0
141
0.0
142
1.0
143
1.0
 70
   688
 72
     0
 73
     0
 74
     5
  7

 75
    16
147
1.0
148
0.0
149
0.0
100
AcDbLayout
  1
Layout1
 70
     1
 71
     1
 10
0.0
 20
0.0
 11
420.0
 21
297.0
 12
0.0
 22
0.0
 32
0.0
 14
1.000000E+20
 24
1.000000E+20
 34
1.000000E+20
 15
-1.000000E+20
 25
-1.000000E+20
 35
-1.000000E+20
146
0.0
 13
0.0
 23
0.0
 33
0.0
 16
1.0
 26
0.0
 36
0.0
 17
0.0
 27
1.0
 37
0.0
 76
     0
330
1B
  0
LAYOUT
  5
26
102
{ACAD_REACTORS
330
1A
102
}
330
1A
100
AcDbPlotSettings
  1

  2

  4

  6

 40
0.0
 41
0.0
 42
0.0
 43
0.0
 44
0.0
 45
0.0
 46
0.0
 47
0.0
 48
0.0
 49
0.0
140
0.0
141
0.0
142
1.0
143
1.0
 70
   688
 72
     0
 73
     0
 74
     5
  7

 75
    16
147
1.0
148
0.0
149
0.0
100
AcDbLayout
  1
Layout2
 70
     1
 71
     2
 10
0.0
 20
0.0
 11
0.0
 21
0.0
 12
0.0
 22
0.0
 32
0.0
 14
0.0
 24
0.0
 34
0.0
 15
0.0
 25
0.0
 35
0.0
146
0.0
 13
0.0
 23
0.0
 33
0.0
 16
1.0
 26
0.0
 36
0.0
 17
0.0
 27
1.0
 37
0.0
 76
     0
330
23
  0
LAYOUT
  5
22
102
{ACAD_REACTORS
330
1A
102
}
330
1A
100
AcDbPlotSettings
  1

  2

  4

  6

 40
0.0
 41
0.0
 42
0.0
 43
0.0
 44
0.0
 45
0.0
 46
0.0
 47
0.0
 48
0.0
 49
0.0
140
0.0
141
0.0
142
1.0
143
1.0
 70
  1712
 72
     0
 73
     0
 74
     0
  7

 75
     0
147
1.0
148
0.0
149
0.0
100
AcDbLayout
  1
Model
 70
     1
 71
     0
 10
0.0
 20
0.0
 11
0.0
 21
0.0
 12
0.0
 22
0.0
 32
0.0
 14
0.0
 24
0.0
 34
0.0
 15
0.0
 25
0.0
 35
0.0
146
0.0
 13
0.0
 23
0.0
 33
0.0
 16
1.0
 26
0.0
 36
0.0
 17
0.0
 27
1.0
 37
0.0
 76
     0
330
1F
  0
MLINESTYLE
  5
18
102
{ACAD_REACTORS
330
17
102
}
330
17
100
AcDbMlineStyle
  2
Standard
 70
     0
  3

 62
   256
 51
90.0
 52
90.0
 71
     2
 49
1.0
 62
   256
  6
BYLAYER
 49
-1.0
 62
   256
  6
BYLAYER
  0
ACDBPLACEHOLDER
  5
F
102
{ACAD_REACTORS
330
E
102
}
330
E
  0
ENDSEC
  0
EOF
