  0
SECTION
  2
HEADER
  9
$ACADVER
  1
AC1009
  9
$EXTMIN
 10
0.0
 20
0.0
 30
0.0
  9
$EXTMAX
 10
1000.0
 20
1000.0
 30
0.0
  9
$FILLMODE
 70
 0
  9
$SPLFRAME
 70
 1
  0
ENDSEC
  0
SECTION
  2
TABLES
  0
TABLE
  2
LAYER
 70
1
  0
LAYER
  2
0
 70
     0
 62
     7
  6
CONTINUOUS
  0
ENDTAB
  0
ENDSEC
  0
SECTION
  2
ENTITIES
  0
LINE
  8
0
 62
     0
 10
84.6667
 20
175.828
 30
0.0
 11
83.9227
 21
175.744
 31
0.0
  0
LINE
  8
0
 62
     0
 10
83.9227
 20
175.744
 30
0.0
 11
82.8075
 21
175.618
 31
0.0
  0
LINE
  8
0
 62
     0
 10
82.8075
 20
175.618
 30
0.0
 11
81.4751
 21
175.47
 31
0.0
  0
LINE
  8
0
 62
     0
 10
81.4751
 20
175.47
 30
0.0
 11
80.0806
 21
175.315
 31
0.0
  0
LINE
  8
0
 62
     0
 10
80.0806
 20
175.315
 30
0.0
 11
70.4536
 21
173.59
 31
0.0
  0
LINE
  8
0
 62
     0
 10
70.4536
 20
173.59
 30
0.0
 11
60.7963
 21
170.589
 31
0.0
  0
LINE
  8
0
 62
     0
 10
60.7963
 20
170.589
 30
0.0
 11
51.5193
 21
166.47
 31
0.0
  0
LINE
  8
0
 62
     0
 10
51.5193
 20
166.47
 30
0.0
 11
43.0389
 21
161.388
 31
0.0
  0
LINE
  8
0
 62
     0
 10
43.0389
 20
161.388
 30
0.0
 11
37.2967
 21
157.071
 31
0.0
  0
LINE
  8
0
 62
     0
 10
37.2967
 20
157.071
 30
0.0
 11
31.998
 21
152.4
 31
0.0
  0
LINE
  8
0
 62
     0
 10
31.998
 20
152.4
 30
0.0
 11
27.1515
 21
147.384
 31
0.0
  0
LINE
  8
0
 62
     0
 10
27.1515
 20
147.384
 30
0.0
 11
22.7638
 21
142.034
 31
0.0
  0
LINE
  8
0
 62
     0
 10
22.7638
 20
142.034
 30
0.0
 11
18.8433
 21
136.362
 31
0.0
  0
LINE
  8
0
 62
     0
 10
18.8433
 20
136.362
 30
0.0
 11
15.3996
 21
130.376
 31
0.0
  0
LINE
  8
0
 62
     0
 10
15.3996
 20
130.376
 30
0.0
 11
12.4395
 21
124.09
 31
0.0
  0
LINE
  8
0
 62
     0
 10
12.4395
 20
124.09
 30
0.0
 11
9.97148
 21
117.511
 31
0.0
  0
LINE
  8
0
 62
     0
 10
9.97148
 20
117.511
 30
0.0
 11
8.16487
 21
111.271
 31
0.0
  0
LINE
  8
0
 62
     0
 10
8.16487
 20
111.271
 30
0.0
 11
6.84195
 21
104.977
 31
0.0
  0
LINE
  8
0
 62
     0
 10
6.84195
 20
104.977
 30
0.0
 11
5.99585
 21
98.655
 31
0.0
  0
LINE
  8
0
 62
     0
 10
5.99585
 20
98.655
 30
0.0
 11
5.61827
 21
92.3286
 31
0.0
  0
LINE
  8
0
 62
     0
 10
5.61827
 20
92.3286
 30
0.0
 11
5.70234
 21
86.0242
 31
0.0
  0
LINE
  8
0
 62
     0
 10
5.70234
 20
86.0242
 30
0.0
 11
6.24251
 21
79.7676
 31
0.0
  0
LINE
  8
0
 62
     0
 10
6.24251
 20
79.7676
 30
0.0
 11
7.23194
 21
73.5817
 31
0.0
  0
LINE
  8
0
 62
     0
 10
7.23194
 20
73.5817
 30
0.0
 11
8.66235
 21
67.4949
 31
0.0
  0
LINE
  8
0
 62
     0
 10
8.66235
 20
67.4949
 30
0.0
 11
10.5268
 21
61.5294
 31
0.0
  0
LINE
  8
0
 62
     0
 10
10.5268
 20
61.5294
 30
0.0
 11
12.8185
 21
55.7128
 31
0.0
  0
LINE
  8
0
 62
     0
 10
12.8185
 20
55.7128
 30
0.0
 11
15.5319
 21
50.0683
 31
0.0
  0
LINE
  8
0
 62
     0
 10
15.5319
 20
50.0683
 30
0.0
 11
18.66
 21
44.6222
 31
0.0
  0
LINE
  8
0
 62
     0
 10
18.66
 20
44.6222
 30
0.0
 11
22.1947
 21
39.401
 31
0.0
  0
LINE
  8
0
 62
     0
 10
22.1947
 20
39.401
 30
0.0
 11
26.129
 21
34.4275
 31
0.0
  0
LINE
  8
0
 62
     0
 10
26.129
 20
34.4275
 30
0.0
 11
30.4574
 21
29.7284
 31
0.0
  0
LINE
  8
0
 62
     0
 10
30.4574
 20
29.7284
 30
0.0
 11
35.1717
 21
25.3284
 31
0.0
  0
LINE
  8
0
 62
     0
 10
35.1717
 20
25.3284
 30
0.0
 11
40.5211
 21
21.0523
 31
0.0
  0
LINE
  8
0
 62
     0
 10
40.5211
 20
21.0523
 30
0.0
 11
46.1176
 21
17.2572
 31
0.0
  0
LINE
  8
0
 62
     0
 10
46.1176
 20
17.2572
 30
0.0
 11
51.9479
 21
13.9499
 31
0.0
  0
LINE
  8
0
 62
     0
 10
51.9479
 20
13.9499
 30
0.0
 11
57.9974
 21
11.1345
 31
0.0
  0
LINE
  8
0
 62
     0
 10
57.9974
 20
11.1345
 30
0.0
 11
64.2553
 21
8.81807
 31
0.0
  0
LINE
  8
0
 62
     0
 10
64.2553
 20
8.81807
 30
0.0
 11
70.7058
 21
7.00458
 31
0.0
  0
LINE
  8
0
 62
     0
 10
70.7058
 20
7.00458
 30
0.0
 11
77.337
 21
5.70096
 31
0.0
  0
LINE
  8
0
 62
     0
 10
77.337
 20
5.70096
 30
0.0
 11
84.1375
 21
4.91134
 31
0.0
  0
LINE
  8
0
 62
     0
 10
84.1375
 20
4.91134
 30
0.0
 11
90.8858
 21
4.67568
 31
0.0
  0
LINE
  8
0
 62
     0
 10
90.8858
 20
4.67568
 30
0.0
 11
97.6355
 21
4.9954
 31
0.0
  0
LINE
  8
0
 62
     0
 10
97.6355
 20
4.9954
 30
0.0
 11
104.338
 21
5.85805
 31
0.0
  0
LINE
  8
0
 62
     0
 10
104.338
 20
5.85805
 30
0.0
 11
110.944
 21
7.25262
 31
0.0
  0
LINE
  8
0
 62
     0
 10
110.944
 20
7.25262
 30
0.0
 11
117.409
 21
9.16672
 31
0.0
  0
LINE
  8
0
 62
     0
 10
117.409
 20
9.16672
 30
0.0
 11
123.682
 21
11.5893
 31
0.0
  0
LINE
  8
0
 62
     0
 10
123.682
 20
11.5893
 30
0.0
 11
129.716
 21
14.5066
 31
0.0
  0
LINE
  8
0
 62
     0
 10
129.716
 20
14.5066
 30
0.0
 11
135.467
 21
17.9062
 31
0.0
  0
LINE
  8
0
 62
     0
 10
135.467
 20
17.9062
 30
0.0
 11
139.563
 21
20.6885
 31
0.0
  0
LINE
  8
0
 62
     0
 10
139.563
 20
20.6885
 30
0.0
 11
143.103
 21
23.3743
 31
0.0
  0
LINE
  8
0
 62
     0
 10
143.103
 20
23.3743
 30
0.0
 11
146.444
 21
26.2585
 31
0.0
  0
LINE
  8
0
 62
     0
 10
146.444
 20
26.2585
 30
0.0
 11
149.951
 21
29.6333
 31
0.0
  0
LINE
  8
0
 62
     0
 10
149.951
 20
29.6333
 30
0.0
 11
154.547
 21
34.6246
 31
0.0
  0
LINE
  8
0
 62
     0
 10
154.547
 20
34.6246
 30
0.0
 11
158.775
 21
39.9881
 31
0.0
  0
LINE
  8
0
 62
     0
 10
158.775
 20
39.9881
 30
0.0
 11
162.523
 21
45.5718
 31
0.0
  0
LINE
  8
0
 62
     0
 10
162.523
 20
45.5718
 30
0.0
 11
165.681
 21
51.223
 31
0.0
  0
LINE
  8
0
 62
     0
 10
165.681
 20
51.223
 30
0.0
 11
170.706
 21
63.4132
 31
0.0
  0
LINE
  8
0
 62
     0
 10
170.706
 20
63.4132
 30
0.0
 11
173.966
 21
76.4124
 31
0.0
  0
LINE
  8
0
 62
     0
 10
173.966
 20
76.4124
 30
0.0
 11
174.327
 21
79.0773
 31
0.0
  0
LINE
  8
0
 62
     0
 10
174.327
 20
79.0773
 30
0.0
 11
174.593
 21
82.3337
 31
0.0
  0
LINE
  8
0
 62
     0
 10
174.593
 20
82.3337
 30
0.0
 11
174.765
 21
85.9839
 31
0.0
  0
LINE
  8
0
 62
     0
 10
174.765
 20
85.9839
 30
0.0
 11
174.84
 21
89.8303
 31
0.0
  0
LINE
  8
0
 62
     0
 10
174.84
 20
89.8303
 30
0.0
 11
174.817
 21
93.672
 31
0.0
  0
LINE
  8
0
 62
     0
 10
174.817
 20
93.672
 30
0.0
 11
174.692
 21
97.3116
 31
0.0
  0
LINE
  8
0
 62
     0
 10
174.692
 20
97.3116
 30
0.0
 11
174.469
 21
100.55
 31
0.0
  0
LINE
  8
0
 62
     0
 10
174.469
 20
100.55
 30
0.0
 11
174.144
 21
103.188
 31
0.0
  0
LINE
  8
0
 62
     0
 10
174.144
 20
103.188
 30
0.0
 11
172.488
 21
111.082
 31
0.0
  0
LINE
  8
0
 62
     0
 10
172.488
 20
111.082
 30
0.0
 11
170.203
 21
118.682
 31
0.0
  0
LINE
  8
0
 62
     0
 10
170.203
 20
118.682
 30
0.0
 11
167.305
 21
125.957
 31
0.0
  0
LINE
  8
0
 62
     0
 10
167.305
 20
125.957
 30
0.0
 11
163.814
 21
132.872
 31
0.0
  0
LINE
  8
0
 62
     0
 10
163.814
 20
132.872
 30
0.0
 11
159.749
 21
139.397
 31
0.0
  0
LINE
  8
0
 62
     0
 10
159.749
 20
139.397
 30
0.0
 11
155.127
 21
145.496
 31
0.0
  0
LINE
  8
0
 62
     0
 10
155.127
 20
145.496
 30
0.0
 11
149.967
 21
151.139
 31
0.0
  0
LINE
  8
0
 62
     0
 10
149.967
 20
151.139
 30
0.0
 11
144.286
 21
156.291
 31
0.0
  0
LINE
  8
0
 62
     0
 10
144.286
 20
156.291
 30
0.0
 11
134.76
 21
163.194
 31
0.0
  0
LINE
  8
0
 62
     0
 10
134.76
 20
163.194
 30
0.0
 11
124.703
 21
168.6
 31
0.0
  0
LINE
  8
0
 62
     0
 10
124.703
 20
168.6
 30
0.0
 11
114.075
 21
172.532
 31
0.0
  0
LINE
  8
0
 62
     0
 10
114.075
 20
172.532
 30
0.0
 11
102.835
 21
175.004
 31
0.0
  0
LINE
  8
0
 62
     0
 10
102.835
 20
175.004
 30
0.0
 11
100.923
 21
175.242
 31
0.0
  0
LINE
  8
0
 62
     0
 10
100.923
 20
175.242
 30
0.0
 11
98.5615
 21
175.457
 31
0.0
  0
LINE
  8
0
 62
     0
 10
98.5615
 20
175.457
 30
0.0
 11
95.9224
 21
175.642
 31
0.0
  0
LINE
  8
0
 62
     0
 10
95.9224
 20
175.642
 30
0.0
 11
93.1817
 21
175.788
 31
0.0
  0
LINE
  8
0
 62
     0
 10
93.1817
 20
175.788
 30
0.0
 11
90.5108
 21
175.887
 31
0.0
  0
LINE
  8
0
 62
     0
 10
90.5108
 20
175.887
 30
0.0
 11
88.0854
 21
175.933
 31
0.0
  0
LINE
  8
0
 62
     0
 10
88.0854
 20
175.933
 30
0.0
 11
86.0792
 21
175.916
 31
0.0
  0
LINE
  8
0
 62
     0
 10
86.0792
 20
175.916
 30
0.0
 11
84.6667
 21
175.828
 31
0.0
  0
LINE
  8
0
 62
     0
 10
125.801
 20
130.361
 30
0.0
 11
128.621
 21
127.952
 31
0.0
  0
LINE
  8
0
 62
     0
 10
128.621
 20
127.952
 30
0.0
 11
130.77
 21
124.599
 31
0.0
  0
LINE
  8
0
 62
     0
 10
130.77
 20
124.599
 30
0.0
 11
132.228
 21
120.569
 31
0.0
  0
LINE
  8
0
 62
     0
 10
132.228
 20
120.569
 30
0.0
 11
132.971
 21
116.127
 31
0.0
  0
LINE
  8
0
 62
     0
 10
132.971
 20
116.127
 30
0.0
 11
132.978
 21
111.545
 31
0.0
  0
LINE
  8
0
 62
     0
 10
132.978
 20
111.545
 30
0.0
 11
132.224
 21
107.09
 31
0.0
  0
LINE
  8
0
 62
     0
 10
132.224
 20
107.09
 30
0.0
 11
130.689
 21
103.026
 31
0.0
  0
LINE
  8
0
 62
     0
 10
130.689
 20
103.026
 30
0.0
 11
128.352
 21
99.6237
 31
0.0
  0
LINE
  8
0
 62
     0
 10
128.352
 20
99.6237
 30
0.0
 11
126.465
 21
97.9745
 31
0.0
  0
LINE
  8
0
 62
     0
 10
126.465
 20
97.9745
 30
0.0
 11
124.474
 21
96.956
 31
0.0
  0
LINE
  8
0
 62
     0
 10
124.474
 20
96.956
 30
0.0
 11
122.43
 21
96.5549
 31
0.0
  0
LINE
  8
0
 62
     0
 10
122.43
 20
96.5549
 30
0.0
 11
120.39
 21
96.7588
 31
0.0
  0
LINE
  8
0
 62
     0
 10
120.39
 20
96.7588
 30
0.0
 11
118.401
 21
97.5554
 31
0.0
  0
LINE
  8
0
 62
     0
 10
118.401
 20
97.5554
 30
0.0
 11
116.521
 21
98.9309
 31
0.0
  0
LINE
  8
0
 62
     0
 10
116.521
 20
98.9309
 30
0.0
 11
114.8
 21
100.871
 31
0.0
  0
LINE
  8
0
 62
     0
 10
114.8
 20
100.871
 30
0.0
 11
113.294
 21
103.364
 31
0.0
  0
LINE
  8
0
 62
     0
 10
113.294
 20
103.364
 30
0.0
 11
112.014
 21
106.562
 31
0.0
  0
LINE
  8
0
 62
     0
 10
112.014
 20
106.562
 30
0.0
 11
111.221
 21
109.968
 31
0.0
  0
LINE
  8
0
 62
     0
 10
111.221
 20
109.968
 30
0.0
 11
110.905
 21
113.47
 31
0.0
  0
LINE
  8
0
 62
     0
 10
110.905
 20
113.47
 30
0.0
 11
111.051
 21
116.96
 31
0.0
  0
LINE
  8
0
 62
     0
 10
111.051
 20
116.96
 30
0.0
 11
111.647
 21
120.323
 31
0.0
  0
LINE
  8
0
 62
     0
 10
111.647
 20
120.323
 30
0.0
 11
112.685
 21
123.45
 31
0.0
  0
LINE
  8
0
 62
     0
 10
112.685
 20
123.45
 30
0.0
 11
114.148
 21
126.23
 31
0.0
  0
LINE
  8
0
 62
     0
 10
114.148
 20
126.23
 30
0.0
 11
116.028
 21
128.549
 31
0.0
  0
LINE
  8
0
 62
     0
 10
116.028
 20
128.549
 30
0.0
 11
118.409
 21
130.386
 31
0.0
  0
LINE
  8
0
 62
     0
 10
118.409
 20
130.386
 30
0.0
 11
120.87
 21
131.308
 31
0.0
  0
LINE
  8
0
 62
     0
 10
120.87
 20
131.308
 30
0.0
 11
123.354
 21
131.302
 31
0.0
  0
LINE
  8
0
 62
     0
 10
123.354
 20
131.302
 30
0.0
 11
125.801
 21
130.361
 31
0.0
  0
LINE
  8
0
 62
     0
 10
63.6404
 20
130.508
 30
0.0
 11
66.1776
 21
128.945
 31
0.0
  0
LINE
  8
0
 62
     0
 10
66.1776
 20
128.945
 30
0.0
 11
68.4223
 21
126.349
 31
0.0
  0
LINE
  8
0
 62
     0
 10
68.4223
 20
126.349
 30
0.0
 11
70.2345
 21
122.929
 31
0.0
  0
LINE
  8
0
 62
     0
 10
70.2345
 20
122.929
 30
0.0
 11
71.4802
 21
118.886
 31
0.0
  0
LINE
  8
0
 62
     0
 10
71.4802
 20
118.886
 30
0.0
 11
71.8301
 21
116.073
 31
0.0
  0
LINE
  8
0
 62
     0
 10
71.8301
 20
116.073
 30
0.0
 11
71.8661
 21
112.794
 31
0.0
  0
LINE
  8
0
 62
     0
 10
71.8661
 20
112.794
 30
0.0
 11
71.6058
 21
109.562
 31
0.0
  0
LINE
  8
0
 62
     0
 10
71.6058
 20
109.562
 30
0.0
 11
71.0667
 21
106.892
 31
0.0
  0
LINE
  8
0
 62
     0
 10
71.0667
 20
106.892
 30
0.0
 11
69.7177
 21
103.477
 31
0.0
  0
LINE
  8
0
 62
     0
 10
69.7177
 20
103.477
 30
0.0
 11
67.9249
 21
100.518
 31
0.0
  0
LINE
  8
0
 62
     0
 10
67.9249
 20
100.518
 30
0.0
 11
65.7835
 21
98.1495
 31
0.0
  0
LINE
  8
0
 62
     0
 10
65.7835
 20
98.1495
 30
0.0
 11
63.3938
 21
96.5027
 31
0.0
  0
LINE
  8
0
 62
     0
 10
63.3938
 20
96.5027
 30
0.0
 11
60.3635
 21
95.6606
 31
0.0
  0
LINE
  8
0
 62
     0
 10
60.3635
 20
95.6606
 30
0.0
 11
57.2562
 21
96.4628
 31
0.0
  0
LINE
  8
0
 62
     0
 10
57.2562
 20
96.4628
 30
0.0
 11
54.8499
 21
98.0362
 31
0.0
  0
LINE
  8
0
 62
     0
 10
54.8499
 20
98.0362
 30
0.0
 11
52.783
 21
100.325
 31
0.0
  0
LINE
  8
0
 62
     0
 10
52.783
 20
100.325
 30
0.0
 11
51.121
 21
103.237
 31
0.0
  0
LINE
  8
0
 62
     0
 10
51.121
 20
103.237
 30
0.0
 11
49.9304
 21
106.679
 31
0.0
  0
LINE
  8
0
 62
     0
 10
49.9304
 20
106.679
 30
0.0
 11
49.2898
 21
110.338
 31
0.0
  0
LINE
  8
0
 62
     0
 10
49.2898
 20
110.338
 30
0.0
 11
49.1793
 21
114.015
 31
0.0
  0
LINE
  8
0
 62
     0
 10
49.1793
 20
114.015
 30
0.0
 11
49.5653
 21
117.602
 31
0.0
  0
LINE
  8
0
 62
     0
 10
49.5653
 20
117.602
 30
0.0
 11
50.4102
 21
120.99
 31
0.0
  0
LINE
  8
0
 62
     0
 10
50.4102
 20
120.99
 30
0.0
 11
51.6791
 21
124.072
 31
0.0
  0
LINE
  8
0
 62
     0
 10
51.6791
 20
124.072
 30
0.0
 11
53.3382
 21
126.738
 31
0.0
  0
LINE
  8
0
 62
     0
 10
53.3382
 20
126.738
 30
0.0
 11
55.3491
 21
128.881
 31
0.0
  0
LINE
  8
0
 62
     0
 10
55.3491
 20
128.881
 30
0.0
 11
57.6792
 21
130.39
 31
0.0
  0
LINE
  8
0
 62
     0
 10
57.6792
 20
130.39
 30
0.0
 11
59.1771
 21
130.966
 31
0.0
  0
LINE
  8
0
 62
     0
 10
59.1771
 20
130.966
 30
0.0
 11
60.5455
 21
131.175
 31
0.0
  0
LINE
  8
0
 62
     0
 10
60.5455
 20
131.175
 30
0.0
 11
61.9718
 21
131.021
 31
0.0
  0
LINE
  8
0
 62
     0
 10
61.9718
 20
131.021
 30
0.0
 11
63.6404
 21
130.508
 31
0.0
  0
LINE
  8
0
 62
     0
 10
140.688
 20
64.8409
 30
0.0
 11
141.046
 21
64.1435
 31
0.0
  0
LINE
  8
0
 62
     0
 10
141.046
 20
64.1435
 30
0.0
 11
141.012
 21
63.1017
 31
0.0
  0
LINE
  8
0
 62
     0
 10
141.012
 20
63.1017
 30
0.0
 11
140.571
 21
61.6423
 31
0.0
  0
LINE
  8
0
 62
     0
 10
140.571
 20
61.6423
 30
0.0
 11
139.708
 21
59.6896
 31
0.0
  0
LINE
  8
0
 62
     0
 10
139.708
 20
59.6896
 30
0.0
 11
138.231
 21
56.8978
 31
0.0
  0
LINE
  8
0
 62
     0
 10
138.231
 20
56.8978
 30
0.0
 11
136.619
 21
54.3828
 31
0.0
  0
LINE
  8
0
 62
     0
 10
136.619
 20
54.3828
 30
0.0
 11
134.745
 21
51.9631
 31
0.0
  0
LINE
  8
0
 62
     0
 10
134.745
 20
51.9631
 30
0.0
 11
132.482
 21
49.4591
 31
0.0
  0
LINE
  8
0
 62
     0
 10
132.482
 20
49.4591
 30
0.0
 11
129.119
 21
46.2855
 31
0.0
  0
LINE
  8
0
 62
     0
 10
129.119
 20
46.2855
 30
0.0
 11
125.426
 21
43.4082
 31
0.0
  0
LINE
  8
0
 62
     0
 10
125.426
 20
43.4082
 30
0.0
 11
121.43
 21
40.8397
 31
0.0
  0
LINE
  8
0
 62
     0
 10
121.43
 20
40.8397
 30
0.0
 11
117.163
 21
38.596
 31
0.0
  0
LINE
  8
0
 62
     0
 10
117.163
 20
38.596
 30
0.0
 11
112.656
 21
36.6931
 31
0.0
  0
LINE
  8
0
 62
     0
 10
112.656
 20
36.6931
 30
0.0
 11
107.939
 21
35.1427
 31
0.0
  0
LINE
  8
0
 62
     0
 10
107.939
 20
35.1427
 30
0.0
 11
103.044
 21
33.9604
 31
0.0
  0
LINE
  8
0
 62
     0
 10
103.044
 20
33.9604
 30
0.0
 11
98.002
 21
33.1611
 31
0.0
  0
LINE
  8
0
 62
     0
 10
98.002
 20
33.1611
 30
0.0
 11
93.5648
 21
32.8952
 31
0.0
  0
LINE
  8
0
 62
     0
 10
93.5648
 20
32.8952
 30
0.0
 11
88.1186
 21
32.9117
 31
0.0
  0
LINE
  8
0
 62
     0
 10
88.1186
 20
32.9117
 30
0.0
 11
82.8255
 21
33.179
 31
0.0
  0
LINE
  8
0
 62
     0
 10
82.8255
 20
33.179
 30
0.0
 11
78.8458
 21
33.6669
 31
0.0
  0
LINE
  8
0
 62
     0
 10
78.8458
 20
33.6669
 30
0.0
 11
72.2891
 21
35.2887
 31
0.0
  0
LINE
  8
0
 62
     0
 10
72.2891
 20
35.2887
 30
0.0
 11
66.1871
 21
37.4205
 31
0.0
  0
LINE
  8
0
 62
     0
 10
66.1871
 20
37.4205
 30
0.0
 11
60.5716
 21
40.0403
 31
0.0
  0
LINE
  8
0
 62
     0
 10
60.5716
 20
40.0403
 30
0.0
 11
55.4729
 21
43.1285
 31
0.0
  0
LINE
  8
0
 62
     0
 10
55.4729
 20
43.1285
 30
0.0
 11
50.9228
 21
46.663
 31
0.0
  0
LINE
  8
0
 62
     0
 10
50.9228
 20
46.663
 30
0.0
 11
46.9526
 21
50.6208
 31
0.0
  0
LINE
  8
0
 62
     0
 10
46.9526
 20
50.6208
 30
0.0
 11
43.5942
 21
54.9822
 31
0.0
  0
LINE
  8
0
 62
     0
 10
43.5942
 20
54.9822
 30
0.0
 11
40.8781
 21
59.7256
 31
0.0
  0
LINE
  8
0
 62
     0
 10
40.8781
 20
59.7256
 30
0.0
 11
39.9948
 21
61.6948
 31
0.0
  0
LINE
  8
0
 62
     0
 10
39.9948
 20
61.6948
 30
0.0
 11
39.5799
 21
63.0633
 31
0.0
  0
LINE
  8
0
 62
     0
 10
39.5799
 20
63.0633
 30
0.0
 11
39.6049
 21
64.0059
 31
0.0
  0
LINE
  8
0
 62
     0
 10
39.6049
 20
64.0059
 30
0.0
 11
40.0403
 21
64.6987
 31
0.0
  0
LINE
  8
0
 62
     0
 10
40.0403
 20
64.6987
 30
0.0
 11
40.1973
 21
64.7898
 31
0.0
  0
LINE
  8
0
 62
     0
 10
40.1973
 20
64.7898
 30
0.0
 11
40.5116
 21
64.8698
 31
0.0
  0
LINE
  8
0
 62
     0
 10
40.5116
 20
64.8698
 30
0.0
 11
41.0365
 21
64.94
 31
0.0
  0
LINE
  8
0
 62
     0
 10
41.0365
 20
64.94
 30
0.0
 11
41.8236
 21
65.0021
 31
0.0
  0
LINE
  8
0
 62
     0
 10
41.8236
 20
65.0021
 30
0.0
 11
42.9218
 21
65.0558
 31
0.0
  0
LINE
  8
0
 62
     0
 10
42.9218
 20
65.0558
 30
0.0
 11
44.3851
 21
65.1013
 31
0.0
  0
LINE
  8
0
 62
     0
 10
44.3851
 20
65.1013
 30
0.0
 11
46.265
 21
65.1411
 31
0.0
  0
LINE
  8
0
 62
     0
 10
46.265
 20
65.1411
 30
0.0
 11
48.6131
 21
65.1729
 31
0.0
  0
LINE
  8
0
 62
     0
 10
48.6131
 20
65.1729
 30
0.0
 11
51.4809
 21
65.199
 31
0.0
  0
LINE
  8
0
 62
     0
 10
51.4809
 20
65.199
 30
0.0
 11
54.919
 21
65.2198
 31
0.0
  0
LINE
  8
0
 62
     0
 10
54.919
 20
65.2198
 30
0.0
 11
58.9802
 21
65.2364
 31
0.0
  0
LINE
  8
0
 62
     0
 10
58.9802
 20
65.2364
 30
0.0
 11
63.7148
 21
65.2473
 31
0.0
  0
LINE
  8
0
 62
     0
 10
63.7148
 20
65.2473
 30
0.0
 11
69.1776
 21
65.2558
 31
0.0
  0
LINE
  8
0
 62
     0
 10
69.1776
 20
65.2558
 30
0.0
 11
75.4158
 21
65.2611
 31
0.0
  0
LINE
  8
0
 62
     0
 10
75.4158
 20
65.2611
 30
0.0
 11
82.4851
 21
65.2639
 31
0.0
  0
LINE
  8
0
 62
     0
 10
82.4851
 20
65.2639
 30
0.0
 11
90.4353
 21
65.2639
 31
0.0
  0
LINE
  8
0
 62
     0
 10
90.4353
 20
65.2639
 30
0.0
 11
103.571
 21
65.2597
 31
0.0
  0
LINE
  8
0
 62
     0
 10
103.571
 20
65.2597
 30
0.0
 11
114.388
 21
65.2445
 31
0.0
  0
LINE
  8
0
 62
     0
 10
114.388
 20
65.2445
 30
0.0
 11
123.07
 21
65.217
 31
0.0
  0
LINE
  8
0
 62
     0
 10
123.07
 20
65.217
 30
0.0
 11
129.793
 21
65.1743
 31
0.0
  0
LINE
  8
0
 62
     0
 10
129.793
 20
65.1743
 30
0.0
 11
134.736
 21
65.1178
 31
0.0
  0
LINE
  8
0
 62
     0
 10
134.736
 20
65.1178
 30
0.0
 11
138.081
 21
65.0448
 31
0.0
  0
LINE
  8
0
 62
     0
 10
138.081
 20
65.0448
 30
0.0
 11
140.004
 21
64.9524
 31
0.0
  0
LINE
  8
0
 62
     0
 10
140.004
 20
64.9524
 30
0.0
 11
140.688
 21
64.8409
 31
0.0
  0
ENDSEC
  0
EOF
